<svg version="1.1" xmlns="http://www.w3.org/2000/svg" viewBox="0 0 1536.8227815466485 1079.87501525879" width="1536.8227815466485" height="1079.87501525879" filter="invert(93%) hue-rotate(180deg)">
  <!-- svg-source:excalidraw -->
  
  <defs>
    <style>
      @font-face {
        font-family: "Virgil";
        src: url("https://excalidraw.com/Virgil.woff2");
      }
      @font-face {
        font-family: "Cascadia";
        src: url("https://excalidraw.com/Cascadia.woff2");
      }
    </style>
  </defs>
  <rect x="0" y="0" width="1536.8227815466485" height="1079.87501525879" fill="#ffffff"></rect><g stroke-linecap="round" transform="translate(10 81.87500381469727) rotate(0 758.4113907733242 494.00000572204635)"><path d="M-0.18 0.49 C464.97 1.79, 931.3 1.64, 1517.2 0.31 M0.3 0.31 C320.2 0.9, 639.84 1.33, 1516.61 -0.39 M1516.11 0.19 C1519.68 207.53, 1520.43 416.53, 1517.56 987.37 M1517.17 -0.26 C1519.64 206, 1519.01 411.91, 1516.73 988.1 M1516.04 987.61 C1028.27 991.61, 540 990.6, 0.72 988.29 M1516.67 988.19 C1114.84 982.72, 712.52 982.34, 0.22 988.38 M-0.04 988.16 C0.73 737.92, 0.78 488.16, 0.15 0.74 M-0.39 988.04 C-1.46 614.86, -1.71 242.49, -0.37 0.06" stroke="#000000" stroke-width="1" fill="none"></path></g><g transform="translate(54.99996185302757 10) rotate(0 384.5 33.5)"><text x="0" y="47" font-family="Virgil, Segoe UI Emoji" font-size="53px" fill="#000000" text-anchor="start" style="white-space: pre;" direction="ltr">Code Execution in JavaScript</text></g><g stroke-linecap="round" transform="translate(105.51097782429696 154.75988408019612) rotate(0 664.0690435255194 191.4154183937069)"><path d="M0.56 0.45 C294.42 1.51, 588.46 2.69, 1327.56 -0.17 M-0.32 0.03 C476.57 0.56, 953.65 0.27, 1328.44 -0.08 M1328.01 -0.61 C1325.48 151.3, 1326.3 301.4, 1327.33 383.89 M1328.46 0.42 C1329.02 151.55, 1329.57 303.57, 1328.02 382.5 M1328.47 382.11 C895.84 385.89, 463.66 386.47, 0.05 383.36 M1327.74 382.85 C915.91 378.72, 503.32 378.43, -0.02 383.05 M0.67 381.74 C-1.01 246.51, -1.93 109.28, -0.4 -0.91 M-0.12 382.37 C-0.18 302.24, 0.24 223.29, 0.58 0.23" stroke="#000000" stroke-width="1" fill="none"></path></g><g stroke-linecap="round" transform="translate(150.8095745319847 251.0096366543662) rotate(0 130.08814199899973 107.78731529323386)"><path d="M0 0 C0 0, 0 0, 0 0 M0 0 C0 0, 0 0, 0 0 M-0.05 6.88 C1.01 5.16, 2.2 2.51, 4.25 -0.19 M0 6.14 C1.17 4.49, 2.34 3.3, 5.24 0.29 M-1.05 11.72 C4.29 8.05, 6.21 4.9, 10.39 -1.48 M0.49 12.36 C2.22 8.65, 5.88 6.87, 9.9 -0.54 M1.85 19.39 C2.45 13.48, 8.02 9.97, 16.11 -1.06 M-0.66 18.06 C4.81 12.58, 10.86 4.24, 16.32 -0.31 M0.36 25.16 C8.9 14.96, 14 7.13, 20.73 -1.45 M0.35 24.55 C3.57 19.14, 8.61 14.81, 20.68 0.35 M0.75 31.26 C6.67 22.08, 11.23 17.45, 24.72 1.93 M0.28 30.45 C7.96 21.1, 18.01 10.37, 26.93 1.07 M0.45 36.44 C9.06 23.89, 21.14 11.54, 32.4 1.48 M0.23 36.74 C12.53 22.9, 24.93 8.65, 32.15 -0.54 M0.07 43.91 C14.06 29.09, 27.67 11.95, 36.88 0.82 M0.69 42.25 C10.58 31.01, 20.81 18.32, 36.04 0.09 M-0.35 49.35 C16.13 30.53, 30.98 16.76, 43.57 -1.48 M0.38 49.02 C14.69 30.83, 30.72 13.89, 43.04 -0.41 M1.53 53.38 C14.19 38.88, 31.75 17.61, 47.14 -0.14 M-0.23 54.15 C14.87 38.32, 27.55 24.05, 47.93 -0.17 M-0.66 61.37 C14.98 41.02, 34.16 22.58, 55.07 0.59 M0.67 60.97 C20.45 36.82, 43.09 12.9, 53.97 -1.01 M0.83 67.88 C20.7 42.55, 42.21 17.84, 56.64 -1.33 M-0.27 66.88 C20.17 42.27, 41.06 17.45, 58.56 0.7 M0.17 72.65 C19.08 48.8, 41.59 27.34, 62.39 -1.98 M-0.68 72.74 C20.73 50.34, 41.78 26.2, 63.28 -0.82 M-1.77 80.69 C23.18 51.38, 46.77 26.13, 69.17 0.26 M0.45 80.24 C16.69 61.07, 32.05 41.2, 69.59 0.38 M1.43 86.67 C16.08 64.99, 33.41 45.94, 75.61 0.47 M0.23 85.78 C22.53 58.44, 45.71 32.26, 74.94 -0.96 M-1.31 90.77 C20.87 69.18, 41.82 44.42, 79.13 -1.02 M-0.48 91.59 C29.01 57.69, 59.18 22.04, 80.37 -0.1 M0.36 99.07 C22.47 71.65, 48.49 42.46, 83.45 1.03 M0.35 97.61 C18.07 76.77, 36.71 56.86, 84.65 -1.26 M-1.57 103.66 C23.42 74.39, 49.26 47.89, 91.57 0.6 M0.87 102.85 C34.32 62.53, 69.06 23.6, 89.92 -0.42 M-1.17 110.58 C29.4 79.39, 56.72 45.88, 97.27 0.11 M0.26 110.8 C23.54 81.35, 48.84 53.98, 95.79 -0.24 M0.28 116.32 C33.92 76.88, 64.4 37.58, 102.14 -1.77 M0.14 115.25 C40.56 69.01, 79.5 22.58, 100.97 -0.93 M-0.68 123.59 C25.18 93.66, 51.35 64.31, 107.03 1.54 M0.27 121.49 C40.03 74.38, 82.06 27.63, 105.41 -1.1 M1.07 129.8 C36.44 81.41, 73.82 40.04, 113.12 0.37 M-0.03 128.11 C29.17 95.5, 59.65 60.46, 111.91 -0.67 M-0.38 135.08 C30.01 101.69, 55.87 70.54, 116.68 1.25 M1.05 134.4 C31.46 96.21, 63.07 59.15, 115.6 1.02 M-1.8 142.27 C46.84 83.77, 95.91 30.36, 121.41 -1.1 M0.68 139.76 C46.32 86.82, 91.61 32.18, 122.84 0.61 M0.14 145.43 C29.48 110.3, 60.25 75.3, 126.73 0.29 M0.92 145.53 C44.47 95.77, 87.35 46.45, 126.12 0.05 M1.57 153.44 C42.44 104.57, 83.85 58.96, 130.77 0.94 M0.27 152.17 C34.9 111.52, 72.14 70.96, 133.44 0.44 M-0.69 159.11 C42.09 109.2, 82.64 62.09, 138.29 1.23 M-0.67 158.96 C43.4 107.7, 86.86 57.59, 138.33 -0.44 M0.92 165.89 C49.59 109.06, 94.26 56.55, 142.79 1.27 M-0.68 163.83 C57.14 100.37, 112.91 36.57, 143.44 -0.11 M-0.07 169.98 C40.96 124.73, 80.56 78.84, 148.13 1.54 M-0.75 170.01 C40.49 125.62, 80.89 78.64, 148.32 -0.55 M0.09 177.51 C34.84 135.62, 69.39 96.24, 154.55 -1.58 M-0.43 176.37 C48.75 120.38, 97.93 62.37, 153.81 -0.88 M1.5 184.45 C60.71 113.17, 121.47 43.19, 159 1.84 M-0.61 182.9 C32.85 144.95, 66.47 105.55, 159.28 0.84 M0.55 190.11 C58.45 123.95, 115.93 58.7, 165.59 0.34 M0.05 189.73 C64.79 114.72, 129.51 40.98, 165.21 -0.61 M-0.14 194.02 C36.26 154.45, 72.06 112.37, 168.95 -1.04 M0.62 195.28 C44.35 143.43, 87.84 92.79, 168.83 0.91 M1.24 202.61 C38.24 154.15, 77.58 108.95, 174.42 0.85 M-0.04 201.15 C40.14 153.67, 82.27 105.39, 174.79 -0.32 M-0.41 206.36 C55.17 139.48, 115.07 73.95, 181.47 -1 M0.32 207.63 C54.34 146.6, 106.82 85.33, 179.36 -0.23 M1.43 212.59 C66.4 138.39, 129.22 63.28, 184.82 0.17 M-0.38 212.83 C46.67 159.54, 92.75 107.28, 185.96 0.1 M2.02 217.14 C46.24 165.75, 88.72 118.08, 189.5 0.79 M1.81 216.87 C59.48 152.62, 114.98 87.13, 191.2 0.02 M7.25 217.4 C78.97 134.91, 150.18 51.25, 196.09 1.04 M6.86 217.2 C69.8 147.25, 132.41 76.58, 197.02 0.23 M11.02 217.33 C58.44 167.11, 102.81 115.74, 200.45 -0.08 M13.06 217.89 C51.71 172.51, 90.59 127.28, 201.49 0.53 M18.58 217.47 C82.83 144.31, 145.47 70.75, 206.66 -0.44 M18.1 217.57 C77.9 146.77, 138.44 77.67, 207.7 -0.82 M21.53 217.02 C97.48 129.96, 172.39 43.95, 211.41 0.6 M23.24 217.11 C75.77 157.63, 126.8 99.86, 211.71 -0.24 M28.92 218.15 C69.05 168.07, 111.96 122.65, 216.95 0.42 M28.69 217.45 C104.59 130.23, 180.36 43.62, 217.44 -0.01 M33.55 218.29 C99.65 141.95, 164.77 63.04, 221.52 0.54 M33.52 217.42 C88.3 154.35, 141.94 91.39, 223.09 0.12 M40.02 217.49 C115.96 131.58, 190.21 43.91, 229.33 -1.17 M38.56 217.59 C90.9 156.21, 142.66 98.28, 228.49 -0.79 M43.07 216.71 C99.77 152.21, 156.25 89.28, 231.89 -0.04 M44.82 216.65 C113.56 135.82, 183.05 55.24, 233.6 0.54 M49.6 216.11 C88.35 172.27, 127.35 128.92, 238.46 -0.7 M50.37 216.71 C119.55 135.48, 189.5 54.51, 237.67 -0.37 M54.06 216.42 C129.32 131.68, 204.87 46.45, 242.59 -1.37 M54.79 216.67 C125.32 134.26, 195.9 53.21, 243.99 -0.59 M60.39 217.18 C121.87 144.61, 188.22 70.13, 248.98 0.62 M60.55 217.53 C111.45 159.79, 162.86 101.61, 249.55 -0.25 M66.46 218.08 C138.67 133.13, 212.07 45.96, 255.66 -1.14 M65.4 217.29 C117.37 156.82, 171.07 95.01, 254.79 0.6 M71.02 217.32 C123.28 156.02, 176.03 95.75, 259.5 0.31 M71.31 216.22 C120.51 162.16, 170.44 106.23, 259 -0.19 M76.15 215.85 C146.91 135.71, 219.98 52.34, 264.14 1.72 M76.86 217.82 C115.01 172.83, 153.54 128.99, 262.79 2.25 M81.5 216.48 C129.06 161.65, 176.11 107.83, 264.08 9.07 M80.95 218.26 C148.63 139.19, 216.57 60.92, 263.1 8.61 M87.02 218.55 C132.61 163.94, 180.14 111.11, 263.83 13.84 M86.08 217.04 C154.95 137.85, 223.99 57.71, 262.33 15.53 M92.77 218.01 C142.33 159.46, 192.63 102.22, 263.82 21.21 M90.99 217.2 C156.28 143.92, 220.02 70.46, 262.27 20.04 M99 216.13 C140.35 169.59, 179.4 120.32, 263.43 28 M97.44 217.81 C132.88 174.62, 169.42 132.38, 263.11 26.87 M102.6 217.76 C158.24 150.43, 215.87 84.61, 264.23 31.18 M102.41 217.56 C157.59 152.55, 213.67 88.24, 263.83 32.91 M107.5 216.76 C164.67 151.4, 223.84 82.79, 263.23 38.99 M107.25 217.79 C167.93 146.49, 229.84 76.23, 262.39 38.93 M111.48 216.47 C173.77 149.55, 232.68 80.61, 262.63 43.98 M113.35 217.96 C163.2 161.18, 211.41 105.27, 262.91 45.21 M120.01 218.81 C150.65 181.42, 181.66 146.8, 263.13 49.9 M117.97 217.18 C168.13 159.09, 219.75 99.27, 262.71 51.56 M122.25 217.92 C168.85 164.8, 214.96 113.83, 263.85 58.87 M123.23 217.91 C161.46 176.48, 196.57 136.23, 262.83 56.95 M129.45 216.25 C173.74 167.02, 218.48 119.6, 261.77 63.7 M128.55 217.39 C166.25 173.71, 203.13 130.94, 263.13 63.95 M133.17 218.7 C163.39 181.94, 196 147.04, 262.7 69.61 M134.77 218.19 C165.72 182.02, 193.73 148.45, 263.08 70.05 M141.44 216.44 C167.01 187.85, 193.44 156.72, 263.11 76.56 M139.29 217.59 C169.4 183.52, 200.96 147.19, 263.53 75.3 M145.12 217.64 C188.55 163.89, 232.23 115.27, 264.13 82.76 M144.94 216.8 C175.51 183.7, 206.39 146.11, 263.55 81.21 M149.06 215.79 C188.48 169.99, 230.88 122.4, 264.7 88.64 M150.47 217.94 C184.52 176.84, 220.32 134.45, 263.36 87.52 M157.15 217.35 C192.35 173.42, 234.78 128.67, 264.32 93.26 M156.12 217.22 C187.04 180.99, 220.3 142.75, 263.77 94.18 M159.83 217.47 C184.45 187.37, 210.21 158.53, 264.05 98.2 M161.75 216.05 C187.27 189.44, 211.89 160, 263.83 100.47 M167.09 215.77 C205.15 174.6, 243.85 129.02, 261.29 107.98 M166.44 218.18 C189.29 192.21, 211.44 166.03, 262.3 106.87 M171.94 216.09 C198.29 188.06, 223.13 160.73, 262.13 110.06 M172.62 216.81 C201.5 182.97, 229.02 149.76, 262.52 112.43 M175.42 218.21 C197.92 195.29, 215.8 173.02, 261.62 118.9 M177.71 217.73 C199.05 191.68, 221.73 168.3, 263.36 118.21 M182.15 217.65 C204.16 194.84, 223.33 170.46, 262.56 124.4 M182.23 216.43 C212.03 180.93, 241.81 147.24, 262.67 125.03 M189.24 217.36 C218.35 184.97, 247.12 149.46, 264.57 131.67 M187.43 217.24 C212.09 190.33, 236.35 162.74, 262.89 130.72 M193.21 216.28 C214.02 188.98, 236.88 163.92, 262.88 137.53 M192.76 217.19 C218.83 188.26, 244.03 160.46, 262.55 135.93 M198.26 217.28 C222.95 189.82, 250.21 158.11, 264.66 142.52 M198.78 217.38 C216.05 195.17, 236.46 172.76, 263.16 143.49 M204.49 219.22 C218.03 200.34, 231.45 183.35, 261.26 150.89 M202.06 218.39 C225.74 191.55, 248.88 166.02, 262.11 149.86 M206.82 217.4 C223.53 198.63, 236.85 185.43, 263.07 155.08 M208.64 218.12 C231.11 192.81, 251.15 168.48, 262.15 154.91 M211.97 219.35 C230.7 201.14, 242.37 184.2, 264.52 159.53 M213.68 216.94 C225.78 203.77, 235.79 190.42, 263.01 161.13 M217.91 216.53 C230.73 203.84, 242.14 188.35, 262.91 169.11 M219.57 216.78 C233.8 199.49, 248.41 181.51, 262.86 167.44 M222.94 216.16 C239.93 199.62, 253.04 183.6, 262.74 173.15 M223.54 218.29 C234.64 205.08, 246.97 191.05, 263.23 172.6 M229.12 216.86 C235.89 209.84, 242.22 203.01, 263.91 177.46 M229.81 217.96 C237.4 208.38, 243.91 200.02, 261.93 178.58 M235.31 216.53 C240.99 207.11, 250.89 200.44, 264.65 184.79 M235.22 217.21 C240.74 210.79, 247.72 203.09, 262.47 184.43 M240.66 215.96 C245.87 209.16, 252.77 203.22, 262.44 190.64 M241.32 217.57 C245.31 211.1, 250.71 205.49, 263.74 191.42 M245.61 218.7 C247.94 212.85, 255.33 208.36, 260.93 199.66 M246.01 217.78 C250.44 213.07, 253.84 206.67, 263.45 196.87 M251.37 218.57 C256.6 213.45, 257.15 209.14, 262.25 201.94 M251.65 216.89 C253.71 212.96, 257.34 209.95, 263.02 203.58 M256.6 216.86 C258.59 215.78, 259.86 214.05, 262.82 208.96 M256.54 217.4 C258.74 214.6, 260.09 212.3, 262.65 209.54" stroke="#228be6" stroke-width="0.5" fill="none"></path><path d="M1.11 -1.53 C68.35 -0.35, 132.62 -1.51, 261.12 -0.64 M-0.77 0.56 C76.16 -0.16, 153.97 -0.29, 260.94 -0.59 M258.75 0.07 C259.75 48.33, 258.8 101.42, 261.85 216.53 M259.64 0.08 C261.45 56.08, 261 109.97, 260.4 215.49 M260.19 214.81 C165.49 214.09, 70.42 214.75, 0.17 215.26 M260.62 216.18 C203.88 215.66, 147.22 216.08, 0.45 215.92 M-0.04 215.77 C-2.47 145.68, -1.65 76.33, -1.59 0.13 M0 214.77 C1 133.96, 1.24 51.11, -0.39 -0.24" stroke="#000000" stroke-width="1" fill="none"></path></g><g transform="translate(213.37576670775354 471.83203503108143) rotate(0 72 19)"><text x="0" y="26" font-family="Virgil, Segoe UI Emoji" font-size="30px" fill="#000000" text-anchor="start" style="white-space: pre;" direction="ltr">firstName</text></g><g transform="translate(218.56381515646376 337.8213075452959) rotate(0 67.5 19)"><text x="0" y="26" font-family="Virgil, Segoe UI Emoji" font-size="30px" fill="#000000" text-anchor="start" style="white-space: pre;" direction="ltr">undefined</text></g><g transform="translate(154.75870719963314 213.9278389748199) rotate(0 67.5 19)"><text x="0" y="26" font-family="Virgil, Segoe UI Emoji" font-size="30px" fill="#000000" text-anchor="start" style="white-space: pre;" direction="ltr">undefined</text></g><g stroke-linecap="round" transform="translate(476.6493874200148 246.05387900690403) rotate(0 130.08814199899973 107.78731529323363)"><path d="M0 0 C0 0, 0 0, 0 0 M0 0 C0 0, 0 0, 0 0 M-0.56 7.02 C0.83 5.71, 1.43 4.15, 4.33 0.14 M-0.04 6.32 C1.27 4.19, 2.96 2.67, 5.05 0.01 M-0.81 11.76 C2.95 8.18, 8.92 1.85, 9.5 1.29 M-0.26 11.44 C4.91 8.42, 8.41 2.54, 10.53 0.01 M1.4 19.61 C5.36 11.36, 9.74 4.52, 17.58 -1.2 M0.05 17.84 C4.37 14.13, 8.03 10.53, 14.97 0.45 M-1.68 24.1 C5 18.9, 10.82 11.35, 21.15 -0.38 M-0.3 23.56 C8.56 15.91, 15.5 7.15, 20.84 -0.93 M0.72 30.46 C11.16 18.91, 20.85 4.76, 27.91 1.06 M0.28 30.21 C7.86 20.87, 16.55 10.1, 25.75 0.4 M1.52 37.5 C7.35 28.74, 14.78 19.72, 32.67 0.53 M0.43 37.51 C10.05 23.99, 22.94 11.35, 32.8 0.26 M-0.22 41.44 C12.43 30.3, 22.58 15.69, 38 -0.3 M0.62 42.53 C10.65 30.69, 21.19 19.72, 36.21 0.96 M1.02 48.02 C17.43 30.67, 33.8 8.81, 41.76 0.16 M0.11 49.03 C13.15 33.95, 26.35 16.97, 43.42 0.38 M0.05 52.87 C9.28 42.56, 18.82 33.43, 46.12 -0.77 M0.36 55.35 C16.78 34.09, 35.57 13.62, 46.75 1.1 M1.97 61.39 C11.65 46.94, 25.77 29.35, 53.01 1.69 M0.73 61.57 C17.99 41.56, 35.2 20.46, 53.47 -0.46 M0.99 69.18 C21.46 44.55, 39.67 21.18, 57.18 -0.48 M-0.14 67.3 C11.3 53.59, 22.74 39.63, 57.47 1.08 M0.75 74.01 C17.83 49.99, 38.27 29.54, 65.65 -0.32 M0.65 73.15 C25.06 43.38, 51.9 14.66, 63.37 -0.84 M-1.39 79.92 C27.93 50.03, 54.38 19.91, 70.73 -0.18 M-0.89 80.04 C18.45 57.39, 39.03 34.31, 68.15 0.47 M0.42 85.61 C17.13 64.61, 36.16 44.08, 73.52 0.07 M-0.12 85.1 C18.91 63.14, 37.33 42.14, 75.25 -0.01 M1.6 92.28 C26.46 60.21, 53.8 29.02, 80.91 -1.25 M-0.17 90.8 C21.32 66.78, 43.45 40.39, 80.25 0.18 M-2.04 96.08 C27.62 68.53, 52.14 36.41, 85.08 0.17 M-0.5 98.81 C32.48 61.17, 63.94 25.17, 84.93 0.07 M1.95 104.09 C33.63 64.92, 67.26 22.54, 88.51 -1.68 M0.07 103.39 C32.99 65.8, 65.99 29.41, 90.93 0.41 M-1.02 110.39 C31.13 74.34, 63.56 36.64, 95.45 0.66 M0.22 110.74 C34.34 70.68, 68.2 32.11, 95.89 -1.24 M2.24 116.51 C29.3 83.41, 55.82 52.76, 100.94 -0.12 M-0.4 114.91 C27.18 85.48, 54.07 55.04, 101.04 0.67 M1.72 123.19 C31.24 86.03, 60.25 49.87, 106.32 1.61 M0.48 122.9 C37.05 82.65, 72.67 40.94, 105.34 -1.27 M-0.96 126.87 C37.04 83.1, 77.18 35.3, 112.23 0.19 M-0.81 128.54 C24.04 99.38, 50.69 71.18, 111.1 -0.21 M-0.28 135.71 C42.17 88.81, 81.48 40.87, 117.41 -0.8 M1.05 133.86 C44.4 82.73, 88.3 33.56, 115.48 0.73 M1.5 141.59 C36.4 102.28, 69.15 62.08, 123.04 -0.62 M-0.73 140.5 C27.14 106.53, 55.65 73.25, 121.33 -0.09 M1.14 144.58 C28.03 114.31, 56.85 79.49, 124.98 -1.26 M0.41 145.53 C34.14 108.52, 69.31 69.14, 126.19 0.53 M-0.49 152.7 C46.03 100.1, 91.55 45.8, 132.64 0.84 M0.01 152.59 C51.3 91.55, 103.06 32.6, 131.74 0.43 M0.07 158.58 C30.94 122.41, 60.14 87.88, 137.93 -0.71 M0.02 157.97 C45.97 105.92, 93.62 51.77, 137.11 -0.39 M1.74 163.18 C49.55 104.82, 98.31 49.65, 143 -0.23 M-0.07 165.12 C49.43 107.44, 98.46 51.22, 143.57 0.24 M-0.58 171.4 C56.48 101.96, 114.12 38.05, 148.57 1.78 M-0.75 170 C38.83 127.65, 77.16 82.8, 148.05 -0.31 M0.72 178.12 C43.89 123.69, 90.63 72.63, 154.43 -1.67 M0.99 176.08 C42.2 130.94, 83.58 82.33, 154.44 -0.53 M-1.48 182.9 C58.64 112.86, 117.2 45.9, 159.62 0.28 M0.45 182.24 C31.22 144.61, 65.14 106.41, 158.73 0.05 M1.26 189.24 C57.38 121.26, 118.11 53.43, 162.87 1.16 M-0.94 188.81 C42.14 139.84, 84.82 89.55, 165.22 -0.69 M-0.46 194.91 C61.37 127.53, 121.92 57.17, 169 -1.38 M-0.4 195.59 C52.27 135.36, 104.63 75.35, 168.64 -0.52 M-1.06 202.4 C47.76 146.32, 94.45 90.89, 176.33 -0.84 M0.06 201.93 C65.57 126.84, 129.38 52.14, 174.87 0.27 M0.18 205.44 C56.13 141.97, 115.08 75.59, 180.07 -0.31 M0.7 207.18 C37.93 166.68, 73.84 124.98, 180.18 -0.47 M-0.77 212.14 C62.79 142.24, 121.47 72.11, 185.48 -0.82 M-0.5 212.75 C65.06 138.05, 129.41 62.97, 185.29 -0.81 M1.72 216.78 C78.6 130.7, 151.85 45.39, 191.7 -0.48 M2.33 217 C54.38 155.77, 108.34 93.48, 190.69 -0.49 M7.78 216.04 C45.36 169.86, 86.01 125.19, 195.92 0.87 M6.9 216.81 C63.59 148.73, 121.88 83.15, 196.41 0.21 M10.95 216.92 C69.62 154.91, 125.61 89.26, 201.91 -0.01 M12.64 216.78 C63.03 159.03, 112.86 100.86, 202.03 -0.23 M18.31 217.73 C84.36 141.76, 150.8 66.48, 205.82 0.57 M18.76 217.25 C67.17 158.87, 117.83 100.93, 206.53 -0.75 M22.58 216.18 C78.03 154.85, 131.71 91.91, 210.7 -0.52 M22.4 217.38 C97.5 132.9, 172.28 46.92, 211.23 0.18 M30.15 216.72 C97.61 138.22, 166.14 60.01, 218.41 0.16 M29.03 217.53 C104.02 130.14, 179.34 44.26, 218.2 -0.7 M33.43 216.82 C77.29 168.98, 117.78 121.32, 223.02 -1.14 M34.36 217.07 C77.18 165.67, 123.02 113.84, 222.62 0.06 M38.86 217.29 C80.64 168.37, 122.64 122.73, 226.84 1.04 M39.23 216.77 C111.16 133.96, 183.07 51.05, 227.74 -0.18 M45.31 217.61 C104.33 152.77, 158.57 85.3, 233.78 -1.43 M43.53 216.61 C102.71 147.88, 161.72 79.07, 232.76 -0.25 M51.01 217.23 C102.14 158.85, 153.49 97.15, 237.63 -1.1 M50.62 216.63 C98.14 163.54, 145.12 109.19, 238.08 0.47 M56 216.86 C117.68 149.32, 174.99 79.13, 242.84 -1.44 M55.18 217.76 C102.82 162.35, 151.95 105.75, 244 0.54 M60.08 216.85 C105.33 163.63, 153.8 110.71, 249.2 1.74 M61.21 216.7 C126.2 141.43, 193.3 63.4, 249.39 -0.33 M65.23 218.44 C104.61 171.27, 145.55 124.84, 255.09 1.31 M65.35 217.24 C109.9 164.01, 155.32 112.12, 253.94 0.22 M70.56 216.03 C108.92 172.08, 148.15 125.69, 259.99 1.25 M71.82 217.59 C143.55 134.79, 215.74 51.76, 259.62 0.59 M74.72 216.67 C134.09 151.6, 193.48 82.4, 263.37 2.09 M75.83 217.26 C144.69 139.75, 211.07 62.62, 262.5 2.82 M82.28 217.93 C120.64 170.81, 161.07 124.97, 263.84 8.29 M80.83 217.12 C144.76 144.33, 208.72 70.45, 262.93 8.91 M88.24 217.52 C138.61 156.04, 190.81 95.5, 263.27 13.69 M86.71 216.5 C132.58 165.19, 177.09 112.88, 262.6 14.88 M92.93 216.86 C142.09 156.04, 193.58 98.1, 261.58 20.39 M91.4 217.91 C128.03 178.63, 163.4 137.95, 262.92 19.92 M96.11 217.37 C136.32 172.37, 174.57 126.88, 263.36 25.97 M97.85 217.79 C144.63 163.12, 191.34 108.68, 262.46 27.38 M103.2 218.28 C140.45 173.48, 180.1 127.88, 261.67 32.37 M103.06 218.22 C137.89 174.17, 175.09 131.29, 263.85 32.32 M109.63 218.33 C160.26 156.43, 211.85 98.63, 263.75 40.52 M108.83 217.03 C162.79 154.28, 216.65 93.56, 262.63 39.77 M113.46 216.71 C143.74 183.51, 176.03 148.82, 261.39 46.25 M112.34 218.06 C146.89 178.18, 183.43 137.8, 262.52 45.69 M119.63 218.75 C175.08 150.84, 232.92 85.6, 264.13 50.76 M118.91 217.68 C158 170.5, 198 126.29, 262.51 51.7 M122.91 216 C166.33 164.65, 212.32 116.23, 262 57.86 M123.86 216.79 C173.24 160.76, 223.12 103.26, 262.37 58.33 M128.83 216.24 C183.52 155.94, 233.96 97.63, 262.89 63.05 M128.73 217.65 C157.67 182.79, 186.65 150.48, 262.88 63.95 M132.9 216.17 C170.61 177.7, 206.58 137.79, 261.38 67.91 M133.37 216.69 C170.16 176.11, 205.65 134.2, 263.07 70.22 M138.94 218.72 C165.84 182.87, 197.18 151.53, 263.79 77.48 M140.69 217.68 C171.07 181.48, 202.07 145.03, 261.83 75.65 M144.17 217.12 C182.58 170.39, 223.52 122.75, 264.81 79.98 M145.55 218.1 C167.49 189.86, 190.85 162.48, 262.72 81.47 M150.94 218.86 C174.64 186.45, 203.29 155.45, 263.87 86.83 M151.22 217.8 C174.77 188.54, 201.49 157.18, 262.98 88.65 M155.59 217.45 C191.55 175.1, 230.31 128.41, 263.95 93.14 M154.98 218.23 C183.07 184.31, 210.21 153.01, 262.93 93.87 M160.05 216.06 C186.81 188.65, 211.43 158.87, 264.55 101.52 M162.18 217.54 C188.66 184.05, 216.49 151.25, 263.65 100.65 M164.75 215.36 C198.41 182.59, 228.6 147.48, 264.56 106.51 M165.92 217.7 C196.59 181.87, 227.06 147.66, 262.38 107.21 M172.19 217.19 C204.89 182.81, 235.72 146.17, 262.54 110.62 M171.15 217.65 C199.01 185.14, 226.24 155.98, 263.52 111.84 M175.87 216.4 C210.12 180.4, 245.17 140.15, 260.98 120.33 M176.31 216.42 C208.91 180.03, 241.45 143.23, 263.42 118.31 M183.88 216.5 C208.84 187.78, 231.43 158.52, 261.19 122.56 M183.42 216.23 C204.84 191.03, 228.16 164.32, 263.97 123.69 M187.8 217.51 C211.41 188.34, 236.13 161.41, 264.22 132.47 M187.76 217.63 C215.8 185.33, 242.65 152.09, 262.11 129.55 M193.63 216.37 C213.66 193.06, 234.91 168.61, 261.81 137.91 M193.29 217.41 C219.87 187.05, 246.97 155.44, 263.4 137.76 M198.01 219 C214.72 201.05, 228.34 180.73, 264.56 143.44 M197.59 217.88 C220.46 190.71, 245.01 163.6, 262.85 141.91 M204.54 216.29 C221.83 194.48, 240.85 175.78, 262.31 150.35 M202.73 218.38 C221.07 195.95, 238.6 177.14, 261.88 148.66 M210.59 216.56 C228.3 192.46, 253.12 169.57, 262.91 153.11 M208.79 217.03 C227.27 195.69, 245.77 176.96, 263.74 153.63 M212.35 217.38 C231.39 195.95, 250.14 175.17, 261.26 159.18 M213.44 217.94 C224.11 205.24, 233.34 194.26, 263.19 160.54 M220.27 217.25 C230.3 205.31, 239.26 191.85, 262.14 165.47 M220.06 216.26 C227.63 206.2, 236.32 197.05, 261.9 167.06 M224.1 219.39 C235.91 204.48, 245.84 193.67, 264.5 174.35 M223.43 217.39 C234.66 205.75, 244.1 194.14, 263.44 172.17 M228.38 215.5 C242.11 202.11, 257.55 187.12, 261.73 177.66 M229.77 218.03 C238.22 208.23, 246.03 197.92, 262.11 179.58 M233.45 217.45 C245.25 206.47, 254.33 193.18, 264.51 185.17 M234.43 217.38 C245.11 207.04, 253.11 196.22, 262.46 185.57 M238.91 217.11 C245.38 212.19, 252.83 204.09, 261.8 192.41 M239.98 216.17 C244.89 210.98, 251.65 203.89, 262.87 192.14 M244.68 218.06 C249.97 212.13, 256.88 206.37, 263.71 197.07 M245.84 217.87 C248.74 213.49, 253.57 210.08, 263.07 196.87 M250.52 215.47 C255.14 213.25, 259.24 206.19, 261.89 203.13 M250.51 217.7 C254.17 213.37, 257.73 209.86, 263.02 204.19 M256.45 218.25 C257.63 215.93, 260.02 213.98, 261.96 209.24 M256.48 217.77 C257.61 215.8, 259.63 213.56, 262.28 209.55" stroke="#228be6" stroke-width="0.5" fill="none"></path><path d="M-0.08 -1.28 C72.73 -0.7, 146.37 -0.23, 260.14 1.19 M-0.55 -0.08 C72.73 0.89, 146.31 1.43, 259.44 -0.54 M259.41 0.93 C263.21 82.87, 262.15 168.42, 261.86 215.21 M260.74 0.36 C259.87 52.57, 260.24 105.26, 260.39 215.63 M258.85 214 C165.01 216.04, 70.94 215.5, 0.02 215.51 M260.34 216.03 C167.41 216.45, 76.2 215.82, -0.43 215.31 M1.44 215.22 C0.37 167.36, 0.11 120.39, 1.59 1.7 M-0.48 214.71 C1.4 142.09, 1.34 68.87, 0.8 0.68" stroke="#000000" stroke-width="1" fill="none"></path></g><g transform="translate(539.2155795957837 466.87627738362244) rotate(0 69.00000000000006 19)"><text x="0" y="26" font-family="Virgil, Segoe UI Emoji" font-size="30px" fill="#000000" text-anchor="start" style="white-space: pre;" direction="ltr">lastName</text></g><g transform="translate(544.4036280444939 332.8655498978337) rotate(0 67.5 19)"><text x="0" y="26" font-family="Virgil, Segoe UI Emoji" font-size="30px" fill="#000000" text-anchor="start" style="white-space: pre;" direction="ltr">undefined</text></g><g transform="translate(480.59852008766325 208.97208132735773) rotate(0 67.5 19)"><text x="0" y="26" font-family="Virgil, Segoe UI Emoji" font-size="30px" fill="#000000" text-anchor="start" style="white-space: pre;" direction="ltr">undefined</text></g><g stroke-linecap="round" transform="translate(803.7281633507143 243.57600018317294) rotate(0 130.08814199899973 107.78731529323375)"><path d="M0 0 C0 0, 0 0, 0 0 M0 0 C0 0, 0 0, 0 0 M-0.12 6.9 C1.36 4.89, 3.05 2.29, 4.4 0.2 M0.09 6.34 C1.08 4.24, 3.08 2.19, 5.17 0.52 M1.27 10.57 C1.73 8.25, 4.08 7.67, 12.21 0.73 M0.44 12.24 C1.95 9.94, 5.33 6.7, 10.21 -0.33 M-1.21 19.84 C1.76 15.07, 5.18 12.38, 15.71 1.41 M-0.85 18.17 C5.45 10.36, 12.31 4.2, 15.7 0.79 M1.27 22.93 C5.42 18.02, 7.86 15.8, 22.01 0.72 M1.21 23.32 C7.61 17.23, 13.21 9.77, 21.53 -0.1 M0.47 31.84 C6.93 24.47, 10.46 16.6, 26.96 -0.14 M-0.6 30.73 C7.07 24.29, 12.72 16.36, 26.74 0.15 M0.77 37.39 C9.68 25.54, 22.78 9.78, 31.82 1.28 M-0.13 36.88 C10.38 24.29, 20.24 12.58, 32.44 -0.37 M-0.29 40.84 C10.06 31.51, 20.9 18.3, 36.65 0.68 M1.12 43.04 C13.36 27.18, 27.2 11.35, 37.38 0.36 M0.28 49.95 C9.54 37.79, 20.31 25.54, 43.78 -1.32 M-1.08 48.73 C9.33 37, 18.73 25.16, 42.02 -0.55 M1.75 55.4 C16.29 36.09, 35.07 15.17, 46.84 0.64 M-0.25 55.52 C12.91 41.49, 24.6 26.42, 48.17 0.24 M0.68 62.61 C11.31 47.01, 27.16 32.2, 54.23 0.35 M0.47 60.21 C14.03 44.51, 30.67 27.18, 53.13 -0.65 M-2.24 68.2 C18.06 48.25, 33.91 28.73, 58.16 -0.16 M-0.26 66.66 C14.15 50.07, 30.38 31.75, 57.32 -0.07 M2.12 71.99 C16.82 52.66, 36.93 28.62, 62.13 1.09 M0.99 73.2 C17.32 53.41, 34.35 35.56, 64.35 0.64 M-0.46 81.05 C25.33 48.32, 51.94 19.68, 69.92 1.79 M-0.76 80 C20.81 56.15, 40.82 32.93, 68.73 0.89 M-0.62 86.1 C19.52 60.79, 41.38 38.55, 73.09 -0.91 M0.64 84.91 C22.02 59.16, 46.05 31.69, 73.92 -0.09 M-0.48 93.38 C16.83 70.96, 33.94 51.38, 80.01 1.35 M0.07 90.65 C16.18 71.75, 30.93 54.44, 79.99 -0.11 M1.22 97.06 C19.2 72.49, 44.56 49.3, 83.32 -0.09 M0.6 98.61 C23.9 71.09, 47.72 42.68, 85.77 -0.91 M1.42 103.27 C21.79 78.98, 44.46 54.06, 88.97 0.79 M0.42 104.28 C32.56 64.61, 65.74 27.33, 90.4 1 M0.99 110.11 C24.64 81.91, 50.72 54.19, 95.67 0.49 M-0.28 110.62 C32.99 72.33, 68.66 32.65, 95.53 -0.58 M-0.41 116.14 C37.42 69.09, 77.4 26.49, 99.95 1.72 M0.18 115.89 C29.57 82.63, 58.05 49.12, 100.91 -0.38 M0.68 120.13 C28.98 86.72, 62.95 51.79, 107.62 1.14 M0.56 122.83 C29.84 89.79, 57.4 56.89, 106.52 -0.55 M-1.65 129.56 C20.53 100.91, 45.09 74.86, 110.75 1.13 M0.23 128.52 C44.56 77.6, 89.12 28.02, 112.18 0.45 M1.58 132.61 C37.1 94.56, 72.02 51.28, 114.59 2.29 M0.02 133.71 C30.97 99.51, 62.42 64.41, 117.07 -0.22 M-1.41 142.2 C47.33 85.45, 93.34 32.4, 121.77 -0.59 M-0.84 140.27 C32.7 104.04, 64.04 66.24, 122.56 -0.49 M-0.4 144.43 C35.67 107.51, 69.88 65.62, 128.63 1.51 M0.7 145.01 C42.37 98.9, 82.47 52.25, 127.18 0.09 M1.7 154.18 C28.2 120.42, 54.85 90.13, 132.09 0.26 M-0.69 152.78 C52.83 93.12, 103.36 34.91, 132.11 0.11 M0.51 160.38 C35.35 116.99, 72.59 74.01, 138.31 1.78 M0.17 158.6 C50.52 103.73, 98.6 45.87, 136.69 -0.31 M0.97 164.97 C44.14 113.61, 89.42 63.85, 143.21 -0.95 M0.95 164.42 C56.68 98.71, 112.84 33.24, 142.52 -0.93 M-0.79 171.16 C54.81 102.96, 111.68 40.2, 147.96 1.32 M-0.13 171.21 C32.39 133.91, 67 95.01, 147.43 0.16 M-0.24 176.49 C43.91 126.52, 90.29 73.92, 155.31 1.47 M0.88 176.58 C38.68 131.83, 76.57 88.17, 153.16 -0.1 M-1.52 183.84 C40.76 137.35, 78.55 88.76, 159.59 1.09 M0.53 183.46 C46.29 131.15, 91.91 77.3, 159.08 0.7 M-0.82 190.82 C58.97 119.35, 117.54 54.04, 164.13 -1.07 M0.23 189.03 C38.56 142.77, 80.1 96.25, 164.9 0.21 M0.21 193.73 C51.67 137.98, 101.28 81.21, 170.8 1.52 M-0.09 194.59 C47.12 143.99, 92.05 92.87, 169.49 0.04 M0.99 200.77 C38.45 156.11, 80 110.69, 174.36 -0.8 M0.06 202.03 C36.14 158.54, 72.39 116.6, 175.09 0.49 M-1.23 205.57 C50.62 149.38, 103 89.64, 181.48 -0.61 M0.51 206.51 C70.47 126.92, 139.87 47.08, 179.63 -0.37 M0.8 213.88 C43.91 163.38, 85.03 116.05, 185.98 -0.58 M0.77 212.76 C54.25 153.46, 106.56 92.77, 185.77 -0.85 M1.51 218.51 C71.54 137.43, 141.91 54.39, 190.55 0.44 M1.04 217.37 C46.88 167.68, 90.2 115.62, 190.16 0.24 M7.49 218.48 C55.78 161.02, 101.18 107.33, 194.98 -0.39 M7.35 216.66 C76.43 135.75, 145.58 57.01, 197.01 0.17 M11.86 217.8 C67.01 155.48, 119.22 93.76, 201.88 0.51 M12.73 217.31 C67.72 152.68, 125.11 87.14, 201.4 0.61 M17.55 218.54 C81.08 145.39, 145.42 71.46, 205.48 -0.7 M17.92 216.79 C70.15 159.11, 120.2 100.77, 207.2 -0.61 M24.39 216.95 C81.68 150.11, 140.18 84.42, 212.22 1.18 M23.45 217.1 C66.82 169.77, 108.19 120.97, 212 0.49 M30.1 216.74 C86.25 150.8, 144.47 83.65, 217.51 0.57 M28.04 216.5 C92.19 143.28, 156.27 69.56, 217.48 -0.3 M32.71 218.41 C87.85 157.24, 141.57 92.11, 223.32 0.53 M33.03 217.94 C101.18 138.84, 169.78 61.21, 221.86 0.63 M40.52 217.54 C107.78 137.52, 176.04 59.81, 227.03 -1.01 M39.29 216.33 C90.18 159.8, 140.21 102.64, 228.77 -1.07 M44.47 218.13 C93.59 161.03, 139.88 106.16, 232.91 -0.85 M44.09 217.49 C84.81 172.24, 125.56 125.73, 233.67 -0.25 M49.16 215.9 C96.3 165.42, 144.32 109.32, 237.36 -0.54 M50.04 216.33 C95.91 163.89, 142.78 110.64, 238.09 -0.3 M54.25 217.63 C94.6 173.51, 136.35 126.47, 243.69 0.21 M54.48 217.39 C93.35 171.51, 131.83 126.69, 243.85 0.57 M61.38 218.39 C117.25 149.91, 176.22 82.07, 249.76 1.12 M59.89 217.52 C102.46 167.75, 147.27 117.5, 248.7 0.32 M64.6 217.92 C124.06 149.05, 180.49 82.71, 254.32 0.36 M64.83 217.3 C122.46 152.25, 177.81 87.69, 254.61 -0.74 M72.42 215.98 C113.28 167.09, 159.28 114.09, 259.45 -1.11 M71.27 217.39 C125.94 151.94, 181.21 89.19, 260.15 0.86 M77.07 216.57 C127.98 156.98, 179.71 98.8, 263.48 1.05 M75.54 217.84 C147.56 136.27, 217.26 55.82, 262.94 2.79 M81.92 218.07 C131.71 158.03, 182.08 100.23, 263.1 9.87 M81.14 218.21 C123.52 168.13, 167.28 118, 262.18 8.38 M86.07 216.66 C126.66 172.87, 163.46 128.65, 263.59 15.38 M86.8 217.62 C132.66 165.49, 177.57 112.23, 261.84 14.58 M90.28 216.11 C143.12 158.29, 195.94 99.23, 264.56 19.56 M91.22 217.91 C160.45 139.83, 228.08 62.84, 263.03 21.21 M97.18 217.92 C132.01 178.13, 168.92 137.8, 262.94 27.21 M96.96 217.72 C147.56 159.02, 198.98 100.59, 262.75 27.02 M101.26 218.93 C149.24 167.38, 194.98 113.76, 262.6 32.26 M102.66 217.72 C139.97 174.06, 179.48 129.07, 262.35 33.27 M108.87 216.17 C151.32 166.64, 195.6 113.62, 261.35 38.01 M107.27 217.16 C168.47 146.36, 229.51 76.14, 263.19 39.48 M111.91 218.11 C173.34 146.83, 234.61 78.19, 263.92 47.1 M113.85 217.57 C167.95 153.94, 224.67 89.51, 261.91 45.5 M118.19 216.53 C154.07 177.11, 189.63 135.03, 261.62 51.52 M118.83 217.66 C168.74 159.98, 215.89 104.11, 262.59 51.51 M124.71 217.63 C178.51 153.98, 233.52 89.38, 262.89 56.66 M124.4 216.8 C167.75 166.34, 210.26 117.7, 262 57.78 M127.73 217.07 C166.84 174.95, 201.97 135.01, 262.14 64.25 M129.08 217 C167.56 171.83, 204.77 129.33, 263.57 63.79 M133.89 217.85 C185.86 159.8, 232.69 105.19, 264.39 68.91 M133.59 217.69 C176.15 167.91, 218.49 119.3, 262.24 70.06 M139.09 218.87 C173.93 176.11, 212.48 134.68, 262.82 76.15 M140.34 217.6 C179.36 173.61, 216.32 129.67, 262.64 75.31 M142.92 218.49 C170.97 187.42, 201.02 153.33, 261.5 80.34 M144.24 218.38 C169.98 189.71, 194.89 161.18, 262.91 82.48 M149.17 218.23 C175.86 188.04, 205.19 154.05, 264.35 87.93 M151.08 217.6 C174.63 188.02, 199.38 159.2, 263.32 87.8 M154.68 218.62 C177.98 191.44, 200.31 168.95, 261.79 94.09 M155.14 217.95 C184.65 182.29, 214.83 148.6, 263.71 92.67 M160.82 218.88 C200.32 173.14, 239.64 126.1, 263.79 98.43 M161.3 216.31 C197.26 173.98, 231.65 133.83, 263.15 100.84 M166.5 216.7 C194.61 183.91, 222.96 150.73, 262.73 105.54 M166.67 216.89 C203.19 173.31, 242.04 130.1, 263.42 106.26 M171.68 215.95 C207.5 176.41, 242.76 137.81, 261.63 112.95 M172.72 216.37 C206.98 175.86, 241.75 135.19, 263.92 112.47 M178.36 218.52 C203.25 185.55, 227.96 157.17, 262.45 119.18 M176.88 217 C205.25 184.83, 233.83 151.47, 262.53 117.96 M182.05 215.94 C204.84 196.93, 221.16 171.15, 264.95 124.17 M182.73 217.74 C208.08 187.73, 233.39 157.86, 263.14 124.05 M188.85 217.27 C215.65 184.6, 244.18 152.27, 263.67 129.13 M187.53 217.39 C205.79 198.6, 222.18 177.85, 263.22 130.04 M194.18 217.48 C216.21 189.84, 242.99 159.26, 262.81 136.92 M191.78 218.45 C211.53 194.27, 232.15 172.58, 263.33 137.02 M199.19 217.52 C214.7 198.43, 229.29 180.61, 264.45 144.14 M198.06 216.48 C219.93 194.49, 239.05 170.09, 262.02 143.31 M202.92 216.3 C222.48 196.53, 239.54 177.34, 260.88 149.12 M203.96 217.55 C224.07 195.52, 243.63 170.55, 262.7 149.84 M209.23 215.2 C229.78 194.45, 249.01 171.27, 261.43 156.35 M209.58 218.01 C228.59 192.9, 250.19 168.99, 263.15 153.94 M211.76 217.79 C232.1 197.26, 250.09 178.48, 261.47 160.32 M213.08 217.7 C228.37 202.15, 241.5 185.94, 263.13 160.57 M217.44 217.61 C230.35 206.71, 239.07 191.96, 261.25 165.99 M218.9 217.02 C234.4 200.34, 249.9 184.4, 261.85 168.12 M223.48 217.93 C233.04 204.16, 243.4 195.48, 262.18 172.73 M225.3 218.09 C232.74 206.04, 242.46 195.46, 262.88 173.82 M228.91 215.46 C237.97 206.17, 250.85 195.35, 263.12 178.43 M230.54 217.87 C237.31 208, 244.64 200.67, 263.04 179.12 M235.51 216.11 C240.39 208.53, 248.26 203.02, 263.23 183.9 M234.46 217.26 C242.83 207.23, 251.3 198.36, 263.88 185.52 M239.37 218.78 C247.17 208.31, 251.83 200.47, 262.93 192.68 M240.66 216.24 C246.1 211.21, 250.07 205.88, 263.33 191.76 M243.86 219.07 C249.64 211.05, 258.48 202.84, 262.8 199.51 M246.09 217.02 C251.25 209.62, 257.84 202.24, 263.11 197.64 M251.16 217.04 C254.12 212.67, 257.79 209.99, 263.74 202.47 M251.16 217.11 C255.11 211.77, 261.38 205.68, 263.63 203.44 M255.71 217.18 C258.19 215.04, 262.13 211.02, 263.22 210.13 M255.8 216.97 C258.04 214.98, 260.27 213.1, 262.98 209.56" stroke="#228be6" stroke-width="0.5" fill="none"></path><path d="M-0.3 1.52 C59.56 -2.64, 121.33 -2.36, 258.87 0.07 M0.71 0.77 C75.06 1.05, 149.67 1.97, 259.69 0.08 M259.19 0.45 C261.83 72.44, 262.72 141.04, 260.19 214.73 M260.75 0.09 C260.47 67.2, 259.78 135.88, 260.66 216.23 M261.04 216.48 C177.38 215.81, 94.11 214.03, -0.04 215.75 M259.57 214.85 C203.11 215.54, 145.76 214.26, 0 214.84 M0.69 214.79 C-2.19 134.86, -3.44 57.16, -0.68 0.99 M0.11 216.27 C-1.67 161.01, -1.16 106.87, 0.37 -0.47" stroke="#000000" stroke-width="1" fill="none"></path></g><g transform="translate(914.6128271736118 464.39839855989067) rotate(0 26.5 19)"><text x="0" y="26" font-family="Virgil, Segoe UI Emoji" font-size="30px" fill="#000000" text-anchor="start" style="white-space: pre;" direction="ltr">age</text></g><g transform="translate(871.4824039751934 330.38767107410285) rotate(0 67.5 19)"><text x="0" y="26" font-family="Virgil, Segoe UI Emoji" font-size="30px" fill="#000000" text-anchor="start" style="white-space: pre;" direction="ltr">undefined</text></g><g transform="translate(807.6772960183628 206.49420250362664) rotate(0 67.5 19)"><text x="0" y="26" font-family="Virgil, Segoe UI Emoji" font-size="30px" fill="#000000" text-anchor="start" style="white-space: pre;" direction="ltr">undefined</text></g><g stroke-linecap="round" transform="translate(1124.6123603761052 237.38132675464908) rotate(0 130.08814199899973 107.78731529323375)"><path d="M0 0 C0 0, 0 0, 0 0 M0 0 C0 0, 0 0, 0 0 M-0.05 6.53 C0.53 5.44, 2.55 2.36, 4.52 0.22 M-0.5 6.12 C1.2 5.33, 1.66 3.45, 4.79 0.06 M-1.08 11.83 C4.27 7.82, 8.72 1.31, 11.86 0.91 M-0.57 12.83 C2.84 7.9, 7.27 4.08, 10.77 -0.51 M1.69 17.15 C6.02 10.12, 11.13 3.4, 13.67 0.34 M-1.07 18.38 C4.34 13.52, 8.57 8.1, 15.05 -0.2 M0.39 23.25 C6.45 16.69, 14.63 7.25, 21.97 -0.09 M-0.59 24.91 C7.49 16.37, 14.7 8.97, 21.54 -0.34 M-1.33 29.48 C6.88 21.54, 13.95 16.54, 28.02 0.91 M0.41 30.87 C8.04 21.98, 15.85 11.97, 26.93 0.92 M0.39 38.69 C7.25 29.11, 13.32 21.63, 31.53 -1.18 M-0.4 37.44 C10.19 24.17, 20.57 11.64, 32.37 -0.1 M1.55 41.18 C12.29 32.11, 22.62 16.5, 38.02 -0.65 M-0.51 42.14 C12.59 28.28, 25.48 13.41, 37.11 0.37 M-1.4 50.72 C12.81 33.2, 23.63 20.71, 42.3 -1.83 M0.35 48.22 C10.87 36.9, 23.03 22.84, 42.61 0.65 M-0.71 53.04 C12.02 42.13, 22 32.65, 49.46 0.66 M-0.29 54.49 C12.82 41.11, 24.7 26.15, 48.23 0.83 M-0.36 61.59 C19.09 38.74, 38.17 13.31, 54.39 1.65 M-0.08 60.48 C18.36 38.74, 37.78 18.76, 53.26 -0.23 M-1.17 66.02 C19.69 46.55, 34.69 23.87, 58.75 1.2 M-0.33 68.29 C12.25 54.68, 23.81 39.27, 58.64 0.34 M-0.57 72.18 C13.34 58.35, 28.84 40.83, 62.5 0.31 M0.88 73.98 C24.13 44.03, 49.69 16.16, 63.01 0.43 M-0.29 78.15 C18.9 55.89, 38.28 36.24, 68.91 0.72 M-0.38 78.95 C20.42 55.03, 41.14 31.36, 68.37 0.21 M0.49 86.72 C24.79 59, 47.54 30.13, 76 0.6 M-0.46 85.8 C20.92 60.63, 43.49 36.6, 74.22 -0.88 M-1.88 93.14 C26.42 60.51, 51.25 31.17, 77.6 -1.64 M-0.47 91.46 C27.69 60.15, 55.07 26.22, 79.15 1.1 M-0.67 97.61 C31.02 65.26, 61.59 29.88, 86.84 0.33 M-0.81 97.08 C22.43 71.09, 47.49 42.02, 84.97 -0.37 M1.52 105.29 C28.67 72.28, 56.95 40.72, 89.12 0.6 M-0.29 103.37 C30.67 68.2, 60.73 32.72, 90.36 0.95 M1.04 110.32 C32.18 69.87, 69.68 29.09, 97.63 0.68 M0.8 110.02 C35.45 68.96, 71.33 27.5, 94.99 -0.93 M0.02 116.28 C38.05 72.91, 73.68 33.44, 102.36 1.32 M0.15 115.53 C35.61 76.42, 68.39 35.47, 101.12 1.03 M-0.62 119.99 C34.93 79.01, 76.16 35.08, 105.58 -1.79 M-0.94 122.39 C26.17 91.16, 53.02 60.9, 105.73 -0.12 M1.67 127.94 C27.43 96.68, 56.07 64.64, 110.86 1.76 M-0.11 128.88 C42.22 77.7, 86.33 26.79, 112.19 -0.08 M-0.63 132.36 C39.14 89.84, 75.09 46.27, 117.89 1.61 M1 134.52 C40.04 86.56, 82.49 40.4, 115.66 0.52 M-0.86 139.19 C34.87 98.96, 69.85 60.09, 122.78 -1.44 M-0.38 139.4 C28.27 105.98, 58.37 71.43, 122.04 -0.49 M0.68 144.56 C25.55 116.04, 49.32 86.25, 126.33 0.68 M-0.66 146.05 C33.73 108.89, 67.58 70.15, 126.89 0.56 M1.56 150.78 C48.76 96.21, 95.97 44.03, 132.86 -0.27 M-0.23 152.6 C50.79 94.33, 102.72 34.97, 132.81 -0.89 M0.8 157.95 C43.37 106.11, 90.01 54.19, 139.14 -0.97 M-0.18 158.7 C38.79 116.62, 76.89 72.75, 137.3 1 M1.81 165.21 C45.79 114.87, 90.1 62.81, 142.69 0.49 M0.89 164.64 C33.45 129.12, 64.29 92.47, 142.52 -0.94 M-1.43 170.6 C55.52 104.89, 114.04 38.34, 148.6 1.94 M-0.13 171.15 C32.99 133.19, 66.42 95.15, 148.87 -0.14 M-0.52 177.74 C56.38 109.44, 115.62 42.91, 152.28 -0.1 M-0.1 176.9 C48.86 121.12, 96.73 67.98, 154.23 -0.77 M-0.15 182.75 C32.95 144.04, 68.53 104.4, 160.32 0.2 M0.49 182.08 C42.35 133.33, 84.64 84.65, 158.07 -0.24 M-1.07 190.84 C55.36 126.11, 112.3 59.1, 163.81 -0.16 M-0.29 189.06 C52.19 126.46, 106.49 64.92, 163.86 0.52 M-0.4 193.35 C40.34 143.89, 84.08 96.03, 168.45 1.31 M-0.41 195.56 C51.52 136.15, 103.39 75.87, 169.59 0.83 M-1.55 200.93 C65.09 129.05, 129.16 54.45, 174.95 -1.73 M-0.22 201.32 C50.43 140.88, 100.79 82.79, 175.48 0.03 M1.7 207.2 C50.35 147.34, 103.53 86.59, 179.23 -1.07 M-0.24 206.85 C67.04 132.2, 133.79 56.01, 179.51 -0.45 M-0.19 212.53 C67.07 136.35, 135.56 56.72, 185.67 -0.94 M0.62 213.87 C61.92 142.68, 125.1 70.95, 186.3 -0.72 M0.77 217.5 C56.68 151.33, 113.73 89.57, 191.08 -0.93 M1.35 217.29 C43.07 171.77, 82.81 126.64, 190.2 -0.15 M8.39 217.26 C58.45 161.15, 105.32 105.05, 194.91 -0.8 M7.29 217.4 C69.93 142.29, 134.25 69.25, 196.59 -0.93 M12.39 218.89 C85.45 132.25, 160.17 45.84, 201.61 0.77 M12.62 216.89 C73.05 146.75, 133.79 76.94, 202.06 0.29 M17.56 216.2 C74.28 153.33, 130.22 90.12, 206.54 -1.54 M18.06 216.44 C74.83 152.04, 132.52 84.74, 206.35 -0.33 M21.82 215.99 C76.67 155.43, 129.56 93.46, 213.45 -0.24 M23.05 217.83 C83.42 148, 143.31 78.25, 212.34 0.57 M29.28 218.25 C87.11 146.96, 145.89 80.69, 217.39 -0.9 M28.56 217.25 C98.08 136.23, 168.96 56.51, 218.32 -0.64 M34.54 217.47 C77.86 163.99, 123.87 112.65, 222.16 0.33 M34.08 216.69 C103.72 138.85, 171.12 59.77, 222.53 -0.19 M38.73 216.03 C100.79 148.78, 158.97 79.85, 229.27 -0.1 M38.96 217.28 C112.82 131.61, 189.39 45.24, 227.49 -1.1 M42.94 216.45 C99.19 154.43, 155.03 90.35, 234.31 0.26 M43.89 217.07 C103.48 147.33, 164.62 76.86, 233.92 -0.33 M49.1 216.73 C103.33 157.91, 154.15 96.14, 239.31 -0.1 M49.23 216.46 C123.56 132.57, 198.57 47.04, 238.48 0.8 M53.45 217.64 C103.7 161.62, 150.18 108.12, 243.38 -0.11 M54.96 217.51 C97.88 167.91, 140.22 118.24, 244.51 -0.26 M59.51 218.06 C121.52 142.05, 187.35 69.42, 248.53 1.48 M60.58 217.24 C114.64 155.32, 167.41 95.33, 248.65 0.28 M65.45 216.24 C121.46 151.99, 176.12 89.89, 253.86 -0.93 M65.01 217.55 C105.09 173.84, 143.55 127.42, 255.12 0.63 M71.07 217.21 C109.73 174.74, 148.09 130.44, 258.02 -0.29 M70.99 217.01 C130.96 145.7, 192 74.77, 259.13 0.3 M77.26 215.99 C143.98 140.12, 210.73 64.89, 264.25 2.47 M76.02 217.73 C142.4 140.53, 208.75 64.29, 262.83 1.68 M80.17 217.74 C145.53 142.88, 209.95 68.25, 264.3 8.85 M80.55 217.93 C139.53 151.34, 197.44 86.03, 262.8 7.86 M86.14 217.21 C149.02 143.96, 213.34 71.63, 263.75 14.25 M86.77 216.52 C134.84 163.51, 180.83 110.08, 262.24 15.28 M93.32 217.41 C128.87 171.36, 170.89 127.44, 261.72 20.79 M91.08 217.88 C156.06 141.8, 221.78 67.19, 263.43 21.19 M97.48 216.62 C161.06 143.55, 224.43 70.47, 263.53 27.72 M97.24 216.46 C144.26 162.52, 192.07 109.3, 263.39 27.67 M101.44 218.97 C144.45 169.84, 187.63 120.73, 264.69 33.8 M102.28 217.97 C163.47 149.19, 221.15 80.93, 263.91 32.53 M109.59 216.67 C152.78 168.18, 193.23 120.1, 263.3 38.25 M108.87 216.54 C151.33 165.91, 194.69 116.25, 262.2 39.58 M114.22 217.32 C145.74 179.54, 178.7 138.41, 263.56 47.05 M112.56 218.06 C153.83 171.43, 193.46 126.4, 262.84 45.99 M119.3 216.11 C156.68 176.16, 192.12 136.25, 262.26 49.63 M119.52 216.74 C156.53 174.47, 193.39 130.9, 263.2 50.41 M123.85 216.72 C162.48 176.7, 196.66 132.96, 262.28 56.65 M123.36 217.35 C179.66 153.18, 234.53 91.69, 262.18 58.04 M128.99 216.57 C171.48 170.15, 209.4 124.97, 261.9 61.98 M130.05 216.41 C173.9 163.1, 220.78 110.87, 262.32 62.45 M134.79 217.82 C175.58 169.29, 215.64 124.18, 261.88 71.19 M134.23 218.02 C161.78 186.67, 187.67 156.85, 263.63 70.15 M140.08 215.47 C185.6 164.42, 233.57 111.51, 261.87 75.63 M139.3 217.94 C164.51 187.57, 191.22 159.02, 263.24 76.61 M143.04 216.83 C177.24 180.56, 210.84 146.39, 263.38 83.41 M144.32 217.96 C175.63 179.78, 207.95 144.21, 263.67 82.35 M148.94 217.47 C174.89 190.49, 198.64 161.54, 262.79 88.03 M149.58 217.41 C176.73 185.53, 204.72 155.33, 262.18 88.82 M155.08 216.94 C196.79 170.45, 237.25 123.63, 262 92.68 M156.4 218.2 C187.42 181.59, 219.41 145.67, 264.13 94.16 M162.31 218.5 C192.34 183.06, 220.05 149.49, 261.45 98.02 M161.15 217.94 C199.07 172.41, 236.82 128.87, 262.63 100.36 M168.01 216.86 C192.66 190.07, 215.05 158.46, 262.98 106.65 M166.98 217.09 C197.19 179.88, 230.01 142.84, 261.95 107.1 M173.6 217.94 C199.05 187.37, 225.2 155.12, 262.08 111.14 M171.85 216.05 C195.9 189.62, 219.64 160.92, 262.51 111.16 M177.54 218.64 C204.81 184.8, 232.58 152.64, 264.18 118.03 M176.23 216.32 C207.63 181.43, 239.26 146.51, 263.72 117.75 M182.84 218.54 C199.71 195.72, 221.01 174.67, 263.51 124.32 M183.2 217.57 C207.54 189.93, 230.62 161.78, 263.47 124.44 M186.04 215.72 C211.07 188.27, 238.98 159.05, 264.09 129.22 M188.05 216.86 C208.84 194.12, 229.42 167.95, 263.75 130.25 M192.05 219.18 C216.25 190.88, 238.21 166.75, 262.57 138.65 M191.77 218.4 C220.27 185.92, 247.92 154.18, 262.14 137.52 M198.46 216.9 C211.77 198.9, 226.94 183.13, 264.5 141.21 M197.98 217.01 C220.41 192.63, 239.92 169.64, 262.7 143.31 M203.8 215.84 C221.53 198.24, 240.3 175.86, 264.65 148.28 M203.78 217.47 C215.24 202.5, 227.83 187.79, 262.85 148.75 M210.4 218.38 C224.67 198.58, 245.42 175.54, 261.81 154.38 M209.27 216.38 C221.68 200.62, 236.54 185.82, 262.9 154.93 M213.36 218.14 C230.39 196.81, 248.61 180.08, 263.83 161.04 M213.16 217.31 C229 197.95, 246.54 180.15, 263.62 160.05 M220.09 215.71 C230.01 204.04, 241.22 192.49, 262.41 169.22 M218.87 217.9 C236.79 197.56, 252.7 178.72, 261.74 167.22 M223.26 218.35 C236.14 204.25, 252.23 185.06, 261.45 171.36 M224.19 217 C233.76 204.89, 244.04 192.82, 262.84 173.9 M228.36 215.82 C239.55 207.76, 249.95 195.69, 261.26 179.36 M229.4 217.8 C240.52 205.3, 250.37 192.23, 262.25 179.28 M234.66 216.08 C246.39 204.72, 255.26 192.95, 261.48 185.06 M234.85 216.94 C242.42 208.42, 250.01 200.71, 262.55 184.11 M238.7 217.04 C246.9 211.47, 248.66 207.54, 262 192.04 M241.16 217.63 C245.66 209.76, 252.42 203.26, 263.16 191.85 M247.33 218.33 C248.18 213.1, 253.78 205.15, 261.86 196.07 M244.78 216.82 C250.14 211.88, 255.16 206.45, 261.85 198.54 M252.99 217.04 C255.42 213.77, 256.9 209.01, 263.47 204.96 M252.06 216.33 C253.51 213.22, 256.81 209.68, 263.53 204.1 M255.95 216.45 C257.17 214.71, 258.55 213.55, 261.95 210.65 M255.77 217.54 C257.6 215.37, 260.04 213.86, 263.13 209.99" stroke="#228be6" stroke-width="0.5" fill="none"></path><path d="M-0.21 -1.47 C63.71 1.34, 131.11 0.79, 259.48 0.85 M0.25 0.77 C96.23 -0.65, 192.99 -0.27, 260.69 0.33 M260.44 0.43 C260.3 46.37, 260.38 90.1, 258.73 213.85 M260.36 0.01 C261.18 65.91, 261.7 131.26, 260.35 216.07 M258.89 214.71 C205.4 214.59, 150.24 215.93, 1.32 215.25 M260.74 216.3 C202.9 213.98, 143.7 213.45, -0.44 214.79 M-0.84 217.17 C2.1 137.56, 2.13 59.22, -0.39 1.12 M-0.61 216.25 C-1.64 150.77, -0.82 84.93, -0.33 -0.12" stroke="#000000" stroke-width="1" fill="none"></path></g><g transform="translate(1172.3112796094879 459.44264091242803) rotate(0 87.5 19)"><text x="0" y="26" font-family="Virgil, Segoe UI Emoji" font-size="30px" fill="#000000" text-anchor="start" style="white-space: pre;" direction="ltr">yearOfBirth</text></g><g transform="translate(1192.3666010005843 324.192997645579) rotate(0 67.5 19)"><text x="0" y="26" font-family="Virgil, Segoe UI Emoji" font-size="30px" fill="#000000" text-anchor="start" style="white-space: pre;" direction="ltr">undefined</text></g><g transform="translate(1128.5614930437537 200.29952907510278) rotate(0 67.5 19)"><text x="0" y="26" font-family="Virgil, Segoe UI Emoji" font-size="30px" fill="#000000" text-anchor="start" style="white-space: pre;" direction="ltr">undefined</text></g><g transform="translate(124.71445600039914 113.76877450429356) rotate(0 229.00000000000003 25)"><text x="0" y="35" font-family="Virgil, Segoe UI Emoji" font-size="40px" fill="#000000" text-anchor="start" style="white-space: pre;" direction="ltr">Memory Creation Phase</text></g><g stroke-linecap="round" transform="translate(95.59946252937283 645.3780479762454) rotate(0 664.0690435255194 191.4154183937069)"><path d="M0.65 0.57 C454.07 -1.67, 909.71 -1.79, 1328.48 0.2 M-0.15 0.1 C412.61 -1.07, 824.41 -0.9, 1328.41 0.04 M1328.5 -0.3 C1328.53 88.72, 1328 175.8, 1328.57 381.94 M1327.92 0.14 C1329.27 132.63, 1328.7 265.41, 1328.42 382.41 M1327.58 382.71 C851.01 385.65, 373.3 385.36, 0.46 382.88 M1328.44 382.75 C1007.19 387.34, 686.71 387.03, 0.4 382.83 M-0.23 382.48 C2.28 269.56, 2.8 158.26, -0.22 1.13 M0.59 382.56 C0.11 258.98, 0.1 136.41, -0.03 -0.08" stroke="#000000" stroke-width="1" fill="none"></path></g><g stroke-linecap="round" transform="translate(140.89805923706058 741.6278005504155) rotate(0 130.08814199899973 107.78731529323363)"><path d="M0 0 C0 0, 0 0, 0 0 M0 0 C0 0, 0 0, 0 0 M0.5 6.15 C0.61 5.44, 1.93 3.29, 4.61 0.16 M-0.19 6.31 C0.8 4.95, 2.55 3.98, 5.24 0.36 M-0.07 11.79 C4.36 10.3, 4.25 7.45, 11.18 0.61 M0.66 11.53 C3.06 8.39, 7.54 3.33, 10.43 -0.45 M-1.34 19.42 C5.92 15.18, 6.41 8.77, 15.82 1.58 M-0.35 17.92 C3.62 13.58, 9.73 7.42, 15.82 0.84 M2.08 23.76 C4.62 17.87, 14.67 9.94, 20.61 -1.18 M0.11 23.71 C5.94 18.06, 12.21 11.08, 20.48 0.25 M1.51 32.34 C6.1 22.5, 16.24 12.04, 24.28 1.5 M-0.9 31 C8.74 21.95, 15.43 12.12, 26.14 -0.24 M-1.54 37.97 C4.99 28.29, 14.87 20.18, 32.49 -1.19 M0.39 36.04 C10.79 25.43, 19.38 13.18, 31.91 0.85 M0.85 42.66 C15.69 28.26, 28.16 9.61, 34.9 -0.08 M-0.52 42.57 C12.36 27.5, 27.18 11.79, 35.9 -0.35 M-0.7 49.66 C14.24 32.98, 29.06 19.11, 40.74 1.72 M0.51 49.16 C10.92 35.67, 22.9 23.43, 43.32 -0.05 M1.96 55.89 C13.58 40.49, 24.61 22.4, 47.77 0.54 M-0.29 55.08 C15.64 35.89, 31.04 18.46, 48.11 0.38 M-0.47 59.77 C18.46 43.25, 32.57 25.27, 53.78 -0.07 M-0.94 61.44 C16.12 44.31, 32.14 25.33, 53.05 -0.45 M0.09 65.65 C19.02 45.99, 39.73 23.2, 57.61 -1.6 M-0.28 67.05 C23.35 40.12, 45.82 14.36, 57.44 1.12 M1.38 71.85 C16.69 52.54, 32.47 34.88, 62.63 1.18 M0.97 73.8 C20.44 49.08, 40.41 26.39, 63.14 -1.02 M-0.91 78.68 C17.23 61.28, 35.98 40.65, 69.76 -0.04 M-0.91 80.06 C18.71 57.97, 37.64 37.48, 68.27 0.36 M1.7 84.85 C14.49 67.58, 31.07 48.67, 72.96 0.61 M0.87 84.48 C25.85 55.71, 52.44 25.85, 75.29 -1.1 M-0.54 91.35 C22.23 66.02, 45.98 36.17, 80.2 -0.99 M-0.85 91.24 C31.53 55.03, 61.86 19.9, 78.66 -0.12 M-0.71 97.83 C31.94 61.41, 61.39 27.01, 85.03 0.71 M0.41 97.79 C30.57 61.31, 60.88 27.26, 84.92 -0.75 M0.99 102.67 C28.88 69.95, 59.73 36.84, 91.52 0.74 M-0.45 104.31 C32.76 65.84, 65.4 29.22, 90.36 0.81 M1.57 110.97 C29.7 71.88, 61.06 38.93, 93.78 -0.65 M-1.09 109.06 C23.46 83.01, 46.04 58.53, 95.12 -0.69 M2.08 115.01 C36.76 76.4, 70.33 35.33, 100.95 1.72 M-0.37 116.27 C27.18 87.53, 52.55 56.72, 100.81 -0.43 M0.6 122.07 C22.92 95.89, 45.25 70.89, 104.72 -2.23 M-0.61 121.24 C20.46 96.97, 42.73 72.5, 106.66 -0.36 M-0.89 126.87 C38.51 86.84, 73.26 41.64, 112.32 1.88 M-0.23 128.22 C35.81 86.44, 73.15 44.72, 111.13 -0.11 M-0.27 135.58 C40.39 88.07, 84.3 37.81, 117.36 1.37 M-0.77 133.8 C26.69 106.15, 52.53 76.53, 115.37 0.89 M1.05 141.86 C29.45 105.54, 61.34 66.65, 120.11 0.53 M-0.01 140.29 C41.95 93.52, 83.81 44.73, 122.14 0.81 M0.92 147.3 C32.71 111.77, 62.6 76.83, 127.79 0.62 M-0.5 145.55 C44.63 93.76, 91.55 40.81, 126.7 0.77 M1.37 153.15 C29.66 119.83, 57.18 88.11, 133.33 0.31 M0.05 152.2 C28.06 119.58, 56.57 86.72, 132.35 0.63 M0.08 157.37 C42.35 112.5, 83.48 63.69, 136.86 -0.27 M0.22 159.27 C36.02 118.16, 72.22 76.75, 137.81 0.51 M1.28 164.82 C43.3 115.41, 83.8 66.13, 143.85 -0.52 M0.05 164.19 C52.46 105.05, 104.89 43.95, 143.79 -0.67 M1.59 170.36 C56.34 106.87, 112.1 42.44, 148.31 1.09 M-0.6 171.05 C37.1 125.72, 75.12 82.39, 148.32 0.06 M0.33 176.1 C57.81 111.8, 114.77 46.69, 154.03 -0.74 M-0.18 175.91 C56.62 112.55, 114.03 47.92, 154.54 -0.52 M-0.54 181.54 C41.94 134.37, 82.03 86.89, 157.42 -0.42 M0.08 182.4 C34.63 142.3, 70.33 101.25, 159.3 0.35 M-0.27 189.92 C41.15 140.31, 82.89 92.8, 164.69 0.26 M-0.09 188.86 C52.62 129.84, 102.05 72.4, 164.31 -0.44 M0.84 195.36 C52.9 136.16, 103.98 78.89, 168.65 -0.11 M0.36 194.99 C63.68 120.53, 128.82 46.86, 169.82 0.08 M1.3 199.86 C59.63 135.06, 117.85 65.29, 175.46 -0.65 M-0.7 201.65 C37.4 157.09, 76.51 113.61, 175.75 -0.73 M1.6 205.87 C39.27 161.89, 80.05 115.27, 178.62 -0.57 M-0.12 206.65 C50.13 149.67, 99.34 92.63, 180.4 0.65 M0.74 214.14 C72.01 129.18, 144.84 45.16, 184.98 -0.56 M-0.37 213.09 C47.02 159.97, 93.99 104.86, 186.36 -0.66 M1.39 217.94 C67.34 142.16, 131.45 69.44, 189.35 1.46 M2.43 217.99 C72.45 136.48, 142.29 54.86, 191.24 -0.19 M6.96 215.7 C74.72 141.73, 137.76 69.43, 196.96 -0.36 M6.95 217.08 C64.37 151.37, 122.2 85.36, 196.71 -0.08 M11.42 218.96 C71.87 151.39, 128.52 85.99, 201.64 -0.38 M11.97 216.88 C63.03 159.1, 116.12 98.66, 200.82 -0.6 M19.5 218.3 C73.92 153.02, 126.25 91.32, 207.93 -1.31 M17.47 216.73 C92.27 132.49, 165.28 48.58, 207 -0.83 M21.71 218.62 C92.96 139.67, 159.91 61.7, 212.36 -0.79 M22.76 217.9 C83.19 144.99, 145.93 73.61, 211.88 0.69 M28.49 216.29 C83.61 151.93, 139.28 87.85, 216.48 0.87 M29.38 216.91 C80.74 159.41, 130.22 100.97, 217.23 -0.75 M33.45 218.57 C90.38 154.34, 147.39 89.8, 223.3 -1 M33.49 216.97 C107.83 132.23, 182.34 46.25, 222.41 -0.07 M38.41 217.84 C79.45 169.75, 119.49 124.22, 229.17 0.96 M39.34 216.7 C77.9 171.73, 117.08 125.53, 228.68 0.3 M43.8 216.98 C102.42 153.71, 157.89 88.28, 232.25 0.31 M44.1 217.06 C95.62 158.39, 145.2 100.56, 233.2 0.37 M49.63 215.62 C93.62 166.13, 141.57 113.97, 238.83 0.03 M49.83 217.66 C95.76 165.43, 140.43 112.68, 238.71 -0.35 M54.9 217.55 C111.74 152.16, 165.04 87.53, 244.97 0.98 M54.32 217.59 C106.12 157.78, 158.69 95.72, 243.27 0.25 M61.54 216.89 C124.68 141.97, 191.22 64.75, 248.26 -0.54 M60.06 216.31 C116.48 151.22, 173.92 86.52, 249.43 0.94 M64.84 217.52 C104.21 171.03, 142.8 128.64, 254.13 1.36 M65.13 217.47 C120.18 153.96, 176.66 89.65, 254.45 0.27 M72.45 216.35 C124.3 154.52, 178.47 94.06, 260.26 -0.63 M70.54 216.2 C121.72 158.79, 171.34 100.98, 259.24 0.46 M76.71 216.64 C131.6 152.15, 188.05 87.73, 264.5 3.66 M75.77 216.58 C133.29 151.84, 190.31 86.21, 263.32 1.4 M82.04 218.08 C147.97 144.13, 212.92 66.76, 264.03 10.05 M80.87 218.12 C143.47 145.2, 206.11 74.07, 262.76 9.13 M86.52 217.23 C129.05 169.44, 170.09 123.09, 262.44 15.59 M86.77 217.34 C127.79 168.35, 170.05 120.02, 262.49 14.64 M90.79 217.31 C133.38 164.98, 178.73 116.91, 261.75 19.18 M92.42 216.96 C140.18 164.07, 188.09 107.79, 262.49 19.86 M98.4 218.17 C132.99 178.14, 170.78 134.14, 262.46 27.83 M96.85 217.06 C155.73 152.06, 211.74 87.5, 262.95 26.28 M102.52 217.19 C139.33 177.53, 176.1 133.71, 263.39 33.45 M102.72 217.07 C156.5 156.4, 211.08 93.25, 263.16 32.05 M109.19 217.65 C145.63 175.41, 180.72 132.57, 261.36 39.55 M107.66 217.14 C170.57 146.25, 232.47 74.51, 263.4 38.86 M114.39 216.53 C156.32 167.38, 199.82 120.19, 261.11 44.48 M112.85 216.85 C163 163.02, 211.77 105.85, 262.07 46.05 M117.56 216.55 C155.71 178.1, 189.75 137.99, 261.97 51.91 M119.06 216.84 C168.17 162.55, 216.69 106.11, 262.82 50.31 M121.92 216.9 C152.75 179.87, 183.61 147.21, 264.44 57.46 M123.74 217.36 C174.92 159.06, 224.98 100, 263.23 57.54 M127.95 215.32 C176.56 162.05, 223.75 110.52, 262.72 62.05 M128.79 216.51 C181.74 156.8, 233.89 94.98, 263.39 63.05 M133.25 215.76 C186.98 160.16, 235.91 100.86, 262.61 69.24 M134.39 217.4 C177.15 167.57, 219.49 118.27, 263.34 68.84 M140.44 217.63 C172.73 178.28, 208.35 142.37, 263.65 74.18 M139.56 217.81 C184.53 167.58, 228.69 115.11, 262.94 76.28 M145.49 217.81 C182.88 171.38, 222.3 130.36, 261.63 82.48 M145.18 216.78 C172.26 187.7, 198.33 157.89, 262.68 81.31 M149.82 215.32 C177.44 186.3, 203.64 154.67, 261.33 86.82 M150.41 217.94 C189.96 172, 227.94 128.77, 262.56 87.84 M157.17 218.95 C189.76 181.2, 220.18 140.8, 263.33 95.35 M156.28 216.68 C194.17 174.11, 232.97 130.63, 263.55 93.59 M161.04 218.88 C193.25 182.39, 223.83 147.23, 260.97 99.44 M161.79 217.19 C201.09 172.42, 239.16 127.65, 263.23 99.25 M165.72 218.56 C184.38 193.45, 204.12 171.5, 263.27 106.17 M165.55 217.64 C203.18 174.4, 240.59 131.89, 263.24 106.35 M173.8 218.36 C194.26 191.94, 216.69 165.98, 263.11 110.31 M171.89 217.25 C194.77 190.41, 217.77 164.6, 262.22 112.59 M175.15 215.39 C196.96 194.38, 220.21 168.35, 261.61 118.37 M176.5 217.47 C203.39 185.3, 229.96 155.84, 262.69 119.31 M182.45 215.2 C201.68 192.4, 219.36 172.87, 262.9 125.04 M182.57 217.08 C203.97 193.36, 223.67 170.09, 262.51 123.25 M188.14 215.56 C204.19 197.19, 222.21 177.49, 263.16 129.01 M188.36 217.32 C205.96 196.46, 224.55 174.49, 262.54 129.78 M191.31 218.96 C209.1 199.71, 222.23 183.02, 261.47 137.4 M192.74 217.76 C209.22 198.29, 224.65 180.76, 262.09 136.69 M197.96 216.58 C217.37 194.77, 239 167.33, 264.03 141.78 M198.03 217.65 C214.74 198.84, 231.18 179.85, 263.8 141.61 M201.29 216.33 C219.17 197.26, 237.52 180.19, 264.53 150.23 M202.96 217.37 C224.17 194.58, 244.26 170.95, 262.61 149.41 M208.53 215.31 C225.07 199.63, 238.23 180.98, 262.93 155.74 M208.1 216.21 C224.25 198.87, 241.48 180.22, 263.16 153.99 M213.95 215.6 C227.26 202.15, 242.5 183.95, 262.48 160.05 M213.52 217.59 C228.72 200.43, 244.21 182.44, 263.46 161.5 M218.37 216 C236.42 199.2, 251.81 179.41, 264.56 166.08 M218.86 218.09 C231.66 201.72, 245.17 187.51, 262.33 168.15 M226.13 215.73 C237.3 204.4, 250.93 189.1, 264.96 173.98 M225.03 216.66 C236.04 202.38, 248.72 189.12, 262.34 173.6 M228.64 218.27 C240.36 204.33, 250.34 193.11, 262.18 181.1 M230.27 217.68 C240.85 203.99, 251.31 193.2, 262.69 180.37 M233.31 219.03 C245.98 207.68, 254.69 195.02, 264.26 186.51 M235.82 218.14 C245.83 205.84, 255.26 193.6, 262.67 185.67 M239.13 217.13 C246.52 209.39, 254.91 198.4, 261.75 190.75 M239.99 216.69 C246.94 208.81, 254.1 199.95, 263.33 190.53 M245.59 219.17 C251.66 209.29, 258.22 204.11, 262.63 196.28 M245.87 216.87 C251.79 211.1, 257.57 203.11, 262.88 197.72 M252.14 218.75 C255.66 213.5, 258.6 209.82, 264.34 203.56 M251.35 216.22 C254.09 214.42, 255.34 211.14, 263.61 203.09 M255.94 217.31 C257.54 215.34, 259.93 213.39, 262.84 210.45 M256.54 217.22 C257.59 215.35, 259.39 213.03, 262.92 210.35" stroke="#228be6" stroke-width="0.5" fill="none"></path><path d="M0.15 -1.01 C96.81 -2.81, 194.17 -2.33, 261.6 -1 M0.39 0.6 C102.27 0.46, 205.09 -0.49, 260.2 0.25 M260.28 -1.38 C256.84 66.21, 258.79 133.61, 258.45 214 M259.94 0.37 C261.04 64.72, 260.04 127.67, 259.38 216.1 M261.25 216.84 C157.46 216.98, 54.58 217.62, 0.9 215.01 M259.64 215.52 C155.97 214.3, 52.33 214.04, 0.47 216.29 M-1.04 214.11 C0.34 145.89, -0.36 79.27, -0.24 -0.88 M0.69 215.23 C-0.18 146.21, 0.25 77.82, -0.37 0.57" stroke="#000000" stroke-width="1" fill="none"></path></g><g transform="translate(203.46425141282953 962.4501989271307) rotate(0 72 19)"><text x="0" y="26" font-family="Virgil, Segoe UI Emoji" font-size="30px" fill="#000000" text-anchor="start" style="white-space: pre;" direction="ltr">firstName</text></g><g transform="translate(208.65229986153963 828.4394714413452) rotate(0 51.5 19)"><text x="0" y="26" font-family="Virgil, Segoe UI Emoji" font-size="30px" fill="#000000" text-anchor="start" style="white-space: pre;" direction="ltr">'Akash'</text></g><g transform="translate(144.847191904709 704.5460028708694) rotate(0 42 19)"><text x="0" y="26" font-family="Virgil, Segoe UI Emoji" font-size="30px" fill="#000000" text-anchor="start" style="white-space: pre;" direction="ltr">string</text></g><g stroke-linecap="round" transform="translate(466.7378721250907 736.6720429029533) rotate(0 130.08814199899973 107.78731529323386)"><path d="M0 0 C0 0, 0 0, 0 0 M0 0 C0 0, 0 0, 0 0 M-0.05 6.12 C1.93 5.37, 3.05 2.32, 4.52 -0.29 M-0.52 6.1 C2.12 3.67, 3.55 1.85, 4.83 0.56 M0.84 10.54 C5.34 8.78, 8.03 3.28, 11.64 -0.14 M-0.25 11.53 C2.97 7.85, 6.95 5.5, 11.25 0.74 M-1.82 18.73 C2.05 15.38, 6.45 11.25, 15.4 -0.09 M-1.1 18.63 C5.84 11.48, 10.6 4.79, 15.64 0.22 M1.03 23.99 C5.99 15.43, 12.65 9.07, 22.51 -2.02 M0.52 23.58 C6.73 17.36, 11.42 9.95, 22.11 0.15 M1.15 30.91 C9.08 18.5, 21.81 6.38, 27.47 1.77 M-0.83 29.74 C5.36 22.37, 11.96 16.58, 26.71 1.28 M-1.16 37.91 C10.47 27.41, 19.77 14.99, 33.62 -0.1 M0.2 37.44 C6.78 28.4, 14.77 20.42, 32.81 0.16 M-1.16 41.28 C15.25 27.21, 28.54 12.7, 37.89 2.18 M0.77 43.01 C11.1 28.39, 22.6 14.92, 37.08 0.17 M-1.86 47.77 C12.69 34.53, 28.12 18.04, 41.79 -0.22 M-0.96 49.86 C12.08 33.92, 25.41 19.7, 41.93 0.44 M0.31 55.5 C10.41 40.81, 22.7 28.57, 47.91 1.59 M-0.14 54.16 C12.46 40.85, 26.03 25.9, 47.32 0.7 M0.01 62.29 C14.94 46.97, 26.6 31.88, 54.95 -1.61 M0.7 61.66 C19.78 36.81, 41.49 13.43, 53.2 0.15 M1.34 66.6 C12.87 52.7, 28.31 33.25, 58.16 -0.88 M-0.72 67.35 C19.31 45.07, 37.21 23.81, 57.33 0.36 M1.59 72.06 C12.02 58.4, 25.3 43.13, 64.41 -0.86 M0.82 72.58 C22.8 45.56, 46.51 18.16, 63.68 0.12 M-0.94 79.99 C23.12 53.47, 42.02 30.13, 68.63 0.48 M-0.87 80.17 C19.24 57.49, 38.63 35.32, 68.3 0.34 M-0.63 86.32 C17.54 63.52, 37.7 42.74, 72.86 0.06 M0.36 84.06 C20.34 62.22, 39.29 39.97, 73.72 -1.11 M-0.01 89.95 C27.45 61.21, 55.22 30.24, 78.7 2.01 M0.86 92.15 C25.17 62.51, 51.52 32.33, 78.76 -0.48 M0.56 97.65 C30.7 61.36, 64.16 21.11, 86.35 -2.18 M-1.08 97.97 C24.77 68.61, 49.84 40.27, 84.99 0.68 M-1.3 104.63 C27.32 71.65, 57.2 34.56, 91.11 -1.32 M-0.09 103.76 C35.78 63.99, 69.18 26.02, 90.54 0.45 M1.74 111.02 C32.37 71.18, 68.27 31.27, 94.34 -0.31 M-0.59 109.63 C21.58 85.25, 42.32 61.06, 96.49 -0.61 M1.11 114.84 C22.97 89.27, 45.69 64.02, 99.99 0.1 M1 115.16 C38.6 72.9, 76.13 29.17, 100.77 -0.61 M0.85 120.28 C21.24 97.32, 39.85 75.31, 105.61 -0.42 M0.05 122.28 C41.46 73.07, 83.53 25.63, 106.5 0.61 M-0.1 126.72 C32.76 86.47, 71.22 47.66, 110.83 -1.52 M-0.48 128.93 C39.22 81.35, 80.06 34.29, 111.91 0.28 M-0.09 133.15 C39.9 93.98, 77.47 50.13, 115.71 -1.21 M1.06 134.12 C37.15 90.07, 75.28 47.82, 115.99 0.38 M1.04 138.8 C46.73 83.88, 98.11 31.46, 120.52 0.66 M0.16 141.11 C26.39 110.78, 52.22 80.64, 121.72 0.73 M0.28 147.98 C29.58 109.38, 60.92 74.12, 125.51 -1.05 M-0.07 145.01 C39.9 101.84, 77.93 57.3, 127.19 0.15 M-0.04 150.69 C27.86 120.33, 58.61 87.02, 133.21 0.11 M0.83 151.74 C43.84 102.56, 86.64 51.39, 133.22 0.04 M-1.74 158.53 C30.43 123.48, 60.98 89.22, 137.31 -1.19 M-1.03 159.21 C49.27 99.65, 99.63 41.13, 137.65 -0.54 M0.08 163.25 C33.71 124.02, 66.28 87.14, 144.56 0.83 M-0.15 163.62 C45.13 114.27, 87.17 64.58, 143.04 -0.65 M-1.14 170.78 C34.13 130.33, 67.18 89.47, 149.17 1.91 M-0.62 170.66 C49.79 113.1, 100.77 55.77, 148.87 0.29 M0.21 176.47 C41.26 130.82, 81.01 85.1, 153.93 -1.79 M0.12 177.09 C41.72 125.59, 85.32 76.4, 154.46 -0.84 M0.83 183.63 C33.48 146.28, 65.78 107.27, 159.28 0.62 M0.02 182.82 C33.86 145.06, 66.09 106.97, 158.14 0.9 M-1.78 189.83 C38.09 142.92, 76.18 99.67, 163.45 0.19 M-0.26 189.71 C63.11 114.62, 127.13 41.54, 164.92 -0.24 M-0.08 194.5 C64.67 121.47, 128.62 44.97, 168.63 -0.12 M-0.11 194.51 C55.18 130.94, 110.12 67.14, 168.99 -0.53 M-0.06 202.79 C36.26 159.49, 72.88 117.19, 174.48 0.01 M-0.04 201.69 C51.98 137.24, 106.09 75.66, 174.75 -0.48 M1.25 206.26 C60.2 138.14, 124.01 66.54, 180.77 -0.13 M0.66 207.57 C39.57 158.25, 81.45 112.04, 179.33 0.39 M-0.95 212.85 C70.29 130.4, 142.23 49.37, 184.68 -0.17 M-0.44 213.5 C58.22 146.29, 115.89 79.43, 185.27 -0.13 M1.13 218.91 C40.32 172.94, 78.56 128.39, 189.25 -0.3 M1.6 217.35 C77.27 133.12, 152.37 46.19, 191.31 -0.25 M6.15 216.71 C60.4 158.03, 115.91 95.04, 197.48 0.59 M7.68 216.36 C49 168.2, 90.38 121.75, 195.63 0.34 M11.3 217.86 C48.98 175.01, 87.78 131.56, 202.63 0.52 M12.68 217.66 C67.96 152.05, 124.7 86.52, 201.96 -0.3 M17.04 216.58 C86.65 139.59, 156.68 59.65, 206.75 -0.86 M18.77 217.07 C63.13 166.32, 106.36 117.27, 207.54 0.29 M22.83 216.23 C79.9 151.08, 139.05 81.12, 210.75 -0.56 M23.19 217.06 C92.91 138.56, 162.08 59.71, 212.37 0.61 M27.74 215.98 C71.33 166.53, 113.5 120.23, 217.96 0.37 M28.92 216.92 C87.27 149.55, 146.08 82.77, 217.67 0.34 M32.51 218.51 C79.05 165.03, 124.11 113.34, 221.11 -1.44 M34.15 217.86 C106.95 131.24, 181.88 45.59, 223.09 -0.44 M40.09 216.64 C107.92 134.43, 178.24 53.88, 227.05 -0.94 M40 217.73 C112.84 132.59, 186.65 48.73, 228.2 -0.66 M45.7 216.11 C86.29 168.7, 125.94 121.94, 234.68 -1.06 M44.53 217.62 C112.28 139.23, 180.74 60.89, 232.66 -0.55 M49.42 216.21 C100.67 159.73, 151.42 100.16, 237.88 1.8 M50.37 216.55 C119.43 136.19, 191.7 54.31, 238.63 -0.29 M55.26 217.48 C97.26 168.96, 138.58 120.09, 242.94 0.6 M54.3 216.65 C130.23 131.02, 204.78 45, 243.61 -0.07 M59.65 217.38 C117.78 152.79, 170.94 89.55, 249.81 -0.22 M60.86 216.24 C126.16 143.63, 191.02 69.61, 248.4 -0.17 M65.6 217.99 C129.17 144.24, 196.4 70.05, 254.99 -0.47 M65.91 216.57 C104.51 171.89, 142.58 126.36, 254.94 0.41 M71.19 215.72 C138.11 138.31, 208.36 60.3, 259.7 0.54 M71.77 216.39 C133.23 147.61, 194.8 77.36, 258.97 0.13 M74.65 218 C116.08 172.46, 155.59 126.85, 262.39 1.95 M76.79 217.22 C125.97 159.32, 176.01 102.12, 263.16 2.33 M80.31 218.65 C137.73 152.86, 196.56 85.53, 263.48 9.06 M80.75 217.11 C142.31 149.25, 202.34 79.2, 263.27 8.35 M85.87 216.79 C155.96 136.18, 223.82 57.81, 263.09 16.17 M86.86 216.7 C127.85 171.5, 166.96 125.72, 262.01 14.42 M90.81 218.13 C150.35 150.01, 205.89 83.78, 261.55 19.38 M91.41 217.56 C151.72 148.56, 211.11 80.78, 263.28 20.68 M96.25 215.61 C159.59 148.23, 219.82 75.95, 262.46 26.55 M96.98 217.51 C145.29 163.82, 193.02 108.17, 263.41 27.15 M101.04 216.32 C155.13 156.72, 209.78 97.47, 262.63 31.51 M101.83 217.33 C154.04 159.41, 204.29 101.4, 262.82 32.25 M108.53 218.12 C166.25 149.97, 225.36 81.34, 264.3 37.86 M107.61 217.14 C145.6 174.32, 182.86 131.52, 263.49 39.71 M112.72 217.08 C160.48 159.91, 210.31 103.42, 261.45 45.95 M113.43 218.25 C163.09 156.75, 215.55 97.82, 262.96 45.69 M118.35 216.87 C170.4 155.73, 222.63 96.09, 262.75 50.02 M118.65 217.71 C152.52 176.89, 185.72 138.25, 263.18 51.78 M123.75 216.51 C166.91 167.46, 210.48 114.76, 264.14 56.13 M123.67 216.82 C170.64 164.55, 216.69 111.18, 262.85 57.87 M130.94 216.48 C159.47 181.91, 185.98 149.09, 264.88 61.69 M129.37 217.74 C179.08 158.36, 231.49 99.16, 262.93 62.73 M134.83 216.09 C183.25 160.88, 232.65 101.73, 264.07 70.48 M134.52 217.95 C175.03 169.64, 215.23 120.52, 262.32 69.16 M140.62 217.25 C186.52 164.76, 229.34 115.34, 262.76 74.4 M140.17 217.11 C187.2 163.09, 233.42 109.85, 261.91 76.02 M146.07 216.66 C189.51 163.85, 234.81 115.54, 264.87 80.99 M145.64 217.3 C184.23 171.14, 225.25 124.34, 263.41 80.81 M151.63 218.22 C187.49 172.85, 224.21 130.54, 264.09 86.66 M150.8 217.32 C181.33 181.79, 211.76 146.57, 262.7 87.08 M157.04 217.27 C182.42 188.59, 208.46 158.51, 262.46 93.45 M155.98 217.75 C195.49 172.14, 235.56 125.93, 263.46 93.95 M160.41 216.78 C181.65 193.91, 204.86 170.18, 262.85 101.33 M160.35 217.75 C189.24 183.02, 218.6 149.31, 263.11 99.04 M166.67 215.68 C191.99 185.78, 219.9 153.15, 263.32 105.19 M165.76 217.97 C203.86 174.75, 239.93 130.88, 262.46 106.07 M170.59 217.03 C192.17 193.04, 210.52 173.01, 264.87 111.32 M171.19 217.4 C192.85 192.36, 213.58 168.86, 262.94 111.99 M177.28 216.31 C207.11 184.73, 233.87 152.98, 263.25 117.94 M176.54 218.29 C202.58 187.83, 228.16 159.73, 263.68 118.11 M181.17 217.68 C204.88 191.61, 228.58 165.14, 263.31 124.17 M183.04 216.96 C203.09 194.67, 223.72 171.11, 263.3 123.72 M186.55 218.2 C213.27 188.09, 236.5 157.51, 263.47 130.29 M187.16 216.74 C203.58 197.44, 219.7 179, 263.72 130.95 M193.86 216.84 C214.45 194.27, 232.79 170.73, 262.09 138.78 M192.27 217.55 C212.19 195.03, 232.34 170.7, 261.95 136.43 M199.53 218.99 C223.81 187.86, 248.22 159.61, 261.24 142.72 M197.81 217.04 C224 187.62, 250.38 158.97, 263.17 142.39 M203.72 216.97 C218.27 201.84, 232.86 183.01, 262.46 150.43 M202.5 217.73 C216.84 201.15, 230.2 185.7, 261.94 149.78 M208.67 218.98 C226.6 199.27, 241.62 176.48, 261.16 154.32 M207.97 216.6 C224.86 199.99, 239.47 182.4, 263.91 153.93 M215.22 217.42 C228.41 202.4, 239.36 187.24, 263.07 159.28 M212.72 218.01 C230.47 197.08, 249.17 176.83, 263.67 161.37 M217.78 217.07 C229.02 204.79, 242.71 191.39, 262.59 167.57 M218.44 216.51 C231.03 203.68, 242.29 189.41, 262.49 167.51 M224.86 219.41 C235.48 206.99, 245.33 194.21, 262.6 171.37 M223.9 217.81 C236.56 202.95, 247.45 189.96, 263.49 173.73 M230.04 218.8 C241.45 206.11, 252.34 192.18, 262.21 181.29 M229.33 217.55 C241.75 204.5, 251.61 192.37, 262.75 178.51 M236.51 218.78 C245.23 206.84, 257.84 193.73, 263.12 183.35 M234.29 218.27 C243.35 209.42, 251.28 199.54, 263.08 185.07 M240.01 216.31 C248.48 207.79, 255.48 201.19, 262.12 191.23 M240.05 216.19 C245.61 211.5, 249.16 205.94, 263.86 192.23 M245.41 218.01 C252.55 208.72, 260.22 202.56, 261.41 199.27 M245.48 218.19 C250.48 211.9, 253.38 207.6, 262.77 198.05 M249.79 216.47 C254.9 213.59, 257.42 206.47, 264.28 203.02 M251.35 216.63 C253.63 213.45, 256.78 211.93, 262.96 202.99 M257.2 217.81 C259.11 214.19, 261.16 213.68, 263.17 210.69 M256.28 217.74 C258.55 214.59, 260.51 211.88, 262.46 210.32" stroke="#228be6" stroke-width="0.5" fill="none"></path><path d="M-0.88 -0.99 C73.35 1.05, 145.98 1.68, 261.22 1.52 M-0.24 0.15 C78.84 -0.43, 158.18 0.49, 260.17 0.54 M258.58 -0.17 C257.89 85.72, 259.07 167.8, 259.95 215.4 M260.59 0.11 C258.85 50.2, 258.32 99.28, 260.48 216.22 M260.09 215.84 C178.71 213.35, 97.35 213, 1.13 215.09 M260.96 216.27 C201.94 213.73, 144.45 214.99, -0.41 215.13 M1.27 216.52 C0.88 135.37, 1.39 56.8, -0.13 -1.18 M0.5 215.69 C0.78 130.02, -0.04 43.74, -0.64 0.31" stroke="#000000" stroke-width="1" fill="none"></path></g><g transform="translate(529.3040643008596 957.4944412796717) rotate(0 69 19)"><text x="0" y="26" font-family="Virgil, Segoe UI Emoji" font-size="30px" fill="#000000" text-anchor="start" style="white-space: pre;" direction="ltr">lastName</text></g><g transform="translate(534.4921127495697 823.483713793883) rotate(0 43.5 19)"><text x="0" y="26" font-family="Virgil, Segoe UI Emoji" font-size="30px" fill="#000000" text-anchor="start" style="white-space: pre;" direction="ltr">'Singh'</text></g><g transform="translate(470.6870047927391 699.5902452234068) rotate(0 42 19)"><text x="0" y="26" font-family="Virgil, Segoe UI Emoji" font-size="30px" fill="#000000" text-anchor="start" style="white-space: pre;" direction="ltr">string</text></g><g stroke-linecap="round" transform="translate(793.8166480557902 734.194164079222) rotate(0 130.08814199899973 107.78731529323363)"><path d="M0 0 C0 0, 0 0, 0 0 M0 0 C0 0, 0 0, 0 0 M0.07 6.12 C1.2 4.86, 2.32 3.93, 4.72 0.38 M0.03 6.25 C1.82 4.49, 3.94 1.83, 5.03 0.1 M0.8 10.73 C2.81 9.22, 2.77 8.79, 10.08 -0.09 M0.16 12.33 C4.18 6.81, 8.36 2.75, 10.79 0.73 M0.01 16.84 C3.33 11.45, 11.67 7.27, 15.16 -1.21 M-0.36 19.05 C4.65 11.35, 10.55 4.47, 16.23 0.59 M0.02 23.28 C8.66 18.47, 15.6 9.86, 20.7 -1.66 M1.17 24.24 C6.67 15.56, 13.49 9.32, 20.98 -0.07 M1.16 28.92 C8.95 16.99, 22.38 8.23, 24.85 0.98 M0.28 31.23 C6.36 23.87, 11.75 17.24, 26.05 1.04 M-0.26 38.86 C5.99 27.43, 14.4 18.56, 30.5 -1.49 M-0.61 35.88 C9.94 26.39, 19.34 14.78, 32.17 -0.29 M0.07 40.61 C6.97 33.47, 17.58 23.57, 37.62 0.44 M1.04 41.78 C12.75 28.59, 23.71 13.83, 37.62 0.37 M-1.82 48.61 C9.71 37.16, 19.66 26.72, 42.27 -1.83 M-1.03 49.39 C15.04 30.63, 30.47 12.21, 42.66 -1.1 M0.18 53.2 C11.89 40.72, 21.71 30.1, 49.1 1.28 M-0.09 53.62 C15.86 37.83, 28.78 21.44, 47.34 -0.43 M-1.2 60.89 C12.14 46.15, 22.9 30.45, 54.33 1.74 M-0.6 60.76 C17.99 40.21, 36.77 20.14, 53.97 -0.15 M-0.34 67.35 C16.27 50.08, 30.59 33.61, 58.28 -1.79 M-0.46 68.08 C15.13 47.42, 32.26 28.87, 58.92 -0.66 M1.1 73.91 C13.64 59.18, 26.56 42.07, 64.36 0.25 M0.13 72.93 C13.89 57.49, 26.12 42.19, 62.99 0.6 M-2.02 80.08 C16.49 59.3, 31.94 42.24, 67.55 0.59 M-0.15 79.93 C26.08 47.7, 53.35 17.02, 69.36 0.05 M-0.03 84.52 C28.51 53.91, 56.08 18.53, 73.43 -0.65 M-0.07 84.53 C24.35 56.57, 47.76 28.91, 73.87 -1.15 M0.07 93.31 C16 72.92, 32.63 53.58, 78.65 0.37 M0.1 91.91 C22.91 61.91, 47.4 34.59, 78.99 -0.24 M0.98 96.94 C26.89 66.11, 58.78 31.76, 85.96 -0.66 M0.22 98.62 C17.86 74.32, 38.51 53.1, 84.11 0.01 M-1.15 102.81 C33.42 62.95, 69.03 24.24, 88.69 0.16 M-0.48 103.67 C28.53 70.92, 56.36 38.22, 89.47 0.21 M-0.92 111.76 C19.43 86.63, 38.66 63.75, 93.77 -0.88 M-0.3 109.69 C37.8 67.82, 75.99 23.17, 96.5 -0.82 M-1.36 115.01 C27.59 85.1, 58.85 50.29, 102.19 1.18 M0.67 114.54 C22.37 89.01, 44.33 65.27, 99.74 0.85 M-1.4 122.46 C19.74 98.36, 42.12 74.19, 108.05 0.22 M0.43 122.19 C30.74 85.22, 62.83 47.97, 107.15 -0.87 M-1.54 127.68 C39.94 83.54, 81.93 36.06, 111.01 -0.73 M0.76 128.32 C26.82 98.03, 52.18 69.75, 112.06 0.8 M-0.08 132.38 C34.17 94.1, 70.65 49.6, 114.69 -0.45 M0.41 133.48 C42.95 85.54, 85.5 37.54, 116.83 1.09 M-1.31 138.97 C27.33 106.87, 54.58 78.45, 122.4 0.91 M0.25 140.21 C37.49 96.86, 75.78 53.96, 122.03 0.87 M-1.21 147.49 C30.65 110.21, 60.67 75.86, 124.96 -1.61 M0.98 146.63 C49.04 88.32, 99.23 31.3, 127.59 -0.29 M1 151.97 C47.5 93.92, 96.65 37.78, 131.15 -0.74 M0.89 153.27 C51.41 93.1, 103.21 34.76, 132.53 -0.4 M1.46 157.34 C30.7 122.98, 58.7 89.43, 139.26 -0.93 M0.08 159.11 C49.24 101.89, 99.29 44.78, 136.9 -0.33 M-0.4 163.58 C38.87 121.23, 77.35 75.59, 142.82 1.57 M0.7 163.97 C52.61 103.12, 108 40.86, 143.68 -0.84 M0.32 171.02 C33.41 132.98, 65.62 94.42, 147.15 1 M-0.78 170.08 C58.99 103.11, 117.47 35.55, 147.91 0.24 M-0.7 176.99 C47.36 124.05, 89.97 72.7, 154.91 -0.73 M0.65 175.72 C53.96 116.77, 107.01 56.4, 153.33 -0.67 M0.12 183.66 C53.19 121.84, 110.34 59.55, 159.37 -0.2 M0.45 182.09 C32.85 144.77, 64.63 106.3, 159.32 0.77 M-0.2 188.01 C58.14 120.53, 120 52.4, 164.71 0.12 M0.42 188.74 C54.07 128.81, 108.04 67.34, 163.92 -0.32 M-1.43 195.71 C36.43 154.37, 72.19 113.06, 168.64 -0.01 M0.84 194.88 C45.27 142.41, 90.57 90.69, 169.46 0.39 M-0.95 202.38 C54.42 138.99, 111.2 74.04, 175.69 0.33 M-0.5 200.81 C58.91 135.45, 116.74 67.91, 175.48 -0.4 M-0.61 206.54 C71.03 124.17, 140.43 44.02, 180.53 1.37 M0.37 206.45 C42.25 160.23, 82.25 113.43, 179.46 -0.36 M-0.88 213.88 C63.45 140.16, 123.95 68.33, 184.32 -1.38 M-0.31 213.34 C65 138.54, 129.4 64.97, 185.96 -0.14 M0.66 216.04 C72.76 138.47, 141.85 56.22, 190.43 -0.28 M1.34 217.79 C56.44 156.26, 111.02 92.79, 191.31 0.28 M6.14 215.98 C69.5 145.75, 133.27 75.68, 195.87 -1.29 M6.87 216.9 C67.92 148.73, 127.04 80.54, 196.04 -0.62 M12.81 218.33 C83.66 135.47, 155.61 52.15, 202.6 -0.95 M11.98 217.45 C58.07 165.15, 103.65 112.76, 201.87 0.7 M17.75 216.69 C78.56 144.71, 141.47 73.07, 205.94 0.16 M18.37 217.72 C81.69 140.47, 147.79 65.69, 207.27 -0.06 M22.72 217.21 C91.2 137.23, 159.77 58.74, 211.72 -0.85 M22.98 217.94 C67.37 165.12, 111.12 114.4, 212.1 0.68 M28.72 216.21 C87.91 148.84, 147.45 78.13, 218.78 -1.48 M28.65 216.47 C92.24 145.1, 154.95 72.62, 217.68 0.01 M35.01 216.88 C75.43 168.38, 114.42 121.57, 224.05 -1.17 M33.69 217.94 C104.34 134.56, 177.71 51.07, 222.4 -0.29 M39.69 215.98 C112.01 132.96, 184.92 47.34, 229.12 0.37 M39.45 217.38 C99.26 146.48, 159.34 75.19, 227.8 -0.63 M44.78 217.51 C114.09 138.16, 180.69 61.42, 233.32 -1.14 M44.44 217.4 C116.43 134.41, 187.65 52.43, 232.67 0.07 M50.78 216.4 C120.65 133.39, 191.9 54.31, 239.6 -0.07 M50.45 216.88 C113.01 142.8, 177.73 68.64, 238.5 -0.21 M55.69 218.23 C117.01 144.61, 178.64 73.65, 244.85 -1.01 M55.07 217.55 C106.78 158.4, 158.03 99.28, 243.8 -0.7 M61.66 216.85 C106.26 166.14, 151.66 113.82, 248.31 0.21 M60.86 217.21 C130.78 137.13, 201.12 56.12, 249.07 0.59 M64.93 217.14 C103.99 173.25, 144.7 128.64, 254.45 0.93 M64.88 217.87 C118.79 154.06, 173.61 91.05, 254.64 -0.79 M71.54 215.64 C122.85 155.73, 176.63 93.46, 259.98 -0.62 M70.85 217.37 C143.99 133.22, 215.66 48.98, 259.34 0.05 M75.22 217.32 C116.25 169.77, 155.09 125.91, 264.53 1.62 M75.67 217.6 C119.6 167.42, 162.43 118.41, 263.07 2.13 M81.5 216.85 C142.74 148.69, 201.36 80.5, 263.25 8.18 M80.93 218.37 C134.86 155.77, 189.17 94.33, 263.58 8.31 M85.77 217.83 C135.94 161.14, 186.21 103.93, 262.73 15.02 M87.25 217.26 C131.99 167.93, 176.4 116.98, 262.72 14.67 M91.05 218.32 C149.26 151.56, 205.04 84.31, 263.47 20.45 M91.55 217.16 C128.78 173.64, 165.56 131.43, 263.67 20.97 M98.58 216.54 C146.84 162.48, 193.21 107.17, 262.31 28.54 M97.28 217.12 C144.34 162.71, 191.51 107.51, 262.19 26.63 M103.6 219 C166.27 145.75, 228.4 74.14, 261.66 32.81 M102.19 217.39 C166.93 144.58, 231.33 71.91, 263.26 32.53 M108.6 216.63 C146.76 174.24, 184.47 129.14, 262.62 40.31 M107.57 217.27 C143.86 175.4, 179.23 134.64, 262.19 39.77 M113.01 219.03 C160.7 164.87, 206.36 107.65, 260.91 45.23 M112.41 217 C155.88 169.33, 197.36 120.95, 263.26 44.9 M120 216.99 C159.12 171.05, 196.63 125.68, 263.16 49.62 M117.84 217.5 C169.46 157.61, 222.11 98.14, 263.68 51.44 M122.3 217.39 C159.27 175.56, 198.29 132.73, 262.71 57.66 M122.88 216.9 C160.51 174.18, 197.56 130.4, 262.62 57.62 M129.79 218.76 C164.83 178.91, 198.93 138.4, 262.76 61.66 M128.93 217.34 C171.16 169.15, 211.14 122.75, 263.56 63.77 M134.37 219.11 C177.52 170.14, 219.12 120.88, 262.33 71.42 M133.66 217.87 C177.81 167.87, 219.48 119.15, 262.87 68.63 M141.49 218.34 C185.47 165.89, 233.96 111.5, 262.58 74.23 M139.27 217.82 C175.47 179.68, 209.49 139.78, 262.54 75.95 M144.34 216.62 C181.69 175.75, 216.77 136.83, 262.23 81.35 M144.38 216.5 C169.91 187.55, 193.72 158.69, 263.97 82.36 M150.4 217.57 C194.3 167.27, 238.13 119.51, 261.52 89.39 M150.46 217.74 C178.48 183.48, 204.91 152.11, 262.88 88.18 M153.96 216.72 C191.44 177.53, 225.44 133.73, 264.54 93.09 M155.69 216.89 C178.18 189.61, 202.14 164.4, 263.06 93.05 M163.19 217.75 C194.42 178.88, 226.56 145.58, 263.69 101.64 M161.33 217.63 C197.9 173.82, 233.88 131.49, 262.27 100.89 M164.54 216.79 C195.23 182.2, 227.44 147.57, 262.09 107.61 M165.62 216.88 C188.77 193.06, 210.41 167.66, 261.94 105.42 M169.85 218.61 C208.49 178.44, 239.52 135.89, 261.29 111.51 M172.1 217.66 C202.17 182.6, 232.57 148.25, 262.32 111.36 M176.77 216.89 C196.69 195.72, 217.44 169.8, 261.08 118.25 M177.53 217.99 C201.34 190.2, 225.87 161.98, 263.68 117.56 M183.77 218.48 C205.42 191.83, 229.62 161.59, 261.85 122.15 M182.27 217.72 C202.33 194.45, 221.59 171.27, 263.96 124.57 M186.69 215.66 C207.69 195.1, 223.27 172.7, 261.09 131.22 M188.1 217.44 C204.45 198.37, 218.88 180.72, 262.7 129.55 M193.04 219.1 C214.81 191.01, 239.06 163.62, 263.68 136.11 M192.02 218.11 C217.2 190.32, 239.74 164.1, 262.76 135.91 M197.76 218.39 C212.58 199.91, 226.15 181.66, 261.74 142.63 M197.32 218.15 C221.53 189, 247.53 159.79, 263.41 142.39 M203.08 218.55 C216.51 202.82, 233.6 186.36, 262.39 148.28 M202.8 216.59 C217.66 201.18, 231.72 185.67, 263.58 148.23 M208.78 216.98 C229.9 193.9, 248.95 171.22, 262.05 155.2 M208.47 216.69 C227.53 193.56, 248.03 171.74, 263.5 154.76 M212.75 215.8 C234.24 196.25, 250.03 175.88, 263 162.46 M213.42 216.84 C230.06 199.06, 245.53 180.09, 262.63 160.31 M217.94 217.98 C237.05 199.19, 252.12 180.04, 263.71 167.02 M220.18 217.36 C230.62 204.82, 241.37 190.29, 263.33 167.79 M224.91 215.7 C238.92 201.01, 253.07 184.11, 262.59 172.29 M224.63 217.48 C239.87 201.44, 253.59 185.72, 262.07 173.86 M230.79 218.54 C243.02 202.87, 254.73 189.24, 261.8 180.57 M230.36 218.12 C242.55 201.84, 255.15 188.32, 262.55 180.04 M233.81 217.73 C244.16 206.39, 255.93 192.33, 261.58 186.07 M234.52 216.83 C242.3 208.99, 251.07 198.86, 263.41 184.3 M240.27 218.43 C247.63 209.18, 253.67 202.81, 264.77 191.18 M240.25 216.62 C248.33 206.9, 257.21 196.97, 262.13 192 M245.08 215.97 C250.93 210.99, 258.63 201.55, 263.14 199.45 M246.49 216.88 C252.44 210.5, 258.44 203.06, 262.77 197.46 M250.75 216.18 C256.16 212.91, 257.53 209.01, 261.33 204.03 M250.48 216.29 C254.84 212.62, 258.17 209.84, 263.04 203.15 M255.96 218.29 C258.75 214.25, 260.98 211.6, 263.26 209.17 M255.71 217.37 C258.37 215.28, 259.66 213.01, 263.17 210.25" stroke="#228be6" stroke-width="0.5" fill="none"></path><path d="M-0.73 1.02 C64.55 -0.33, 131 0.14, 258.93 0.24 M0.06 -0.79 C69.88 -0.39, 138.75 0.06, 259.62 -0.69 M260.15 -1.31 C259.9 74.76, 260.35 149.13, 259.56 217.22 M260.92 0.62 C258.59 69.43, 259.34 137.89, 259.62 215.05 M260.82 215.43 C156.84 216.66, 55.12 215.17, 1.05 214.05 M259.51 215.68 C184.31 214.37, 108.29 214.65, -0.04 216.34 M-1.27 216.58 C-3.03 145.88, -2.85 72.13, 0.95 -1.22 M-0.21 215.82 C2.13 133, 1.4 52.12, 0.44 0.32" stroke="#000000" stroke-width="1" fill="none"></path></g><g transform="translate(904.7013118786876 955.01656245594) rotate(0 26.5 19)"><text x="0" y="26" font-family="Virgil, Segoe UI Emoji" font-size="30px" fill="#000000" text-anchor="start" style="white-space: pre;" direction="ltr">age</text></g><g transform="translate(897.4999189471353 823.4837137938835) rotate(0 14.5 19)"><text x="0" y="26" font-family="Virgil, Segoe UI Emoji" font-size="30px" fill="#000000" text-anchor="start" style="white-space: pre;" direction="ltr">15</text></g><g transform="translate(797.7657807234386 697.1123663996759) rotate(0 48.5 19)"><text x="0" y="26" font-family="Virgil, Segoe UI Emoji" font-size="30px" fill="#000000" text-anchor="start" style="white-space: pre;" direction="ltr">number</text></g><g stroke-linecap="round" transform="translate(1114.7008450811811 727.9994906506981) rotate(0 130.08814199899973 107.78731529323363)"><path d="M0 0 C0 0, 0 0, 0 0 M0 0 C0 0, 0 0, 0 0 M-0.86 5.74 C1.9 3.6, 3.28 3, 4.71 0.61 M-0.53 6.73 C1.32 3.95, 3.64 1.99, 4.95 0.22 M0.27 13.1 C3.98 8.81, 8.12 3.42, 11.49 0.83 M-0.59 12.47 C3.6 8.34, 8.52 3, 10.71 -0.24 M0.95 19.85 C2.6 13.75, 5.62 9.7, 14.52 1.68 M-0.81 18.42 C3.95 14.18, 7.25 8.66, 16.15 0.74 M1.68 25.18 C8.09 15.24, 17.65 7.18, 19.37 0.05 M0.96 23.34 C5.16 17.7, 11.97 11.57, 21.16 0.06 M-1.42 30.48 C5.71 22.54, 10.03 17.5, 27.26 1.8 M-0.58 31.34 C10.63 18.74, 21.07 7.86, 26.74 -0.16 M0.65 38.06 C8.55 26.92, 15.74 17.17, 32.48 1.17 M-0.04 37.36 C11.57 22.13, 25.17 7.21, 31.19 0.34 M1.62 43.87 C10.33 29.03, 24.28 14.86, 35.2 1.37 M-0.3 42.44 C11.48 28.28, 23.15 16.18, 36.03 0.84 M-0.3 50.05 C16.23 33.88, 27.94 15.96, 44.41 -1.26 M0.63 48.88 C7.38 39.61, 16.48 28.03, 42.35 0.43 M-0.05 53.86 C11.01 40.55, 22.14 28.56, 46.42 -0.94 M-0.69 53.83 C15.74 35.74, 32.79 18.8, 46.7 0.97 M-1.25 60.04 C16.66 38.56, 35.7 20.28, 51.89 1.74 M0.76 60.15 C18.83 38.6, 36.03 18.41, 53.46 -0.11 M-1.83 65.69 C11.76 54.44, 25 38.45, 56.33 0.14 M0.17 68.07 C18.5 46.11, 35.35 24.63, 58.73 1.13 M1.73 72.83 C21.79 47.72, 43.72 25.06, 63.07 1.76 M0.08 72.31 C16.04 56.03, 30.24 40.6, 64.68 -0.04 M-1.8 80.93 C23.06 52.55, 49.36 23.56, 67.76 0.53 M-0.51 79.17 C19.02 55.43, 39.98 31.08, 69.42 -0.09 M-0.05 83.83 C21.62 64.46, 39.56 41.21, 73.43 1.02 M-0.38 84.2 C16.97 65.46, 34.36 47.37, 73.44 -0.41 M-0.6 90.06 C33.57 52.74, 63.88 17.46, 78.89 -1.24 M-0.2 91.06 C24.02 64.39, 49.32 36.21, 79.39 -0.4 M-0.57 99.81 C24.62 70.35, 47.55 46.27, 85.84 0.38 M-0.89 97.11 C25.59 69.12, 49.21 39.68, 84.52 -0.61 M1.13 105.43 C32.54 65.94, 62.53 31.57, 91.28 -0.02 M-0.38 102.61 C28.85 71.98, 56.1 39.27, 90.54 0.15 M-0.44 107.94 C36.63 70.64, 70.92 28.3, 94.56 -0.71 M-0.48 109.76 C33.09 73.23, 65.1 35.11, 95.99 -0.32 M2.14 114 C39.42 72.25, 75.6 26.22, 101.87 -0.02 M0.8 116.38 C28.35 84.94, 54.66 53.79, 100.12 -0.76 M1.11 120.24 C34.35 83.52, 69.33 42.69, 105.21 -0.14 M-0.82 122.79 C25.78 90.78, 51.02 61.38, 107.26 0.45 M-0.1 130.14 C41.26 83.05, 77.97 35.51, 110.95 1.17 M-0.2 127.39 C33.49 91.47, 66.22 51.41, 110.68 0.19 M0.89 134.63 C30 100.67, 62.63 61.35, 118.13 -0.44 M0.39 133.81 C30.99 97.87, 62.87 61.74, 116.36 0.15 M1.22 140.54 C36.95 95.14, 70.71 55.03, 122.23 0.58 M0.41 140.05 C33.42 100.71, 68.55 61.95, 122.08 0.04 M-0.91 147.63 C28.44 115.55, 55.44 86.44, 127 0.22 M0.76 146.09 C32.28 113.42, 61.07 78.56, 126.62 0.65 M-1.51 152.77 C49.3 97.45, 97.79 38.99, 130.95 1.67 M-0.25 152.72 C36.02 109.16, 74.17 65.78, 133.39 -0.45 M-1.25 159.13 C41.34 107.66, 85.99 56.5, 138.76 0.55 M0.47 159.29 C43.65 106.06, 89.31 52.74, 136.82 -0.18 M-0.47 164.43 C35.24 127.45, 68.17 87.54, 143.01 -0.61 M0.73 164.75 C45.69 113.6, 92.05 60.16, 143.36 -0.88 M-0.26 169.71 C43.85 120.25, 85.92 69.65, 148.9 1.09 M-0.58 170.76 C46.49 117.37, 92.68 64.14, 147.43 0.22 M0.22 175.64 C50.15 120.43, 96.23 65.73, 152.87 1.53 M0.12 177.08 C60.07 108.83, 120.46 40.38, 153.61 0.49 M0.03 183.67 C56.53 117.44, 114.48 53.93, 159.61 1.18 M-0.01 183.29 C47.73 125.18, 98.2 67.65, 158.41 0.43 M-0.89 189.42 C56.39 124.37, 113.96 58.07, 164.98 0.75 M0.44 189.35 C39.71 143.5, 80.87 95.98, 165.03 0.05 M1.04 193.49 C42.67 140.76, 89.99 88.83, 169.15 -0.86 M-0.49 195.19 C37.08 152.54, 76.48 107.6, 169.12 0.56 M-0.5 201.98 C35.97 158.46, 71.01 117.28, 176.39 -0.95 M0.49 202.01 C42.49 155.27, 82.6 106.92, 174.69 -0.86 M0.41 207.09 C57.52 141.15, 115.16 75.17, 178.6 -1.35 M-0.23 206.3 C57.41 141.71, 115.04 76.03, 180.04 0.46 M-1.07 214.11 C56.72 149.28, 110.13 88.51, 187.12 0.16 M-0.04 212.7 C45.56 160.19, 91.9 106.59, 185.6 0.21 M2.96 216.77 C64.29 148.99, 123.15 78.78, 191.43 -1.12 M1.62 217.75 C45.74 170.49, 87.91 120, 191.08 -0.21 M8.52 216.49 C74.05 139.86, 138.11 62.08, 196.74 0.43 M7.33 217.56 C76.52 139.69, 143.69 62.19, 196.95 -0.75 M13.35 218.79 C56.8 166.7, 101.23 114.18, 201.53 1.06 M12.03 216.72 C79.03 142.76, 144.87 66.93, 201.64 -0.56 M18.65 217.59 C64.04 163.23, 110.48 111.24, 207.26 -1.56 M17.85 217.62 C93.03 131.73, 167.65 45.39, 207.53 -0.28 M21.79 218.84 C90.43 142.81, 155.13 65.81, 211.46 -0.55 M23.41 217.39 C72.76 160.63, 121.55 104.09, 212.12 0.07 M28.98 218.04 C97.64 135.38, 166.96 57.4, 217.21 0.71 M28.43 217.52 C100.19 137.04, 169.69 56.93, 217.08 0.27 M33.21 217.04 C84.17 158.19, 133.98 102.14, 223.29 -0.68 M33.82 217.09 C87.99 153.25, 144.44 88.18, 222.39 0.58 M38.93 216.68 C88.3 161.42, 136.73 107.07, 227.66 0.65 M38.76 216.35 C89.22 162.03, 138.16 106.42, 227.86 -0.67 M43.05 218.5 C105.01 146.48, 167.07 73.37, 232.61 -1.14 M43.82 217.45 C116.24 135.39, 187.51 53.68, 233.31 -0.35 M50.5 217.36 C117.9 138.4, 187.1 59.58, 238.58 0.48 M49.52 217.51 C86.71 172.41, 125.5 129.3, 237.93 0.35 M55.3 218.25 C96.92 169.16, 140.34 118.02, 243.55 1.24 M54.95 216.85 C125.84 135.8, 197.18 55.91, 243.72 0.27 M59.14 216.85 C117.85 151.25, 171.49 90.09, 248.39 -0.93 M60.86 216.62 C119.06 150.78, 178.38 82.77, 248.3 -0.23 M64.46 216.32 C135.25 137.27, 203.24 59.18, 253.75 -0.44 M65.23 217.95 C127.2 146.97, 189.25 75.68, 254.94 0.62 M71.94 216.92 C138.2 138.85, 205.28 60.76, 259.13 -0.43 M70.9 216.59 C123.57 157.75, 174.27 98.99, 259.02 0.6 M76.61 217.73 C124.7 160.44, 175.97 101.88, 264.46 3.24 M76.65 217.13 C125.15 158.77, 173.59 103.14, 262.8 2.47 M79.71 219.09 C119.6 172.32, 161.27 127.39, 262.77 8.61 M81.12 217.85 C142.57 148.79, 203.69 78.08, 263.05 8.61 M88.35 217.42 C126.22 172.38, 166.28 129.43, 262.11 14.59 M86.18 216.58 C152.3 145.04, 215.55 71.2, 261.88 14.86 M93.08 218.48 C134.64 163.79, 180.04 114.92, 261.93 22.04 M91.42 218.37 C146.18 156.34, 201.25 94.17, 262.44 21.05 M98.71 218.39 C134.08 176.68, 170.5 134.36, 261.82 27.43 M97.92 216.77 C157.98 146.86, 219.7 74.83, 263.41 26.99 M101.59 217.46 C166.6 142.73, 231.95 68.87, 264.45 32.06 M102.27 218.01 C134.6 179, 165.89 141.68, 262.68 32.61 M109.36 216.2 C141.22 181.03, 172.79 145.26, 261.73 40.55 M107.58 216.35 C142.73 177.17, 176.45 136.59, 262.76 38.32 M113.99 216.72 C155.07 167.8, 199.01 121.33, 264.11 43.89 M112.7 217.21 C165.3 156.86, 216.55 98.5, 263.36 45.39 M118.24 218.47 C152.93 179.9, 185.06 139.38, 263.37 50.46 M118.33 216.96 C146.79 182.7, 175.99 149.13, 263.44 50.55 M122.1 215.81 C166.08 171.94, 206.97 123.57, 262.37 56.41 M124.47 217.98 C163.05 172.82, 200.96 128.61, 261.92 57.43 M129.58 218.29 C168.49 169.19, 208.09 126.18, 264.34 62.75 M129.62 216.6 C180.37 159.97, 228.59 102.8, 263.48 63.55 M134.24 216.56 C179.29 165.95, 221.29 113.65, 261.73 69.5 M133.47 216.77 C170.88 175.68, 208.71 132.32, 263.69 68.56 M140.25 217.69 C178.95 170.89, 222.85 122.87, 264.52 75.84 M140.18 216.36 C184.61 167.67, 228.22 117.84, 263.08 75.76 M144.21 216.23 C176.28 178.8, 210.19 143.08, 261.8 80.87 M144.01 217.01 C173.63 183.64, 202.65 150.46, 263.24 81.58 M149.76 217.47 C194.49 166.08, 239.56 116.87, 264.73 88.11 M149.68 217.42 C190.2 172.37, 230.03 128.13, 261.76 88.57 M156.16 217.92 C185.12 184.78, 210.2 155.1, 265.08 94.53 M156.22 218.14 C196.04 171.19, 238.51 123.93, 263.88 92.95 M161.22 217.45 C187.7 186.03, 216.37 154.55, 263.69 98.74 M161.35 216.44 C192.71 179.81, 224.74 142.23, 262.48 99.59 M165.85 215.63 C202.34 173.62, 244.19 128.91, 260.85 106.02 M165.41 217.22 C195.23 184.79, 221.38 153.42, 261.7 105.57 M173.04 215.9 C199.28 188.74, 221.14 158.49, 264.04 112.82 M171.67 217.83 C189.46 197.14, 207.85 175.39, 262.14 111.32 M176.39 217.93 C207.35 185.46, 233.69 152.88, 263.74 119.25 M176.24 217 C206.64 184.1, 234.57 152.31, 262.04 117.78 M183.05 217.74 C204.07 190.73, 224.57 164.79, 263.76 126.07 M182.44 217.67 C207.23 190.15, 230.83 162.09, 262.94 123.96 M186.29 216.05 C203.14 196.65, 222.71 176.54, 261.77 130.99 M186.67 217.92 C207.78 196.24, 225.49 172.98, 263.61 129.87 M191.78 219.24 C209.37 200.38, 225.25 179.64, 263.58 137.59 M192.12 218.51 C213.33 195.14, 232.66 170.99, 261.74 136.12 M197.42 215.84 C220.56 187.93, 248.78 163.83, 263 143.9 M197.95 218.1 C222.42 189.38, 246.08 163.41, 263.1 143.05 M201.1 217.07 C218.51 198.3, 238.37 179.62, 261.56 150.85 M202.43 218.31 C227.28 190.23, 250.25 163.58, 262.69 149.87 M207.03 217.77 C222.17 202.45, 233.28 189.95, 262.88 155.28 M208.66 217.35 C226.52 195.41, 245.21 175.6, 262.48 154.24 M214.28 216.75 C225.38 205.15, 239.66 190.1, 261.16 162.2 M214.46 216.96 C226.89 202.93, 237.65 190.16, 263.26 161.2 M219.73 216.93 C231.3 202.4, 247.85 184.68, 263.55 165.77 M218.7 217.18 C228.47 206.47, 237.88 195.64, 262.39 166.76 M222.63 217.69 C238.06 202.25, 250.36 186.86, 261.89 173.84 M225.25 217.32 C231.77 207.59, 240.88 198.72, 262.92 173.05 M231.54 219.05 C242.37 203.23, 251.18 190.85, 264.51 180.42 M229.28 216.77 C237.16 209.8, 243.87 201.84, 262.76 179.41 M236.85 217.94 C241.68 210.62, 248.1 201.16, 262.61 186.64 M235.17 217.92 C241.11 209.51, 247.47 202.46, 262.42 184.04 M241.82 216.46 C247.24 207.91, 255.37 199.85, 262.67 193.12 M240.9 216.99 C247.14 209.88, 253.87 202.67, 262.85 190.89 M247 218.14 C252.64 210.74, 258.77 202.97, 260.91 196.82 M245.89 216.96 C249.93 212.56, 254.33 207.4, 263.19 197.25 M249.5 216.24 C255.06 214.84, 256.38 208.71, 262.97 203.64 M251.38 216.47 C253.2 213.29, 256.99 210.65, 263.82 202.93 M255.35 217.5 C257.46 214.13, 261.03 212.24, 263.25 209.42 M256.3 217.89 C258.31 215.21, 260.45 212.59, 262.36 209.51" stroke="#228be6" stroke-width="0.5" fill="none"></path><path d="M0.57 -0.02 C53.31 0.66, 107.86 2.87, 259.78 0.43 M0.31 0.65 C97.33 -1.27, 194.26 -1.42, 260.89 0.58 M261.07 -0.78 C260.59 47.67, 260.35 96.62, 261.77 214.19 M260.53 0.36 C260.82 83.62, 261.39 166.55, 260.03 215.22 M260.63 216.96 C177.15 213.75, 93.75 214, -1.03 216.43 M259.99 215.47 C165.06 216.94, 69.67 215.82, -0.13 215.33 M-0.23 214.05 C-2.14 134.44, -0.13 50.29, 0.81 1.66 M0.7 216.15 C-1.04 144.17, -1.83 72.83, 0.52 -0.49" stroke="#000000" stroke-width="1" fill="none"></path></g><g transform="translate(1162.3997643145638 950.0608048084773) rotate(0 87.5 19)"><text x="0" y="26" font-family="Virgil, Segoe UI Emoji" font-size="30px" fill="#000000" text-anchor="start" style="white-space: pre;" direction="ltr">yearOfBirth</text></g><g transform="translate(1207.2337794197554 822.2447507512138) rotate(0 32.5 19)"><text x="0" y="26" font-family="Virgil, Segoe UI Emoji" font-size="30px" fill="#000000" text-anchor="start" style="white-space: pre;" direction="ltr">1999</text></g><g transform="translate(1118.6499777488295 690.9176929711521) rotate(0 48.5 19)"><text x="0" y="26" font-family="Virgil, Segoe UI Emoji" font-size="30px" fill="#000000" text-anchor="start" style="white-space: pre;" direction="ltr">number</text></g><g transform="translate(114.80294070547507 604.3869384003428) rotate(0 218.5 25)"><text x="0" y="35" font-family="Virgil, Segoe UI Emoji" font-size="40px" fill="#000000" text-anchor="start" style="white-space: pre;" direction="ltr">Code Execution Phase</text></g></svg>