<svg version="1.1" xmlns="http://www.w3.org/2000/svg" viewBox="0 0 1789.000104631696 848.4680174014422" width="1789.000104631696" height="848.4680174014422" filter="invert(93%) hue-rotate(180deg)">
  <!-- svg-source:excalidraw -->
  
  <defs>
    <style>
      @font-face {
        font-family: "Virgil";
        src: url("https://excalidraw.com/Virgil.woff2");
      }
      @font-face {
        font-family: "Cascadia";
        src: url("https://excalidraw.com/Cascadia.woff2");
      }
    </style>
  </defs>
  <rect x="0" y="0" width="1789.000104631696" height="848.4680174014422" fill="#ffffff"></rect><g stroke-linecap="round" transform="translate(10 61.19208824073294) rotate(0 190 149.20000457763672)"><path d="M0 0 C0 0, 0 0, 0 0 M0 0 C0 0, 0 0, 0 0 M-0.11 6.19 C1.19 4.88, 2.79 2.09, 4.93 0.22 M-0.51 6.28 C1.38 3.97, 3.89 2.1, 4.72 0.3 M1.06 11.89 C4.9 8.76, 8.29 2.56, 11.21 -1.23 M-0.3 11.41 C2.07 10.37, 4.92 7.72, 10.36 0.73 M1.82 17.01 C5.66 10.33, 10.19 6.76, 15.14 1.45 M-0.37 19.12 C2.78 14.28, 6.74 9.64, 15.68 1.27 M-0.06 23.34 C5.65 18.02, 15.24 10.02, 21.1 1.64 M0.52 24.2 C6.59 17.24, 11.38 11.08, 21.02 0.83 M1.97 31.5 C8.62 18.52, 19.96 8.4, 25.94 -1.31 M-0.37 31.07 C7.86 22.24, 14.04 13.83, 27.03 1.13 M0.66 37.78 C7.87 26.87, 18.6 16.1, 33.21 -0.64 M0.12 36.06 C11.18 25.1, 21.52 12.67, 31.04 0.56 M-1.04 42.67 C10.56 29.85, 21.96 18.35, 37.8 1.88 M0.12 42.34 C10.31 32.5, 18.67 21.65, 36.81 1.26 M1.82 47.31 C15.04 33.96, 29.44 15.81, 40.92 0.09 M-0.13 49.06 C11.2 36.35, 22.35 21.74, 42.94 -0.07 M-1.48 54.5 C11.84 37.25, 28.66 25.48, 46.65 -0.2 M-0.56 54.98 C9.8 42.1, 20.84 30.77, 46.74 0.81 M-0.81 60.97 C15.42 43.42, 29.76 25.43, 52.86 -1.07 M0.6 61.34 C15.24 42.72, 32.46 24.27, 52.6 0.44 M1.13 66.34 C16.71 47.56, 33.76 28.31, 59.79 -0.14 M0.56 67.5 C15.74 47.61, 31.08 29.47, 57.87 0.62 M0.6 73.67 C20.78 47.52, 42.46 26.07, 65.02 1.6 M1.1 72.01 C16.05 54.56, 32.8 37.27, 63.23 -0.74 M0.6 77.91 C13.66 61.97, 31.12 44.95, 67.93 0.1 M-0.25 79.82 C16.77 59.38, 33.69 39.26, 68.57 -0.76 M1.22 86.94 C23.48 60.45, 45.45 32.36, 72.77 0.44 M-0.51 85.83 C22.27 61.72, 41.3 37.36, 75.35 -0.72 M0.14 89.8 C19.36 72.47, 36.09 51.82, 81.12 1.17 M0.63 91.82 C29.92 58.31, 58.2 23.91, 78.5 0.87 M-1.04 97.7 C22.56 71.84, 45.69 47.01, 86.87 -1.57 M0.54 98.04 C26.38 67.84, 53.57 34.88, 84.78 -0.94 M-1 104.48 C21.31 77.01, 46.82 53.72, 88.79 -1.65 M0.78 104.33 C35.52 64.77, 69.23 25.45, 90.65 -0.58 M1.06 111.21 C32.94 72.1, 62.59 35.07, 97.44 1.16 M0.28 109.28 C27 77.17, 55.22 45.85, 96.66 -1.15 M-0.2 115.06 C36.67 74.36, 73.37 32.5, 99.75 1.56 M1.07 115.82 C22.3 88.29, 47.26 60.46, 101.32 0.48 M0.19 121.65 C41.08 74.88, 81.31 29.92, 105.97 0.85 M0.12 122.14 C27.62 89.97, 57.47 55.4, 105.46 0.57 M-0.11 130 C38.59 82.87, 78.77 40.68, 110.19 -0.68 M-0.92 129.25 C28.11 96.26, 56.59 62.89, 112.12 -0.66 M1.02 133.04 C28.47 104.16, 52.42 70.91, 116.69 1.11 M-0.58 134.16 C33.99 92.95, 70.99 51.96, 116.28 0.62 M-2.05 142.14 C40.78 92.07, 81.4 46.5, 123.68 -1.2 M-0.39 140.99 C40.25 95.03, 77.26 51.3, 121.97 0.96 M-0.38 144.04 C26.32 113.76, 52.23 82.15, 127.14 1.88 M0.84 146.56 C26.54 115.62, 52.36 85.63, 127.5 0.79 M-1.73 153.12 C48.09 94.03, 99.46 36.42, 131.28 1.58 M0.76 153.24 C35.12 112.19, 69.67 71.65, 133.06 -0.01 M-1.12 160.48 C26.48 126.52, 54.97 95.05, 136.45 0.07 M-0.28 158.97 C48.93 100.35, 99.28 42.85, 136.96 0.78 M0.35 163.01 C37.63 121.03, 72.07 78.84, 142.92 0.56 M0.83 163.67 C46.47 112.89, 91.87 59.94, 143.1 0.68 M-1.23 169.61 C61.31 102.49, 119.26 36.26, 147.33 -1.43 M0.54 170.58 C48.74 115.66, 96.51 61.31, 148.12 -0.43 M0.36 177.02 C47.36 124.88, 89.89 74.11, 152.79 -1.31 M-0.53 176.55 C43.55 129.48, 84.45 81.21, 154.61 -0.54 M0.5 181.69 C51.62 121.44, 105.51 60.7, 158.25 1.67 M-0.32 182.35 C33.41 143.33, 67.89 104, 158.3 0.88 M0.18 189.7 C56.06 125.89, 110.13 64.25, 165.19 0.7 M0.05 189.67 C43.35 135.11, 89.02 83.54, 164.33 -0.46 M-1.27 194.17 C45.24 143.59, 91.37 90.76, 170.63 -0.71 M0.45 194.23 C55.49 132.21, 110.74 69.22, 169.48 -0.32 M-0.31 202.47 C62.75 126.94, 126.38 55.62, 173.89 0.11 M0.55 201.81 C45.07 148.35, 91.57 96.69, 175.17 0.34 M0.72 206.84 C36.75 163.49, 74.17 119.25, 178.97 0.17 M0.53 207.51 C56.17 142.3, 111.51 79.44, 179.72 0.7 M-0.44 214.54 C54.91 150.99, 107.85 89.79, 185.23 -0.6 M-0.1 213.74 C56.25 146.63, 113.79 79.61, 186.11 -0.44 M-0.31 219.24 C54.65 159.75, 106.69 97.67, 190.06 -1.09 M-0.24 219.29 C38.64 173.57, 77.72 129.66, 191.34 0.29 M0.5 226.52 C69.03 143.96, 139.93 64.06, 195.38 -0.3 M0.22 225.25 C58.23 158.59, 115.82 91.72, 195.76 -0.59 M-0.15 230.71 C64.3 156.77, 129.41 79.72, 200.62 1.4 M-0.64 231.95 C78.67 140.73, 158.25 48.19, 201.48 -0.6 M-0.17 237.95 C67.43 160.37, 137.98 80.93, 206.3 1.03 M0 237.37 C51.07 176.96, 103.68 118.49, 206.66 0.16 M-0.17 244.58 C73.5 158.16, 147.48 72.66, 212.98 0.61 M-0.48 243.77 C54.38 179.63, 109.09 115.79, 211.4 0.05 M-0.39 250.98 C68 168.97, 138.93 87.96, 216.5 -0.28 M-0.45 250.13 C78.6 157.18, 158.32 65.82, 217.84 -0.92 M1.29 256.74 C56.55 188.01, 116.64 119.72, 223.33 0.3 M0.52 256.46 C71.74 171.91, 144.17 88, 223.07 -0.27 M0.47 261.8 C85.7 164.35, 170.37 66.58, 229.52 -0.41 M0.56 262.55 C48.85 204.99, 97.42 149.23, 227.97 0.21 M0.08 267.98 C76.08 179.91, 154.8 91.62, 233.18 0.25 M0.84 267.4 C67.61 187.49, 137.15 107.01, 233.84 -0.06 M0.75 273.34 C57.93 209.08, 114.47 143.33, 237.27 1.29 M-0.27 274.33 C78.24 181.47, 157.49 91.22, 238.63 -0.01 M-0.96 281.32 C78.28 192.59, 155.13 102.98, 243.45 -0.6 M-0.65 281.13 C61.05 211.57, 121.42 142.42, 243.53 0.56 M-0.77 286.65 C55.15 223.69, 109.61 158.6, 248.88 -0.03 M0.45 286.84 C56.51 222.32, 113.18 158.1, 248.99 0.29 M-0.27 291.67 C90.43 188.6, 178.94 86.56, 254.51 0.78 M0.11 293.2 C52.15 231.48, 107.21 169.68, 253.93 0.08 M-0.83 299.46 C91.15 189.71, 184.39 82.7, 258.37 -0.29 M0.57 298.71 C95.87 186.94, 192.9 75.46, 259.65 -0.07 M4.3 298.96 C74.31 217.95, 146.82 137.55, 264.08 -0.63 M5.11 299.11 C60 237.89, 113.11 175.89, 265.04 -0.65 M11.24 299.3 C64.58 238.8, 115.84 177.51, 269.73 0.33 M10.57 298.81 C66.47 234.34, 121.56 170.17, 270.2 0.43 M16.98 298.16 C82.42 221.89, 147.53 143.31, 276.48 -1.17 M16.15 298.2 C67.23 238.43, 120.89 177.01, 275.38 0.01 M22.69 299.22 C87.5 223.12, 151.73 149.79, 279.63 0.99 M21.79 298.72 C116.89 190.62, 211.4 82.4, 280.97 -0.35 M27.17 298.78 C81.03 235.99, 136.77 169.91, 286.47 -0.36 M27.02 299.09 C118.23 191.87, 211.57 85.5, 286.54 0.12 M33.15 299.42 C116.15 202.54, 199.18 106.8, 291.26 0.07 M32.23 297.79 C83.25 239.19, 136.12 178.36, 290.78 -0.12 M36.07 298.92 C134.05 182.77, 233.73 68.94, 297.64 -0.81 M37.55 298.46 C135.39 187.77, 233.34 75.97, 297.43 -0.12 M41.9 299.31 C139.84 185.87, 236.96 74.81, 302.86 -0.25 M42.95 298.64 C113.32 214.85, 185.14 131.81, 301.47 -0.24 M46.78 298.15 C136.42 200.71, 224.1 98.62, 308.63 -1.31 M48.29 298.56 C137.71 197.55, 226.77 94.67, 307.69 -0.74 M52.46 297.51 C127.95 209.53, 203.81 123.62, 312.31 -0.9 M53.44 297.97 C133.38 203.96, 214.39 111.26, 312.23 0.08 M57.49 297.57 C156.09 189.53, 251.91 78.26, 317.71 0.84 M58.27 299.15 C140.25 202.25, 222.71 106.81, 317.74 -0.75 M63.41 298.74 C138.16 210.77, 214.9 120.47, 324.02 1.02 M63.96 298.03 C164.93 182.07, 265.98 65.65, 322.97 0.26 M68.29 297.49 C151.96 201.49, 235 105.97, 329.69 0.68 M69.56 298.68 C151.91 202.62, 235.4 106.64, 328.72 -0.53 M74.57 298.49 C158.26 200.76, 243.78 100.25, 332.86 0.71 M73.74 299.38 C168.76 188.48, 265.09 77.5, 334.35 -0.43 M78.93 297.43 C171.46 192.32, 263.48 86.68, 339.83 -0.66 M79.25 298.83 C169.68 198.26, 256.76 96.61, 339.1 -0.59 M85.11 298.4 C157.38 213.89, 229.14 130.77, 344.82 -0.5 M84.7 298.94 C154.77 215.92, 225.5 134.46, 344.37 0.55 M91.11 298.4 C185.31 189.45, 280.69 82.19, 349.27 0.21 M89.77 298.85 C174.97 199.32, 261.72 100.47, 349.76 0.22 M96.45 299.28 C187.22 195.59, 276.61 91.28, 354.05 0.19 M95.25 299.21 C172.93 209.91, 249.17 121.05, 355.2 -0.2 M101.54 298.36 C195.74 188.3, 294 77.64, 360.76 1.34 M100.86 298.93 C162.05 228.23, 222.57 158.15, 359.66 0.68 M105.72 298.1 C180.62 214.59, 255.54 129.23, 365.83 0.22 M106.39 298.28 C157.78 238.94, 210.31 179.64, 365.19 -0.51 M111.21 299.03 C200.38 196.65, 289.93 91.87, 370.11 -0.06 M111.87 297.94 C197.98 199.88, 283.91 100.93, 371.19 0.43 M116.58 297.92 C208.66 192.33, 302.36 85.98, 375.88 0.83 M116.39 298.66 C200.41 204.58, 282.89 108.83, 376.87 0.47 M123.02 299.08 C217.29 188.69, 311.75 80.21, 379.69 1.64 M121.73 298.01 C200.75 208.48, 278.86 119.52, 380.57 1.29 M127.75 298.73 C221.93 188.78, 318.24 79.52, 380.55 6.98 M127.75 299.25 C215.18 196.25, 304.96 94.14, 380.74 6.75 M132.6 298.68 C196.57 224.47, 260.86 150.08, 380.67 14.23 M132.45 298.83 C225.24 193.05, 315.72 88.32, 380.86 13.55 M137.52 299.81 C202.76 221.4, 269.72 145.85, 380.1 19.87 M137.95 298.71 C226.59 198.18, 314.51 97.59, 380.35 19.17 M144.58 299.56 C230.46 195.42, 320.69 93.41, 380.56 24.92 M143.38 298.68 C224.29 206.97, 305.03 114.43, 381.47 25.38 M148.58 299.39 C221.93 211.48, 296.85 127.36, 379.62 31.51 M148.71 299.12 C238.5 193.51, 329.17 88.78, 380.69 31.3 M153.49 297.66 C241.58 196.55, 332.45 94.25, 381.45 36.29 M154.6 297.95 C240.38 196.41, 328.61 95.72, 381.48 37.31 M158.35 299.87 C227.43 218.86, 294.19 140.15, 379.76 43.06 M158.96 298.66 C215.03 234.56, 270.94 171.02, 380.9 44.1 M163.43 298.19 C237.59 216.06, 309.49 134.68, 381.94 51.25 M164.4 298.25 C218.32 236.53, 272.09 173.56, 380.04 50.47 M168.92 297.5 C251.16 207.06, 329.4 116.16, 381.59 56.77 M169.74 299.18 C235.41 223.75, 298.78 150.02, 381.64 56.19 M175.92 297.75 C243.74 218.47, 312.72 139.2, 382.03 61.21 M175.96 298.41 C223.83 241.97, 273.38 185.01, 380.58 62.17 M179.41 298.53 C254.49 213.76, 332.62 124.34, 380.1 68.51 M180.29 298.27 C242.16 228.39, 303.2 158.89, 381.73 67.18 M185.64 298.03 C238.34 237.63, 294.51 175.16, 382.03 75.46 M185.92 299.04 C229.19 246.39, 275.22 192.96, 381.49 74.53 M191.3 297.14 C248.81 229.83, 308.4 163.09, 380.4 79.19 M190.76 298.91 C259.8 219.25, 327.84 141.29, 380.17 80.16 M197.26 297.54 C263.64 220.28, 331.11 141.25, 379.57 87.48 M196.53 298.24 C247.32 238.46, 298.33 179.55, 381.08 85.78 M202.7 298.01 C251.2 238.11, 305.98 177.08, 380.62 92.68 M202.31 298.06 C263.25 226.79, 325.17 154.48, 380.41 92.98 M207.13 299.13 C267.96 227.36, 329.86 156.65, 380.89 98.19 M206.07 299.23 C272.98 220.25, 339.8 144.02, 381.65 98.44 M210.93 298.93 C277.19 224.34, 340.53 148.71, 382.39 105.11 M212.51 298.43 C268.67 235.32, 325.09 171.86, 380.51 103.74 M217.89 297.53 C264.51 244.29, 312.89 190.4, 382.17 111.55 M217.69 298.05 C274.39 233.84, 331.41 168.58, 381.34 110.95 M222.44 299.57 C281.83 230.74, 337.76 165.54, 381.13 116.71 M222.99 297.86 C271.8 241.75, 320.69 185.75, 381.75 115.86 M228.6 299.1 C287.6 228.54, 346.97 160.03, 380.54 121.78 M227.65 298.35 C274.07 245.27, 322.38 191.05, 381.17 122.3 M233.67 298.38 C287.22 237.21, 339.08 176.22, 381.41 130 M233.32 298.77 C277.52 247.81, 320.04 199.42, 381.54 127.77 M237.7 299.37 C292.66 234.82, 347.64 174.19, 380.56 134.09 M238.04 298.78 C294.35 232.44, 351.51 168.3, 381.32 135.26 M243.61 299.45 C273.75 264.37, 302.07 231.55, 380.14 140.27 M244.16 298.32 C272.01 263.92, 302.21 230.95, 381 141.75 M250.02 299.27 C292.27 246.76, 339.55 196.83, 380.36 148.63 M248.84 299.31 C288.35 253.71, 328.39 208.41, 380.34 146.45 M254.14 298.93 C293.4 255.07, 329.53 213.05, 378.76 153.22 M255.71 298.51 C282.35 265.91, 308.72 235.01, 381.04 154.07 M259.29 298.54 C287.13 266.72, 317.11 233.63, 380.95 160.74 M259.35 297.73 C292.44 259.42, 326.2 220.58, 381.51 159.19 M267.09 298.49 C306.08 252.41, 342.31 209.89, 380.65 165.16 M265.32 297.41 C309.89 248.2, 353.42 195.21, 381.72 166.33 M269.41 299.5 C296.97 271.47, 318.46 240.67, 382.34 171.71 M270.16 299.16 C308.38 253.88, 348.6 208.64, 381.42 171.9 M275.41 298.98 C315.35 253.94, 356 207.69, 380.95 177.49 M275.72 298.7 C318.26 252.06, 357.76 204.86, 381.18 177.33 M280.15 299.24 C313.96 257.47, 347.72 219.41, 381.65 184.06 M281.08 298.71 C313.99 260.73, 347.82 220.9, 381.57 184.14 M287.47 299.76 C323.52 258.49, 356.73 218.79, 382.21 190.36 M286.9 297.75 C309.04 271.3, 332.06 245.24, 380.86 189.56 M290.58 297.43 C325.33 256.4, 360.89 217.23, 381.47 197.02 M291.29 299.1 C325.37 260.66, 361.14 219.67, 380.9 195.47 M299.01 298.79 C319.09 273.71, 339.98 249.93, 381.72 203.31 M298.2 297.63 C328.62 263.46, 358.91 227.56, 380.84 201.93 M303.14 300.34 C323.89 275, 346.9 250.35, 380.42 207.68 M303.28 298.73 C319.22 277.47, 337.79 257.21, 380.29 208.38 M308.51 297.43 C323.91 281.6, 339.58 260.83, 382.08 216.24 M307.6 299.85 C330.78 271.77, 353.37 245.16, 380.48 214.75 M311.63 296.88 C332.68 276.59, 350.84 257.76, 380.51 219.76 M312.84 297.69 C338.36 268.76, 362.68 240.38, 381.95 219.07 M319.76 297.39 C333.73 279.2, 351.44 262.23, 379.34 225.94 M318.38 299.32 C331.97 281.94, 347.62 263.5, 380.47 226.33 M325.24 298.58 C342.15 274.94, 362.9 255.1, 382.43 232.37 M323.08 297.76 C340.35 278.74, 356.63 259.71, 380.73 232.16 M330 297.26 C342.22 280.56, 359.83 263.75, 381.56 239.06 M329.14 298.93 C340.27 286.02, 353.07 271.78, 381.49 237.88 M332.54 299.62 C343.36 285.57, 354.69 276.7, 380.27 244.96 M334.44 298.42 C345.38 285.84, 356.2 273.9, 380.78 245.71 M340.46 297.52 C352.82 283.66, 364.37 267.85, 380.17 248.89 M338.45 298.49 C354.48 280.49, 369.83 262.56, 381.54 250.3 M345.45 296.75 C356.85 284.57, 369.13 269.9, 381.47 257.88 M344.63 298.82 C358.18 281.67, 372.44 266.71, 381.58 257.71 M351.77 297.27 C359.18 288.14, 367.3 278.79, 381.32 264.1 M350.23 299.49 C359.34 288.06, 367.02 278.07, 381.24 262.95 M355.29 297.41 C361.84 292.88, 367.09 281.78, 381.55 269.37 M354.71 297.79 C364.74 288.43, 372.94 276.93, 380.58 269.12 M359.93 298.21 C366.38 289.67, 375.23 283.22, 380.51 273.7 M359.65 299.13 C366.27 294.02, 369.95 287.49, 380.53 274.58 M364.74 299.61 C369.61 291.6, 374.3 286.41, 379.38 280.25 M367.05 297.88 C369.58 294.49, 374.15 289.22, 380.57 280.54 M372 297.21 C373.74 296.8, 374.44 293.13, 382.21 287.55 M371.2 298.38 C373.75 294.2, 378.56 290.08, 380.72 287.79 M376.45 298.82 C378.34 296.96, 379.74 295.24, 380.6 294.07 M376.88 298.6 C377.89 297.05, 378.8 296.13, 380.72 293.56" stroke="#228be6" stroke-width="0.5" fill="none"></path><path d="M1.17 0.83 C103.67 -0.37, 208.6 0.67, 379.77 -0.73 M0.56 -0.23 C124.22 -0.01, 248.07 0.2, 379.41 -0.44 M380.01 -0.69 C377.31 105.72, 378.08 210.24, 380.46 298.8 M379.65 -0.35 C379.15 99.69, 379.59 200.32, 380.54 298.88 M380.55 299.58 C298.35 299.49, 214.72 299.42, 0.85 297.77 M379.81 298.07 C273.46 300.53, 167.84 300.45, -0.25 298.24 M-1.27 299.14 C-1.06 231.19, -0.55 160.63, -0.37 -1.17 M0.56 299.13 C-2 196.33, -0.83 93.73, -0.38 -0.15" stroke="#000000" stroke-width="1" fill="none"></path></g><g transform="translate(130 187.39209281836966) rotate(0 70 23)"><text x="70" y="32" font-family="Virgil, Segoe UI Emoji" font-size="36px" fill="#000000" text-anchor="middle" style="white-space: pre;" direction="ltr">'Anurag'</text></g><g transform="translate(114 375.59209739600635) rotate(0 80 23)"><text x="0" y="32" font-family="Virgil, Segoe UI Emoji" font-size="36px" fill="#000000" text-anchor="start" style="white-space: pre;" direction="ltr">username</text></g><g stroke-linecap="round" transform="translate(570.9500122070312 59.04209434424857) rotate(0 366.3999938964844 134.4000015258789)"><path d="M0 0 C0 0, 0 0, 0 0 M0 0 C0 0, 0 0, 0 0 M-0.3 5.98 C0.89 4.29, 2.84 2.63, 5.07 -0.4 M-0.24 6.56 C1.33 4.77, 3.18 2.36, 5.12 0.47 M0.16 11.45 C3.87 8.83, 6.79 2.75, 10.98 -1.2 M-0.08 12.07 C4.49 8.21, 7.97 3.1, 9.84 -0.49 M0.46 19.42 C4.12 14.76, 7.65 10.26, 14.48 1.06 M-0.62 17.59 C5.52 12.42, 10.64 3.96, 15.43 0.43 M-1.43 23.88 C8.62 15.5, 15.27 4.23, 20.92 1.41 M-0.18 24.79 C5.51 17.06, 12.78 10.19, 20.85 -0.82 M0.33 31.09 C5.3 23.6, 15.98 14.62, 27.96 -1.13 M-0.24 29.63 C9.74 19.69, 18.29 11.38, 27.08 -0.29 M-1.82 36.15 C7.77 26.1, 16.98 16.34, 32.68 0.43 M0.39 36.34 C10.15 25.5, 20.36 13.55, 32.39 -0.26 M-0.49 42.87 C8.1 31.42, 17.82 22.26, 36.73 0.57 M0.34 42.88 C12.72 27.97, 27.02 11.32, 37.78 -0.14 M-1.12 47.78 C9.59 36.61, 20.9 24.4, 41.78 0.95 M0.65 48.32 C17.27 30.67, 34.48 11.68, 43.11 0.58 M0.91 52.62 C15.57 38.53, 31.73 19.99, 46.52 -1.77 M0.2 54.62 C10.26 42.14, 20.88 28.4, 46.7 -0.46 M1.25 60.1 C16.96 41.71, 32.35 22.52, 54.23 -0.27 M-0.63 61.9 C19.34 39.85, 37.97 16.97, 53.52 0.53 M1.43 66.36 C14.91 48.56, 31.57 29.33, 57.68 -0.72 M-0.53 68.18 C21.1 41.85, 44.01 16.13, 58.73 0.73 M1.13 73.03 C14.75 55.5, 32.09 38.19, 62.7 0.88 M-0.32 72.82 C24.19 44.87, 49.59 17.67, 63.86 -0.26 M-1.49 79.19 C13.87 62.45, 30.08 44.61, 69.17 -1.48 M-0.06 79.93 C13.61 62.28, 27.97 45.95, 68.42 0.74 M0.99 85.89 C20.66 61.75, 38.85 43.04, 74.48 -0.1 M0.4 84.14 C28.76 52.62, 56.8 21.3, 74.03 -0.35 M-1.7 91.87 C21.96 65.13, 41.24 40.17, 78.58 -1.84 M-0.91 91.84 C19.44 69.59, 38.33 47.8, 80.02 0.18 M1.27 98.11 C31.63 57.43, 66.16 19.54, 83.47 -0.34 M-0.64 96.96 C18.86 77.66, 36.55 55.89, 85.61 -0.97 M-1.81 103.78 C24.02 74.94, 49.27 47.39, 90.15 -0.26 M0.78 104.42 C31.58 68.51, 61.9 34.03, 89.47 0.97 M-0.99 110.26 C24.45 82.11, 46.74 55.66, 94.2 -1.58 M0.06 109.45 C21.07 85.63, 42.05 60.5, 95.9 -0.03 M2.23 113.65 C22.99 85.3, 47.67 59.9, 98.71 0.21 M0.53 115.5 C29.99 83.34, 59.55 49.41, 100.4 0.34 M-0.11 120.51 C41.39 74.24, 85.28 26.66, 105.83 -2.2 M-0.27 121.35 C35.95 80.13, 73.1 40.52, 105.85 -0.15 M0.41 128.37 C20.17 103.46, 42.27 75.48, 109.74 -0.14 M-1.09 128.98 C25.91 98.22, 49.47 70.26, 112.11 0.85 M0.88 133.68 C42.11 84.49, 86.79 35.72, 115.49 -0.46 M-0.08 134.95 C45.76 81.54, 90.71 28.57, 115.47 0.13 M-0.67 139.92 C37.59 94.95, 75.77 51.01, 123.33 -1.6 M0.12 139.8 C44.91 88, 90.84 33.92, 121.6 0.34 M1.59 145.96 C32.18 108.48, 67.82 69.26, 124.91 -1.49 M-0.13 145.87 C45.06 96.66, 88.78 45.45, 126.41 1.33 M-1.57 153.78 C42.9 104.14, 83.07 55.39, 134.03 -1.01 M0.11 152.48 C46.83 99.82, 93.49 47.12, 131.66 0 M-0.41 157.79 C48.23 101.73, 98.54 46.71, 136.57 -0.65 M-0.13 159.67 C41.11 112.16, 81.96 65.36, 137.99 -0.39 M-0.25 162.9 C43.34 113.64, 87.54 63.41, 143.63 -0.25 M-0.7 164.16 C35.34 126.51, 67.89 87.36, 142.47 0.27 M0.82 170.3 C41.35 123.56, 82.35 74.5, 147.83 0.72 M-0.11 171.34 C41.57 123.58, 82.99 76.61, 148.11 -0.53 M0.73 177.53 C60.26 110.54, 115.71 43.88, 155.48 -1.06 M1.11 176.99 C45.96 122.46, 91.95 70.68, 154.04 -0.8 M0.53 182.7 C38.13 137.86, 79.8 91.19, 159.1 1.46 M-0.39 183.05 C40.85 135.42, 80.39 89.24, 158.11 0.67 M0.56 190.58 C60.21 120.73, 118.53 54.57, 164.96 0.92 M-0.56 189.74 C48.51 131.23, 97.5 75.08, 164.44 -0.52 M0.54 196.36 C43.47 146.7, 85.82 98.01, 169.51 -0.07 M0.69 195.49 C54.12 134.63, 105.58 75.42, 168.89 0.86 M-0.64 202.63 C46.36 151.04, 92.12 95.46, 176.42 -0.43 M0.11 201.78 C62.11 129.1, 125.46 56.39, 174.94 -0.27 M1.38 205.77 C38.58 164.03, 75.43 119.16, 180.33 0.42 M-0.37 207.17 C47.88 151.58, 96.74 95.31, 179.41 0.61 M0.45 212.73 C52.73 153.04, 102.95 93.09, 186.5 1.25 M0.01 214.11 C58.35 147.41, 114.73 80.14, 186.36 -0.26 M-1.17 218.43 C50.26 162.04, 98.98 102.46, 191.64 0.2 M0.01 220.03 C58.36 153.04, 114.48 87.74, 190.07 -0.14 M0.43 224.86 C66.44 147.32, 135.42 70.53, 197.15 -0.74 M-0.23 224.97 C64.47 152.17, 128.75 79.55, 196.29 0.3 M-1.21 232.45 C59.23 161.84, 118.27 95.98, 202.5 -0.66 M-0.62 231.65 C53.63 169.91, 109.3 106.25, 200.95 -0.46 M1.02 236.33 C81.78 144.04, 160.68 50.91, 206.26 -1.27 M-0.32 238.03 C62.6 164.16, 126.74 90.89, 206.63 0.21 M0.84 244.99 C74.57 159.63, 146.19 78.08, 211.16 0.27 M0.55 244.32 C45.79 194.07, 90.37 142.72, 211.93 -0.02 M-0.61 250.61 C63.94 174.28, 131.04 98.6, 216.54 0.91 M-0.86 249.89 C62.35 179.97, 124.66 109.72, 217.48 -0.7 M-1.14 255.26 C51.54 198.6, 104.07 139.75, 223.24 -0.74 M-0.39 256.18 C58.46 188.8, 116.91 123.19, 222.67 -0.37 M-0.66 262.84 C76.27 175.99, 150.23 88.45, 229.39 -1.42 M-0.71 262.91 C49.13 205.62, 99.44 146.74, 228.7 -0.37 M-0.35 267.32 C85.24 172.55, 169.65 75.81, 232.34 0.47 M0.72 267.8 C72.34 185.43, 144.45 104.04, 232.7 0.6 M1.58 272.56 C73.59 190.82, 145.66 108.11, 239.46 1.07 M3.02 271.41 C54.12 212.81, 105.93 152.49, 238.05 0.73 M8.58 270.24 C74.95 194.58, 142.15 116.8, 244.57 -0.37 M7.69 271.44 C91.4 175.08, 174.78 79.13, 243.9 0.57 M14.36 272.5 C66.44 212.13, 117.31 153.47, 247.97 -0.82 M13.77 270.82 C82.52 191.26, 153.24 109.45, 248.96 0.89 M19.88 270.5 C96.21 180.4, 173.88 91.86, 254.72 -0.12 M18.8 271.43 C100.13 176.63, 183.01 81.45, 254.08 -0.57 M24.37 270.01 C78.43 209.13, 132.6 148.31, 260.72 1.05 M24.21 271.14 C74.31 212.83, 127.19 152.27, 260.08 0.17 M29.48 271.18 C123.23 163.79, 214.99 56.62, 264.42 -1.17 M29.65 271.22 C116.71 172.88, 202.27 73.89, 264.69 0.39 M35.44 270.66 C98.97 196.47, 162.8 124.7, 270.63 0.92 M34.68 271.63 C101.14 194.56, 166.33 119.95, 270.54 -0.02 M39.49 272.65 C123.51 177.56, 205.93 82.66, 276.92 -1.2 M40.11 271.56 C87.33 213.87, 136.13 157.6, 275.72 -0.1 M45.46 271.98 C104.5 202.81, 161.34 137.21, 279.91 0.26 M45.32 271.12 C110.51 193.89, 177.12 116.34, 280.53 0.05 M50.57 272.66 C102.37 213.02, 153.82 152.64, 287.02 -0.87 M50.61 271.77 C101.53 213.42, 151.07 156.61, 286.94 0.31 M56.5 271.11 C108.01 211.2, 158 151.57, 292.41 0.14 M56.06 270.51 C147.09 165.01, 239.99 59.92, 291.33 -0.35 M60.53 270.83 C113.56 214.5, 162.47 155.48, 296.26 -1.2 M60.63 271.7 C117.46 207.06, 173.56 141.9, 296.67 -0.28 M67.24 269.89 C122.37 206.77, 177.59 141.58, 300.99 1.23 M66.66 271.58 C133.92 193.1, 202.03 115.72, 301.46 0.16 M72.05 270.66 C141.54 190.84, 214.07 107.73, 307.81 -1.08 M71.41 271.33 C143.53 190.5, 213.58 110.49, 308.1 -0.39 M78.01 272.27 C144.7 193.1, 214.18 112.97, 312.85 1.27 M76.65 270.55 C166.59 166.24, 256.4 62.46, 313.08 -0.03 M81.86 270.22 C136.91 208.71, 189.67 146.6, 318.93 0.19 M81.44 271.42 C155.03 187.23, 227.95 102.09, 317.88 -0.24 M88.29 271.67 C175.39 172.39, 262.86 73.52, 324.15 0.13 M87.91 270.86 C140.76 211.47, 192.99 150.64, 323.03 -0.39 M93.44 272.23 C160.12 190.93, 229.69 110.91, 328.53 0.4 M92.81 271.07 C173.64 177.16, 254.67 84.75, 328.8 -0.5 M99.2 271.27 C144.37 215.11, 193.76 159.4, 332.74 -0.15 M98.33 270.41 C167.79 192.16, 234.17 114.78, 334.34 0.41 M104.3 271.44 C194.88 166.5, 285.83 60.31, 339.71 -0.53 M103.64 271.44 C194.79 167.54, 285.49 62.43, 339.66 0.27 M108.46 271.29 C185.22 184.87, 259.23 99.23, 345.74 -0.5 M109.4 270.48 C198.97 166.22, 288.55 63.86, 344.75 -0.54 M113.64 272.31 C195.32 176.24, 277.66 82.62, 349 0.21 M114.35 270.75 C198.71 174.1, 282.99 76.61, 349.66 0.02 M120.54 271.57 C210.34 168.79, 302.22 62.72, 354.16 0.31 M119.85 270.65 C176.98 205.28, 234.85 139.2, 355.61 -0.24 M124.84 271.32 C215.6 165.17, 307.46 58.78, 359.07 0.24 M125.17 271.84 C201.48 184.73, 277.34 98.16, 359.77 0.34 M131.41 271.57 C190.11 201.12, 250.75 131.23, 365.92 0.59 M130.78 271.32 C211.46 178.69, 292.26 84.29, 365.52 0.09 M135.35 272.16 C205.22 188.11, 278.08 107.47, 369.77 -0.95 M134.89 270.77 C197.85 201.92, 257.87 132, 371.34 0.84 M141.26 270.33 C223.21 172.28, 307.77 77.94, 375.37 0.76 M140.54 271.19 C207.4 190.53, 275.77 112.68, 376.7 0.03 M146.81 270.49 C202.79 204.81, 258.39 141.93, 380.71 0.03 M145.87 270.79 C212.8 192.44, 280.36 115.33, 381.1 -0.03 M151.27 272.33 C211.45 198.98, 273.6 127.39, 386.15 0.85 M150.45 271.83 C198.55 216.17, 248.07 158.81, 387.37 0.01 M157.47 271.75 C230.4 184.02, 306.14 97.98, 393.19 1.14 M156.49 270.9 C217.77 201.16, 277.44 132.48, 391.92 0.76 M161.18 271.77 C240.42 179.92, 320.56 85.99, 398.45 0.53 M161.04 272.09 C246.86 171.07, 333.15 70.86, 398.09 0.02 M167.23 270.82 C220.86 207.98, 272.94 144.25, 402.55 -0.09 M167.47 270.93 C248.8 179.13, 329.4 86.68, 402.66 0.79 M172.99 272.35 C247.35 188.39, 319.2 102.78, 409.11 -0.98 M171.94 271.38 C258.68 173.42, 342.04 75.75, 407.94 -0.38 M177.64 272.35 C233.63 208.3, 288.8 142.17, 413.41 1.09 M178.05 271.55 C239.64 200.22, 301.34 128.53, 413.28 -0.3 M183.38 271.53 C247.9 197.99, 310.4 124.72, 419.13 0.25 M183.27 271.75 C256.31 186.85, 329.5 103, 418.35 -0.81 M189.42 270.42 C273.83 170.39, 359.71 72.13, 424.44 -1.11 M188.55 270.44 C246.44 201.45, 307.12 131.57, 423.51 0.51 M193.24 271.44 C257.51 198.95, 322.44 123.84, 428.65 0.15 M193.64 270.98 C257.76 195.09, 323.42 118.37, 429.28 -0.05 M199.83 271.41 C247.15 213.14, 298.22 157.21, 433.45 -0.17 M199.08 271.2 C268 191.02, 337.41 110.85, 434.17 -0.52 M205.14 271.29 C287.84 175.55, 372.37 77.27, 439.47 -0.71 M204.03 271.49 C265.11 202.06, 325.89 131.55, 440.49 0.16 M210.38 271.17 C289.38 179.43, 370.12 87.14, 444.97 -0.15 M209.57 270.66 C276.94 192.14, 344.34 115.03, 444.59 0.02 M215.68 272.42 C290.44 183.97, 367.62 96.84, 449.99 0.42 M215.22 271.48 C301.48 172.7, 387.22 73.8, 450.28 0.14 M219.13 270.2 C287.75 191.19, 357.35 112.58, 455.06 -0.42 M219.73 271.54 C282.75 200.25, 345.27 128.19, 455.2 0.03 M225.68 270.73 C304.08 179.32, 384.83 85.58, 460.28 0.8 M225.24 271.24 C285.24 201.61, 344.79 133.4, 461.8 -0.17 M230.92 271.16 C316.84 173.63, 402.66 76.7, 466.53 -0.73 M230.37 271.05 C326.54 163.89, 420.09 55.76, 466.22 -0.46 M235.07 271.82 C313.89 178.28, 394.76 86.31, 471.39 0.59 M235.73 271.88 C306.68 188.57, 376.62 107.86, 471.05 0.72 M242.06 271.24 C292.54 211.1, 346.49 150.27, 476.2 -1.25 M242.07 271.05 C332.1 166.9, 422.26 62.89, 477.65 -0.63 M245.48 270.78 C300.34 206.84, 354.24 146.2, 482.97 -0.18 M246.87 271.56 C297.86 210.13, 351.54 148.68, 482.11 0.33 M253.1 269.75 C325 183.64, 402.06 96.55, 487.69 0 M252.69 270.42 C312.28 201.76, 372.27 133.68, 488.06 -0.05 M257.63 272.46 C326.17 192.42, 393.7 114.63, 491.79 0.39 M257.37 271.78 C320.62 197.06, 385.21 123.13, 493.08 0.56 M263.71 270.7 C321.97 200.74, 384.45 130.93, 498.62 -0.47 M262.43 271.41 C348.84 170.57, 435.06 70.78, 498.33 -0.03 M268.85 271.14 C353.85 173.08, 436.83 75.9, 502.04 0.53 M268.29 271.1 C318.72 210.46, 371.36 150.6, 503.82 0.85 M272.01 270.85 C325 213.83, 376.57 153.95, 508.31 1.07 M273.17 271.52 C323.5 211.94, 374.82 152.42, 509.16 0.24 M278.12 270.86 C336.25 203.96, 397.99 134.73, 514.5 0.59 M277.94 271.42 C367.37 170.67, 455.2 68.3, 513.96 0.19 M282.32 271.89 C366.73 177.58, 447.33 83.32, 520.27 0.34 M283.49 271.88 C337.01 208.03, 391.15 145.98, 519.78 -0.15 M288.64 270.19 C371.54 175.09, 453.02 81.75, 524 0.52 M289.5 271.69 C377.37 170.01, 465.1 69.13, 524.21 -0.3 M293.55 272.31 C375.89 177.12, 460.28 78.77, 529.52 0.27 M293.6 271.65 C379.47 175.8, 463.11 78.83, 530.48 0.01 M300.2 269.85 C347.95 217.96, 394.89 161.53, 534.63 -0.12 M299.63 271.68 C390.05 165.5, 481.28 60.47, 535.1 0.02 M304.44 272 C384.46 182.42, 461.57 89.94, 540.36 0.85 M304.17 271.33 C370.49 195.12, 436.82 118.32, 541.36 0.2 M309.16 270.15 C384.71 182.96, 463.06 95.42, 544.56 0.39 M309.86 270.73 C386.86 183.35, 463.32 95.44, 545.67 0.13 M315.35 270.43 C393.48 180.51, 471.68 89.5, 551.15 -0.84 M315.69 271.01 C369.25 211.06, 422.16 150.18, 551.05 -0.5 M321.18 271.01 C369.55 215.19, 417.48 158.55, 556.14 0.82 M321.51 271.54 C369.28 213.5, 419.2 156.64, 556.03 -0.19 M325.79 271.78 C413.01 169.99, 500.1 67.64, 561.91 -0.53 M325.88 271.57 C404.01 179.82, 484.37 88.64, 561.79 -0.95 M330.89 271.96 C404.15 187.66, 475.49 104.17, 568.33 -0.48 M331.9 271.3 C380.36 213.46, 429.38 157.4, 567.39 -0.3 M336.93 272.19 C394.66 203.83, 453.33 136.8, 571.8 0.59 M336.11 270.96 C405.5 192.46, 475.43 113.93, 573.08 -0.41 M342.19 272.12 C400.71 203.27, 461.55 135.61, 576.66 -0.43 M341.96 270.59 C395.48 212.44, 447.17 151.75, 578.18 -0.03 M346.53 272.49 C421.73 188.4, 493.6 103.49, 583.5 -0.85 M347.51 271.73 C418.48 187.86, 490.38 103.72, 582.32 0.88 M353.04 270.22 C406.44 207.93, 461.44 147.6, 588.51 1.07 M352.44 270.8 C415.66 197.88, 479.89 125.29, 587.93 0.38 M356.56 270.59 C427.77 193.3, 497.58 110.77, 593.19 -0.72 M357.23 270.95 C434.22 184.77, 510.46 97.98, 593.71 0.01 M363.07 269.67 C410.21 216.68, 458.33 164.15, 600.18 1.2 M363.85 270.36 C437.67 186.22, 510.6 102.35, 598.51 0.25 M368.1 271.59 C439.05 191.32, 508.39 110.49, 604.37 -0.66 M368.56 271.58 C416.38 214.86, 466.17 158.72, 604.25 -0.33 M373.57 270.94 C445.12 186.53, 516.78 105.5, 609.7 -0.7 M374.01 271.06 C429.56 206.68, 485.08 141.22, 609.04 -0.27 M378.85 270.06 C469.69 168.66, 560.03 66.07, 615.22 -0.91 M379.52 271.06 C468.01 170.98, 556.58 68.78, 615.18 0.12 M384.29 272.33 C440.88 209.44, 494.05 143.51, 619.25 -0.63 M383.66 271.21 C450.11 196.54, 514.21 123.34, 619.73 -0.2 M390.68 270.33 C481.48 166.18, 569.47 63.31, 625.62 0.45 M389.2 271.5 C472.87 173.4, 556.81 76.35, 625.02 -0.1 M393.57 272.02 C455.19 202.04, 516.48 131.26, 630.17 -0.07 M394.06 271.49 C478.17 172.36, 562.66 75.22, 630.56 -0.27 M399.52 271.23 C471.92 187.61, 544.43 105.16, 637.1 -0.17 M400.29 270.75 C453.04 213.13, 504.19 155.11, 635.89 -0.34 M404.49 272.57 C458.31 210.27, 511.67 149.84, 640.37 -0.87 M405.55 271.86 C497.06 164.97, 588.79 59.62, 641.35 -0.36 M410.61 271.23 C487.06 185.05, 560.58 99.75, 645.22 0.89 M411.48 271.28 C494.83 172.76, 579.54 75.56, 645.9 -0.4 M414.84 270.35 C492.07 184.99, 568.17 95.37, 651.98 -0.23 M416.42 271.13 C502.56 170.82, 589.21 70.69, 651.69 -0.8 M420.66 270.92 C506.88 172.88, 590.83 75.08, 657.38 -0.74 M421.27 271.36 C495.68 188.84, 568.94 103.85, 656.77 -0.5 M426.64 271.44 C507.07 178.15, 589.1 84.81, 663.72 -0.8 M426.01 271.43 C484.51 203.9, 543.43 136.29, 662.25 0.19 M433.14 270.5 C512.79 180.44, 594.54 85.11, 667.43 0.34 M431.75 271.32 C509.28 181.16, 586.94 91.22, 667.51 -0.03 M435.94 271.42 C489.72 211.59, 543.07 151.56, 673.42 -0.55 M437.27 271.94 C508.25 188.8, 579.61 106.15, 673.52 0.13 M443.05 269.75 C523.73 176.91, 605.84 83, 678.48 -1.03 M442.29 271.07 C493.04 211.14, 543.95 152.51, 678.15 -0.11 M448.08 270.52 C510.41 199.45, 574.87 123.63, 683.12 -0.42 M447.88 271.4 C528.74 176.8, 608.63 84.03, 684.5 -0.07 M454.65 270.64 C502.68 210.36, 556 153.3, 690.23 -0.26 M453.33 271.37 C520.76 193.06, 588.1 115.28, 688.58 0.28 M457.36 271.12 C547.4 170.09, 635.27 70.61, 694 0.85 M457.86 271.93 C529.75 187.91, 602.46 105.48, 694 0.06 M463.7 272.16 C553.77 170.19, 638.73 70.3, 698.97 -0.76 M463.83 271.25 C512.52 216.56, 558.8 162.35, 699.7 0.43 M469.92 270.12 C558.77 168.35, 647.24 67.02, 705.7 -0.25 M469.57 271.4 C530.03 200, 591.24 129.77, 705.05 0.03 M475.28 270.38 C564.26 164.64, 655.42 60.03, 710.28 -1.25 M475.11 270.58 C556.26 179.7, 636.86 86.86, 709.73 0.47 M480.85 271.65 C552.08 190.29, 623.9 107.06, 716.42 0.29 M480.1 271.05 C528.26 215.6, 576.97 158.82, 714.85 0.46 M485.96 271.15 C537.61 210.67, 590.15 149.66, 721.24 -0.86 M485.73 271.33 C538.19 209.28, 590.35 148.59, 720.47 0.1 M489.47 271.81 C568.15 181.25, 648.01 89.44, 726.6 0.71 M490.13 271.67 C558.13 193.93, 625.74 116.37, 726.01 0.01 M496.49 269.72 C590.11 160.58, 683.98 52.69, 730.6 0.87 M496.61 271.25 C566.35 190.17, 637.42 108.02, 730.97 -0.17 M501.83 271.41 C555.92 209.55, 611.37 145.12, 735.13 2.19 M501.44 271.11 C584.88 175.19, 667.83 80.27, 735.26 1.43 M506.15 271.91 C554.18 215.34, 602.76 161.41, 734.09 7.23 M506.55 272.19 C588.64 176.65, 669.91 83.97, 735.46 8.07 M510.34 270.81 C584.78 188.54, 657.63 106.67, 736.08 12.96 M511.78 270.52 C556.9 217.75, 603.67 164.54, 735.05 13.32 M517.87 270.61 C583.54 195.1, 651.1 118.67, 735.26 21.12 M516.02 272.02 C578.04 199.12, 641.26 127, 735.22 19.92 M522.01 269.98 C586.82 201.57, 648.36 129.63, 733.7 27.34 M522.53 270.73 C600.92 178.41, 679.97 86.71, 735.44 26.29 M526.29 270.96 C593.59 194.21, 661.34 116.45, 736.04 32.77 M527.4 271.71 C600.67 188.48, 673.46 104, 734.51 32.13 M532.51 271.31 C575.82 222.27, 617.44 172.26, 734.91 39.52 M532.19 270.78 C595.91 198.83, 659.22 124.51, 734.97 38.82 M536.69 271.74 C588.28 211.84, 638.61 154.63, 736.78 43.57 M538.13 271.01 C599.28 199.12, 661.32 129.25, 735.66 44.81 M544.68 271.14 C600.28 202.29, 660.06 135.14, 735.55 50.78 M543.27 270.5 C586.28 223.67, 627.84 175.97, 735.5 51.12 M548.02 271.05 C598.72 213.88, 646.62 157.86, 736.17 58.43 M548.02 272.13 C600.2 211.13, 651.58 152.25, 734.41 56.78 M554.59 270.93 C624.54 191.35, 690.44 114.8, 736.68 61.26 M553.78 270.76 C589.96 228.99, 626.83 186.65, 735.07 62.04 M558.03 272.51 C610.6 212.02, 662.54 153.71, 733.69 67.57 M559.8 270.79 C607.04 214.8, 658.2 158.25, 735.54 68.49 M566.21 271.88 C631.41 193.33, 699.71 115.73, 735.23 73.84 M564.38 270.37 C618.25 208.66, 673.82 146.55, 735.98 74.53 M569.49 270 C610.29 227.31, 649.13 179.14, 735.28 81.27 M569.79 271.3 C619.98 215.2, 669.06 158.23, 735.61 80.77 M576.35 271.53 C621.74 216.84, 668.52 164.2, 735.82 88.71 M575.57 270.71 C629.27 207.2, 684.48 142.48, 734.96 87.17 M581.05 272.81 C639.19 203.66, 697.97 136.44, 733.81 93.08 M580.29 271.26 C614.47 231.07, 647.58 192.07, 734.52 93.11 M587 269.95 C641.94 206.14, 700.24 139.09, 734.38 99.76 M585.95 271.09 C618.6 234.84, 649.64 199.44, 735.24 98.8 M589.99 270.15 C639.45 215, 689.21 156.35, 733.9 105.51 M590.14 270.81 C632.52 225.64, 671.11 179.44, 735.4 106.08 M595.72 270.21 C641.15 217.91, 686.8 164.44, 733.47 112.56 M597.15 270.09 C644.53 216.33, 692.83 160.68, 734.51 111.74 M602.73 270.71 C647.09 216.05, 694.44 162.32, 735.3 118.03 M601.35 271.31 C632.61 235.63, 664.43 200.17, 735.44 118.66 M605.61 271.67 C657.49 214.55, 705.79 156.87, 735.54 124.83 M607.13 270.94 C651.91 221.76, 694.29 172.4, 736.16 123.46 M610.35 272.78 C659.34 217.88, 702.62 166.17, 734.78 130.85 M612.22 271.85 C656.43 216.28, 702.6 163.69, 735.14 130.42 M618.97 273.55 C661.56 222.8, 704 170.03, 734.37 136.78 M616.34 271.77 C652.21 233.91, 684.85 193.98, 735.92 136.21 M621.03 269.46 C664.92 222.47, 702.35 177.6, 736.85 142.03 M622.38 270.49 C660.3 226.97, 697.99 184.48, 734.38 142.61 M626.02 272 C655.48 241.06, 680.2 208.57, 732.92 149.23 M627.21 271.29 C652.62 241.35, 676.69 212.75, 734.18 148.49 M634.24 273.1 C656.17 245.38, 681.55 216.75, 733.7 152.19 M633.18 270.74 C659.85 240.71, 685.02 210.14, 735.73 153.18 M637.77 272.91 C674.28 226.78, 711.95 184.77, 734.99 159.97 M637.78 271.9 C671.51 231.47, 705.21 193.01, 735.06 159.85 M643.96 271.52 C668.04 246.02, 691.81 216.95, 736.14 165.32 M643.69 271.39 C665.15 247.15, 687.63 221.6, 735.32 165.35 M648.48 272.77 C676.58 244.04, 697.31 213.71, 737.02 172.45 M648.47 270.56 C678.14 237.91, 706.57 204.72, 734.4 173.39 M654.78 271.91 C680.24 242.16, 702.56 215.83, 732.9 177.55 M654.65 270.56 C676.91 243.09, 699.08 217.67, 734.36 178.38 M659.08 271.45 C677.3 250.77, 697.05 230.13, 734.71 184.73 M659.37 271.52 C678.09 250.84, 694.88 230.98, 734.39 184.8 M665.92 272.82 C691.86 239.51, 721.15 209.65, 733.33 190.12 M664.49 271.66 C688.59 242.17, 714.35 213.86, 735.68 190.6 M669.1 272.2 C691.32 249.34, 712.86 224.32, 734.42 198.25 M670.25 272.38 C697.03 242.19, 722.54 211.51, 734.9 197.05 M675.23 272.19 C695.03 249.16, 712.87 229.41, 735.44 201.9 M675.35 271.42 C694.96 248.06, 715.34 226.34, 735.84 203.9 M680.69 269.64 C696.39 253.42, 714.09 231.31, 736.47 210.56 M680.6 272.01 C698.59 252.4, 715.07 232.79, 734.84 209.2 M687.17 271.33 C698.7 260.21, 706.73 245.17, 736.51 214.4 M687.03 271.91 C697.5 260.06, 706.27 247.63, 735.75 214.73 M690.64 269.78 C703.94 257.67, 715.26 245.39, 733.76 220.35 M691.55 270.63 C700.95 258.39, 710.55 247.64, 734.78 221.35 M696.85 270.93 C706.67 260.2, 714.66 250.54, 736.45 228.49 M697.04 270.47 C710.78 254.96, 722.59 241.75, 736 226.87 M702.35 269.98 C711.63 260.46, 722.23 246.62, 735.85 231.93 M701.96 271.75 C712.52 261.38, 720.67 249.74, 734.98 233.18 M705.98 271.05 C715.93 263.93, 721.9 252.11, 733.13 241.18 M708.55 271.79 C718.72 258.97, 730.02 246.22, 734.22 240.14 M713.86 270.99 C722.79 263.72, 730.77 252.18, 735.6 244.23 M712.36 272.19 C721.52 261.52, 730.52 249.92, 736.08 244.92 M718.91 271.11 C723.09 263.58, 732.98 256.99, 733.02 250.56 M718.44 271.84 C725.2 262.7, 730.41 255.73, 735.68 251.43 M722.09 272.68 C727.5 265.82, 729.95 261.07, 735.64 260.04 M723.05 271.98 C727.93 266.36, 730.78 262.19, 733.87 258.8 M729.83 270.43 C731.42 269.26, 731.2 268.24, 735.17 264.2 M729.23 270.42 C730.56 269.42, 732.32 267.51, 735.23 263.65" stroke="#228be6" stroke-width="0.5" fill="none"></path><path d="M0.68 -0.79 C200.72 -1.84, 402.21 -3.35, 732.64 -0.22 M-0.08 -0.39 C260.98 2.2, 522.36 2.44, 732.86 -0.38 M732.49 -1.08 C733.94 86.24, 735.17 170.14, 733 269.26 M733.05 -0.43 C734.06 78.91, 733.56 157.68, 733.14 269 M732.7 268.45 C493.49 270.28, 255.28 270.61, -0.29 268.99 M732.56 268.41 C514.95 271.17, 297.37 271.57, -0.03 269.03 M0.46 268.35 C0.54 212.42, -1.12 153.77, 1.01 1.07 M-0.27 269.02 C1.85 197.89, 1.8 127.08, 0.45 -0.07" stroke="#000000" stroke-width="1" fill="none"></path></g><g transform="translate(717.25 174.14208518897513) rotate(0 70 23)"><text x="0" y="32" font-family="Virgil, Segoe UI Emoji" font-size="36px" fill="#000000" text-anchor="start" style="white-space: pre;" direction="ltr">'Anurag'</text></g><g transform="translate(876.6295572916667 348.19767691351217) rotate(0 84.5 23)"><text x="0" y="32" font-family="Virgil, Segoe UI Emoji" font-size="36px" fill="#000000" text-anchor="start" style="white-space: pre;" direction="ltr">userIntro</text></g><g stroke-linecap="round" transform="translate(1497.8571777343743 67.21634532463705) rotate(0 140.5714634486609 140.5714634486609)"><path d="M0 0 C0 0, 0 0, 0 0 M0 0 C0 0, 0 0, 0 0 M0.53 6.09 C1.72 3.78, 3.9 2.43, 4.3 0.53 M-0.41 6.24 C1.04 4.28, 3.16 2.9, 4.62 0.52 M0.99 13.04 C3.95 9.05, 8.58 4.02, 11.85 0.19 M-0.57 11.41 C3.05 8.01, 5.32 6.24, 10.31 -0.74 M-1.55 19.58 C4.37 10.67, 12.91 4.52, 13.66 0.62 M-0.66 18.5 C4.95 12.74, 9.67 6.28, 16.25 1.26 M1.29 22.97 C9.05 14.97, 12.97 9, 20.38 0.31 M0.9 23.35 C5.86 16.3, 12.59 10.24, 21.44 -0.5 M0.63 30.93 C7.1 21.77, 13.14 16.89, 28.2 -1.58 M0.66 29.51 C5.86 24.19, 10.86 16.85, 26.5 0.27 M1.26 36.36 C8.54 29.16, 16.33 15.81, 31.76 -1.51 M0.31 36.64 C6.88 27.87, 15.3 17.47, 31.6 -0.67 M2.11 41.62 C8.53 31.8, 17.64 24.03, 37.53 0.31 M-0.58 41.75 C9.23 31.33, 18.27 22.27, 36.02 0.92 M0.58 50.55 C17.8 32.06, 31.02 13.78, 43.25 -0.41 M0.28 48.53 C8.94 38.67, 19.42 27.24, 42.28 0.86 M-0.65 52.95 C17.91 33.54, 36.44 11.45, 46.95 -0.21 M-0.56 55.27 C12.26 41.45, 26.08 25.94, 47.74 -0.33 M-0.62 60.32 C14.58 44.46, 28.06 27.77, 54.45 -0.21 M-0.7 59.96 C12.22 46, 25.43 30.76, 52.74 -0.3 M-1.21 66.37 C20.41 45.15, 37.93 24.07, 56.36 1.73 M-0.43 68.18 C21.02 42.57, 42.84 16.81, 58.23 0.28 M1.08 71.02 C18.53 52.31, 36.05 31.39, 63.58 -1.34 M0.21 72.46 C17.02 52.68, 34.44 32.71, 63.9 0.79 M-0.54 80.43 C21.08 53.21, 46.39 26.4, 68.3 -1.62 M0.3 79.66 C18.82 57.16, 37.48 35.13, 67.79 -0.17 M-0.3 83.42 C29.69 52.18, 59.19 20.15, 75.49 -0.87 M-0.46 84.84 C29.14 51.12, 57.04 18.19, 74.4 0.35 M1.06 91.31 C17.99 70.22, 38.2 44.91, 79.92 1.37 M-0.15 92.43 C28.24 58.92, 57.07 26.79, 80.37 0.73 M-0.76 98.37 C20.18 72.19, 43.5 46.77, 85.64 -0.49 M-1.15 98.02 C19.66 75.37, 37.3 55.12, 84.54 -0.07 M-1.44 101.83 C31.28 70.57, 59.07 36.61, 91.01 1.69 M0.78 103.8 C34.41 64.52, 67.94 26.43, 89.63 0.65 M0.31 109.89 C33.45 70.22, 66.39 32.56, 96.14 1.49 M-0.63 109.93 C30.41 74.27, 60.34 39.07, 96.33 0.4 M1.55 114.18 C39.4 72.24, 75.57 28.6, 99.97 1.72 M-0.65 116.38 C36.6 72.4, 74.75 28.95, 100.92 0.64 M0.14 121.58 C34 79.21, 70.51 39.96, 107.7 -1.87 M0.03 122.1 C38.54 77.29, 78.25 32.81, 105.44 -0.08 M1.59 126.66 C37.65 83.6, 73.79 42.11, 111.84 -0.8 M-1.18 128.84 C41.44 81.79, 80.94 35.31, 111.26 1.01 M-0.71 135.71 C43.7 82.74, 90.56 31.74, 115.01 -1.39 M0.1 134.6 C43.05 84.68, 85.86 35.3, 116.6 0.74 M-1.15 138.72 C46.85 87.19, 95.97 31.04, 122.27 -0.74 M0.14 140.92 C33.62 101.8, 66.84 62.88, 121.38 -0.59 M0.9 145.89 C40.76 101.36, 76.14 59.88, 125.36 1.25 M0.56 146.82 C38.03 102.69, 75.73 59.99, 126.18 0.14 M-1.67 151.5 C25.98 120.94, 55.81 87.02, 133.46 -1.45 M-0.02 151.96 C47.52 98.43, 96.07 43.93, 131.77 0.7 M-1.7 157.98 C29.91 124.78, 56.39 90.82, 138.55 1.78 M-0.55 158.29 C55.81 94.13, 109.38 31.77, 138.19 0.92 M-0.38 164.4 C41.74 114.98, 84.99 65.04, 142.68 0.4 M-0.59 163.77 C34.11 127.34, 64.46 90.38, 142.36 -0.53 M0.51 170.57 C34.84 128.14, 71 86.98, 146.49 -0.52 M0.24 171.26 C42.19 119.79, 85.6 70.52, 147.44 0.66 M1.56 176.72 C44.61 124.95, 90.33 73.9, 153.07 0.61 M0.73 177.24 C56.7 109.2, 116.39 41.86, 153.01 0.7 M-0.97 184.1 C40.36 137.97, 80.3 90.34, 157.94 -0.54 M0.5 182.32 C49.43 123.72, 98.92 66.06, 159.33 0.09 M1.24 188 C34.22 149.89, 66.93 109.66, 163.04 1.47 M0.15 190.09 C47.01 133.72, 94.25 79.48, 164.89 -0.01 M-1.28 194.56 C54.02 131.37, 107.75 70.18, 169.76 -0.64 M0.06 195.38 C57.6 126.22, 116.69 57.91, 168.64 0.88 M0.12 201.47 C40.63 155.99, 76.87 111.26, 176.38 1.34 M-0.85 200.79 C59.3 133.64, 119.01 65.87, 175.65 -0.74 M-0.28 207.29 C44.57 157.39, 88.25 106.69, 181.2 -0.28 M0.07 207.12 C70.21 127.11, 139.48 47.49, 179.89 0.85 M-0.34 212.42 C55.09 146.24, 111.56 81.21, 186.23 -1.69 M0.02 214.12 C45.3 163.49, 88.86 113.51, 186.04 -0.33 M0.4 221.23 C39.66 173.57, 81.65 123.08, 190.58 0.54 M-0.84 219.35 C67.85 143.75, 135.56 65.19, 190.77 0.59 M0.69 224.46 C73.26 142.96, 143.02 60.6, 197.35 -0.88 M0.71 225.72 C48.08 173.42, 93.49 121.24, 196.47 0.25 M0.27 232.83 C79.61 139.24, 158.74 45.56, 201.25 1.35 M-0.77 232.47 C65.56 155.36, 131.93 81.53, 201.96 0.11 M0.12 237.42 C62.7 165.84, 123.89 95.77, 207.26 0.62 M0.6 236.99 C67.48 162.75, 133.95 87.57, 207.1 -0.34 M-1.08 243.44 C62.93 167.98, 127.59 94.18, 212.37 1.32 M-0.08 244.2 C60.83 172.53, 122.51 102.34, 212.42 0.34 M-0.86 251.48 C81.08 156.75, 160.5 65.44, 218.32 -0.34 M-0.32 250.81 C87.35 152.82, 174 52.57, 217.85 -0.99 M1.04 255.85 C53.38 192.95, 106.55 132.58, 222.28 -0.66 M-0.08 255.49 C84.31 157.99, 170.3 60, 222.39 0.26 M-0.23 261.62 C88.24 159.46, 176.58 59.75, 229.03 -1.6 M-0.39 261.77 C70.11 180.85, 140.23 99.41, 228.44 0.14 M-0.58 266.89 C62 197.97, 122.59 128.6, 233.83 -0.81 M0.49 268.02 C57.76 198.81, 117.15 130.43, 233.18 -0.13 M1.05 275.27 C87.34 172.74, 175.15 71.96, 239.12 1.56 M-0.18 274.44 C55.13 211.24, 110.28 147.57, 237.77 -0.14 M-1.2 281.63 C96.09 167.81, 191.67 58.69, 243.64 -1.2 M-0.6 281.04 C73.15 197.97, 145.76 114.31, 243.23 -0.03 M2.12 282.63 C67.39 209.81, 131.92 132.34, 249.38 0.95 M2.84 283.78 C69.58 205.94, 135.4 130.09, 249.02 0.17 M7.36 283.31 C67.44 214.29, 130.64 144.05, 255.18 0.74 M7.83 283.53 C65.22 219.4, 121.69 153.97, 254.58 -0.37 M13.79 283.16 C68.72 219.09, 125.16 158.12, 260.28 0.55 M13.64 282.76 C75.01 210, 137.41 138.11, 259.45 -0.26 M17.56 284.58 C116.55 175.26, 211.53 64.39, 266.03 -0.02 M18 283.76 C93.23 197.1, 168.71 109.7, 265.4 -0.02 M23.04 283.57 C107.01 186.29, 188.4 90.39, 269.6 0.57 M23.9 283.86 C112.58 181.65, 201.13 80.07, 270.49 -0.2 M29.16 284.13 C116.18 182.85, 204.3 83.16, 275.42 0.82 M28.84 283.4 C105.27 195.4, 180.94 108.01, 276.1 -0.68 M33.65 283.58 C103.63 203.8, 173.76 121.78, 281.62 0.85 M34.2 282.77 C102 202.44, 170.27 123.74, 280.95 -0.04 M38.83 284.53 C99.67 214.67, 161.14 144.98, 283.97 2.89 M39.32 283.09 C124.27 185.35, 208.58 87.7, 284.3 3.38 M46.16 282.53 C116.46 199.04, 188.19 116.62, 285.3 9.17 M44.89 283.28 C104.8 217.07, 162.99 149.26, 284.67 8.92 M49.7 283.08 C129.73 191.85, 210.54 99.65, 284 15.8 M50.66 283.07 C114.2 208.8, 177.87 135.73, 283.53 14.41 M55.27 284.4 C148.12 179.5, 237.79 75.55, 284.67 19.99 M56.23 282.65 C107.43 226.33, 157.03 170.2, 283.94 20.88 M61.77 284.19 C126.83 208.17, 190.25 135.53, 285.01 26.16 M61.41 283.18 C119.42 218.33, 177.44 152.73, 284.02 26.49 M67.42 282.54 C142.41 193.44, 220.8 107.13, 284.2 34.14 M66.94 282.66 C128.86 211.2, 191.36 139.67, 283.33 33.6 M71.32 284.28 C133.61 210.67, 196.17 138.19, 285.22 39.59 M71.04 284.14 C118.62 230.95, 163.07 179.42, 284.15 38.67 M77.18 283.66 C142.62 210.59, 207.35 134.68, 283.56 45.63 M76.06 284.3 C134.83 218.23, 193.23 151.48, 283.4 45.98 M81.67 284.47 C151.12 201.93, 221.73 123.63, 284.4 50.65 M81.59 283.41 C158.02 197.31, 234.41 108.61, 284.68 50.77 M88.11 283.89 C166.37 194.34, 241.45 104.75, 285.04 58.39 M87.27 284.3 C154.55 205.9, 223.52 126.55, 283.83 57.27 M92.65 282.64 C164.81 199.05, 239.02 114.78, 283.63 65.27 M92.23 283.51 C153.44 213.19, 214.05 143.16, 284.11 64.33 M98.06 283.83 C147.09 224.48, 199.4 166.35, 284.92 69.52 M97.85 283.92 C169.44 200.93, 240.91 118.22, 284.79 69.78 M103.01 282.04 C163.73 214.04, 226.77 143.99, 285.16 75.05 M103.27 283.72 C166.09 211.24, 229.64 140.48, 284.1 75.07 M107.4 282.81 C147.84 238.59, 185.14 192.72, 284.13 81.49 M108.31 283.2 C143.32 244.13, 179.07 204.05, 284.63 80.92 M113.4 282.71 C162 227.75, 211.12 173.78, 285.06 88.36 M114.84 282.67 C162.08 227.46, 210.04 172.67, 284.11 88.1 M118.7 282.81 C157.56 239.29, 200.87 190.67, 285.23 94.14 M119 283.27 C174.85 217.9, 231.72 152.45, 283.81 94.4 M123.45 284.17 C171.86 232.32, 217.06 177.95, 285.12 100.14 M125.14 283.2 C171.54 229.03, 218.92 175.65, 284.06 99.48 M130.34 282.2 C181.99 223.64, 234.97 161.75, 285.29 107.73 M130.04 283.15 C176.71 231.06, 221.87 177.38, 284.68 106.48 M134.98 281.88 C191.97 220.35, 246.12 158.29, 282.76 110.93 M135.31 282.8 C177.64 233.71, 219.86 184.99, 283.57 112.73 M139.28 282.06 C177.73 241.34, 215.91 198.36, 284.61 117.54 M139.58 282.86 C179.21 238.22, 216.88 194.82, 284 118.24 M145.27 284.31 C190.98 232.92, 233.1 180.12, 283.79 125.08 M146.34 283.33 C183.16 240.91, 220.03 197.11, 283.03 124.92 M151.64 283.06 C193.75 231.91, 240.93 180.23, 283.02 131.14 M150.6 283.6 C178.75 252.3, 205.79 221.65, 283.94 131.24 M157.4 282.12 C197.44 237.96, 236.11 194.78, 284.74 137.33 M157.33 282.55 C181.81 252.43, 210.04 219.93, 284.75 137.04 M161.95 285.49 C193.6 244.47, 230.86 208.78, 282.67 141.7 M162.55 284.31 C208 229.28, 255.35 176.92, 284.85 142.92 M165.61 283.43 C198.04 247.96, 230.07 212.61, 285.52 147.08 M166.67 283.19 C191.87 254.51, 215.94 227.17, 284.87 148.15 M174.17 284.76 C209.45 240.61, 246.42 198.25, 284.54 157.19 M172.34 282.85 C216.05 233.26, 259.59 183.94, 284.13 156.12 M178.46 284.48 C208.47 247.95, 239.06 214.97, 285.61 160.68 M178.61 283.4 C205.34 250.52, 234.39 217.76, 283.6 161.8 M183.35 283.6 C216.96 245.94, 250.24 205.57, 285.59 167.2 M182.49 282.52 C221.6 239.7, 259.57 197.44, 284.72 167.14 M187.24 284.78 C213.24 255.17, 233.86 230, 283.11 171.82 M189.08 282.62 C221.41 244.17, 253.89 207.63, 284.94 172.88 M195.08 284.2 C221.2 251.47, 247.85 220.05, 283.59 178.85 M193.23 283.93 C212.07 261.85, 230.23 239.4, 283.3 179.74 M197.19 283.96 C228.17 249.25, 257.54 213.75, 282.08 186.3 M198.99 284.39 C225.82 252.08, 253.6 222.04, 283.93 186.29 M205.58 284.12 C235.71 247.09, 266.85 210.28, 283.55 189.9 M204.51 283 C227.48 258.93, 249.41 232.16, 284.91 192.27 M210.18 282.74 C227.43 262.8, 250.33 237, 283.17 199.07 M208.94 283.26 C225.01 266.12, 240.17 246.56, 283.24 198.02 M213.71 284.3 C240.18 252.22, 263.74 225.16, 285.14 201.45 M213.95 282.97 C236.66 258.04, 260.56 230.69, 284.26 204.35 M220.69 283.52 C240.36 261.14, 261.62 235.36, 283.71 210.67 M219.26 283.4 C244.17 256.35, 267.67 229.12, 283.29 209.62 M224.92 285.05 C244.12 263.42, 261.36 241.4, 281.99 214.78 M224.86 282.38 C238.27 269.32, 249.92 255.19, 283.1 215.69 M230.51 283.29 C245.06 267.38, 259.84 251.39, 284.28 220.3 M230.58 283.49 C244.03 266.64, 258.47 249.91, 284.82 221.21 M235.33 282.06 C250.21 264.99, 266.15 249.75, 284.32 228.23 M236.24 283.1 C251.4 265.59, 266.09 249.75, 284.83 229.06 M240.05 282.42 C250.55 273.14, 263.04 261.47, 284.12 234.52 M241.25 283.56 C253.76 268.93, 267.7 253.53, 284.27 234.2 M247.64 282.37 C252.14 274.38, 263.03 264.67, 283 241.82 M246.78 284.29 C259.99 266.78, 274.4 252.1, 284.59 240.79 M252.34 284.66 C260.14 272.03, 269.69 262.72, 284.4 248.01 M251.31 282.94 C260.04 274.96, 266.75 265.49, 283.1 246.08 M259.2 284.44 C263.43 275.16, 269.25 267.61, 284.19 254.17 M256.85 282.45 C263.19 275.32, 268.71 268.78, 283.83 251.76 M261.04 285.13 C268.02 276.9, 273.1 268.73, 282.91 260.59 M262.47 284.26 C268 276.03, 276.69 268.17, 284.45 259.39 M265.98 282.07 C275.26 275.21, 278.94 271.13, 284.67 263.27 M268.51 283.37 C273.32 277.61, 276.9 273.26, 283.72 264.19 M274.2 282.52 C276.52 280.41, 278.58 276.21, 282.39 269.84 M272.25 283.5 C276.01 279.17, 280.53 273.65, 283.28 270.33 M278.55 283.69 C279.92 280.35, 281.96 278.52, 283.55 276.39 M278.92 283.58 C280.16 281.87, 280.81 280.37, 284.04 276.83" stroke="#228be6" stroke-width="0.5" fill="none"></path><path d="M-1.32 -1.23 C72.87 1.51, 149.36 0, 282.09 -0.66 M-0.17 0.41 C96.25 0.89, 192.22 1.07, 280.65 0.72 M280.26 0.57 C283.93 94.08, 283.86 189.49, 282.43 280.38 M281.01 -0.17 C280.98 75.67, 281.2 150.63, 280.93 281.77 M280.6 282.05 C217.98 280.6, 151.87 283.03, 0.76 281.16 M281.1 280.73 C208.98 283.55, 135.57 282.68, -0.35 281.01 M-0.31 281.27 C1.38 207.21, 2.74 134.37, -1.05 -0.16 M0.5 281.3 C-1.56 213.49, -0.78 147.59, 0.04 0.41" stroke="#000000" stroke-width="1" fill="none"></path></g><g transform="translate(1613.8554524094964 194.94887350979994) rotate(0 24.999999999999886 23)"><text x="0" y="32" font-family="Virgil, Segoe UI Emoji" font-size="36px" fill="#000000" text-anchor="start" style="white-space: pre;" direction="ltr">25</text></g><g transform="translate(1607.7875561587261 366.5169544978048) rotate(0 32 23)"><text x="0" y="32" font-family="Virgil, Segoe UI Emoji" font-size="36px" fill="#000000" text-anchor="start" style="white-space: pre;" direction="ltr">age</text></g><g transform="translate(24.674833224820986 17.96390869301794) rotate(0 50 23)"><text x="0" y="32" font-family="Virgil, Segoe UI Emoji" font-size="36px" fill="#000000" text-anchor="start" style="white-space: pre;" direction="ltr">string</text></g><g transform="translate(610.0221221616403 10) rotate(0 50 23)"><text x="0" y="32" font-family="Virgil, Segoe UI Emoji" font-size="36px" fill="#000000" text-anchor="start" style="white-space: pre;" direction="ltr">string</text></g><g transform="translate(1526.8671104453324 17.963908693017913) rotate(0 58 23)"><text x="0" y="32" font-family="Virgil, Segoe UI Emoji" font-size="36px" fill="#000000" text-anchor="start" style="white-space: pre;" direction="ltr">number</text></g><g stroke-linecap="round" transform="translate(594.0081157949253 534.2180250308367) rotate(0 163.99999618530285 126.49999618530279)"><path d="M0 0 C0 0, 0 0, 0 0 M0 0 C0 0, 0 0, 0 0 M-0.71 6.11 C2.02 3.44, 3.46 1.6, 5.28 0.05 M-0.27 6.18 C1.33 4.8, 2.72 2.26, 4.62 0.53 M-0.07 12.51 C3.79 10.36, 4.08 5.85, 12.21 0.2 M0.75 12.65 C3.55 8.3, 6.47 5.24, 10.2 0.34 M0.06 18.25 C4.1 15.66, 8.05 8.11, 15.73 1.35 M-0.69 18.14 C3.49 14.57, 7.91 8.59, 15.07 0.28 M2.25 24.66 C5.62 18.57, 11.2 12.09, 19.68 0.14 M-0.62 23.84 C7.71 15.23, 15.62 7.28, 21.17 -0.7 M-0.63 32.19 C6.98 21.71, 13.21 13.54, 27.06 -0.15 M-0.31 31.36 C10.32 19.42, 19.51 6.79, 26.51 0.07 M0.92 35.89 C7.47 27.77, 15.96 19.32, 30.03 1.42 M0.37 37.5 C7 27.84, 14.01 21.37, 31.33 -0.15 M1.35 41.51 C7.49 31.94, 17.75 21.41, 35.28 -0.74 M0.03 41.73 C12.05 29.15, 23.32 15.36, 37.62 -0.23 M0.29 49.52 C9.39 36.48, 19.47 22.59, 43.56 0.98 M0.68 49.64 C10.43 36.57, 22.22 23.69, 43.18 -0.13 M1.41 55.58 C16.26 34.21, 35.84 14.08, 46.62 -0.84 M1.17 54.75 C10.62 42.96, 20.69 30.43, 47.34 0.3 M1.43 62.35 C11.01 46.89, 24.6 32.41, 54.8 -0.93 M0.84 61.69 C19.26 41.21, 35.38 20.85, 53 0.42 M0.93 67.91 C21.47 45, 41.36 18.99, 57.93 -1.54 M-1.02 68.02 C22.31 41.48, 43.72 16.91, 58.3 -0.09 M0.67 73.82 C27.56 45.16, 52.81 13.45, 64.91 -0.7 M-0.27 73.63 C15.97 53.71, 31.87 35.03, 64.75 -0.1 M1.87 81.11 C21.93 54.18, 39.94 33.91, 68.67 -0.5 M-1 80.15 C28.03 47.4, 54.94 17.14, 68.81 0.13 M1.01 86.74 C15.44 65.52, 32.19 44.51, 73.67 0.68 M-0.09 84.76 C27.59 53.87, 55.85 22.41, 74.08 0.01 M-1.14 91.43 C20.31 68.72, 43.63 42.77, 80.94 -0.06 M0.47 91.37 C18.22 69.43, 39.16 47.14, 78.87 -0.18 M-0.64 96.06 C26.95 70.14, 50.14 37.64, 83.5 1.57 M-1.03 98.45 C27.62 64.31, 55.68 32.57, 84.35 -0.23 M1.82 101.74 C27.37 74.38, 52.36 40.51, 91.46 0.85 M0.98 104.44 C17.69 82.25, 37.13 59.13, 90.17 -0.83 M1.27 109.81 C21.03 87.61, 39.22 63.8, 95.43 -0.27 M0.16 109.11 C31.77 73.45, 63.83 35.62, 96.58 -0.49 M-0.73 114.3 C21.37 93.3, 43.95 67.35, 99.57 -1.34 M-0.18 115.43 C30.77 83.8, 60.05 49.97, 100.08 -0.35 M0.92 121.7 C27.31 91.41, 58.77 57.16, 105.1 0.28 M0.45 122.73 C34.57 82.77, 68.19 45.03, 105.5 -1.13 M1.71 127.47 C42.43 80.66, 81.21 37.07, 111.26 1.2 M-0.71 128.5 C27.03 99.02, 53.26 66.93, 111.66 0.07 M-0.21 132.03 C23.96 107.04, 48.95 76.56, 118.16 0.47 M1.15 133.85 C42.04 88.98, 82.01 43.84, 116.83 -0.44 M0.25 140.76 C39.55 97.56, 73.97 52.2, 123.1 -0.37 M-0.63 140.84 C40.44 94.53, 79.96 47.58, 121.65 0.52 M1.97 144.49 C37.65 102.79, 74.93 62.05, 128.82 -1.33 M1.26 146.34 C25.57 115.85, 51.08 85.62, 126.01 0.34 M-1.23 151.4 C49.2 96.46, 94.76 42.97, 134.15 0.47 M-0.23 153.13 C49 94.93, 99.37 36.88, 132.51 0.4 M1.32 158.88 C52.59 100.43, 103.78 38.39, 136.14 -0.95 M-1.09 158.21 C29.28 124.22, 59.44 91.67, 138.07 -0.38 M-0.08 163 C58.47 99.8, 113.34 37.78, 142.85 1.58 M0.39 164.89 C45.38 112.51, 90.17 61.12, 142.45 0.49 M0.94 171.97 C41.78 123.14, 83.12 76.04, 149.51 -0.2 M-0.47 170.28 C34.15 129.07, 70.38 90.08, 148.62 0.07 M1.46 178.1 C37.22 133.14, 77.09 87.9, 153.09 0.68 M1.02 176.68 C33.38 139.71, 65.46 102.87, 153.1 -0.9 M0.05 182.87 C56.89 113.99, 115.51 47.16, 158.91 -0.64 M0.56 183.04 C39.21 135.56, 80.36 89.53, 158.82 0.09 M-0.34 189.36 C60.89 119.09, 119.3 47.98, 164.01 -1.47 M0.5 189.21 C45.51 137.01, 89.83 86.18, 163.99 -0.9 M0.79 195.95 C34.29 153.95, 70.38 112.78, 170.65 -1.04 M0.16 195.7 C66.06 118.48, 131.64 44.98, 169.4 0.94 M-1.62 200.34 C56.6 135.49, 116.39 68.41, 173.74 -1.55 M-0.51 201.97 C41.12 154.99, 80.78 108.56, 174.45 -0.67 M0.84 208.32 C60.03 139.65, 118.86 70.8, 179.88 -0.84 M-0.44 207.04 C49.35 148.47, 98.52 90.36, 180.72 0.06 M1.2 212.71 C51.07 153.7, 103.83 91.31, 185.71 -0.19 M-0.44 213.02 C65.78 138.67, 129.84 64.2, 185.2 -0.25 M-0.51 220.75 C38.73 175.41, 79.55 130.21, 190.35 0.01 M0.49 219.25 C60.53 149.77, 119.77 81.09, 191.36 0.74 M-1 226.79 C68.3 147.27, 137.24 66.77, 196 -1.34 M-0.53 225.38 C42.55 175.12, 85.74 125.93, 196.6 -0.19 M-0.07 231.33 C62.34 160.88, 122.19 90.34, 201.41 1.06 M0.28 231.57 C41.58 184.8, 82.49 138.21, 201.34 -0.46 M-0.06 236.71 C52.12 177.56, 101.59 120.04, 205.91 -0.37 M0.78 236.95 C78.09 146.14, 156.31 56.55, 207.36 0 M-0.65 242.78 C52.5 180.82, 107.68 118.48, 211.54 -1.27 M0.19 243.53 C80.38 149.47, 161.68 54.64, 211.84 -0.03 M-1.45 251.44 C43.63 196.54, 89.76 145.61, 218.36 0.83 M-0.17 250.28 C59.22 180.16, 118.36 111.34, 217.49 0.23 M1.68 254.89 C58.06 190.61, 111.49 125.59, 223.88 0.24 M1.66 254.77 C53.38 195.01, 105.62 135.35, 222.3 0.56 M6.14 254.68 C67.55 181.6, 131.56 108.62, 227.04 0.24 M7.66 254.02 C72.24 178.25, 138.86 100.7, 228.14 0.02 M10.92 254.12 C69.37 187.19, 125.59 121.3, 232.45 1.12 M12.46 254.19 C71.32 187.39, 128.01 119.7, 233.38 -0.39 M16.54 253.97 C76.13 187.01, 134.46 119.36, 237.74 1.56 M17.13 255.01 C99.97 158.63, 183.1 61.56, 238.14 0.49 M23.93 254.31 C70.74 199.21, 118.65 142.9, 243.83 -0.62 M23.11 253.92 C88.4 177.31, 153.7 102.43, 244.18 0.27 M28.66 255.25 C101.83 169.88, 172.2 87.21, 249.13 0.36 M28.21 254.47 C105.67 164.55, 185.15 72.84, 248.16 0.04 M32.38 255.57 C82.04 199.49, 129.95 145.12, 255.61 0.66 M33.1 253.7 C99.23 175.64, 168.08 96.99, 254.92 -0.14 M39.09 254.49 C124.15 154.04, 213.78 53.32, 259.71 -0.54 M37.98 254.34 C85.03 197.31, 134.27 141.85, 259.33 0.19 M43.13 254.93 C118.46 167.97, 195.2 78.95, 264.46 -0.59 M44.41 254.14 C129.81 153.39, 216.94 53.03, 265.62 -0.72 M49.55 254.55 C137.59 156.28, 222.83 57.06, 270.37 0.48 M49.29 254.01 C110.03 182.14, 171.91 111.53, 270.56 -0.05 M54.06 254.36 C104.24 195.18, 155.76 137.13, 276.85 0.42 M54.76 254.07 C140.97 156.17, 225.51 59.06, 276.09 0.3 M60.79 255.17 C142.96 159.16, 225.4 63.3, 281.1 -0.72 M59.45 255.08 C143.87 155.69, 228.45 58.16, 280.56 0.51 M64.83 255.41 C129.69 181, 194.39 107.41, 287.61 -0.02 M65.72 254.51 C120.06 190.81, 173.21 130.14, 285.94 0.21 M70 255.67 C115.35 201.12, 159.95 148.96, 290.95 -0.66 M70.91 254.66 C140.34 175.05, 208.33 95.97, 291.83 -0.07 M76.84 253.83 C141.65 178.09, 205.48 104.34, 296 -0.64 M75.93 254.7 C132.13 187.73, 189.09 121.99, 297.24 -0.15 M81.48 254.97 C142.89 181.36, 206.44 107.05, 300.75 1.03 M80.54 254.78 C160.77 160.09, 242.32 66.82, 301.32 -0.15 M85.19 253.04 C173.62 153.16, 259.63 51.97, 308.43 -0.6 M86.53 253.42 C145.05 188.52, 201.32 123.41, 307.83 -0.38 M90.55 254.23 C179.05 151.9, 265.2 52, 313.07 -1.07 M91.71 254.32 C177.45 154.75, 264.48 54.53, 312.46 0.08 M97.51 253.31 C165.25 174.61, 232.86 96.45, 316.94 0.52 M97.1 254.35 C185.22 153.47, 271.23 53.63, 318.03 -0.56 M102.34 254.22 C166.73 180.24, 229.84 108.26, 324.2 0.65 M102.23 254.39 C181.15 164.21, 259.07 74.81, 323.12 -0.01 M107.06 254.53 C175.84 174.49, 246.43 92.45, 328.12 0.77 M108.35 254 C185.74 164.83, 262.98 75.98, 328.62 0.88 M113.04 255.29 C173.82 182.94, 235.17 111.71, 329.65 5.96 M112.36 254.27 C188.07 168.64, 264.28 80.36, 328.38 5.84 M119.68 253.43 C176.92 189.08, 233.49 121.79, 328.36 13.02 M118.08 253.78 C190.46 170.42, 261.9 86.28, 329 12.14 M123.21 254.62 C175.52 193.09, 229.51 130.78, 328.54 19.75 M123.53 254.14 C170.56 201.25, 217.39 147.83, 327.69 19.58 M129.32 254.54 C170.63 209.32, 209.89 162.5, 327.44 25.08 M129.35 253.26 C193.7 178.99, 259.48 103.22, 328.62 24.52 M135.41 254.42 C188.5 188.28, 246.16 123.93, 329.08 29.79 M134.23 253.69 C199.93 178.44, 265.33 102.54, 327.52 31.54 M139.38 254.3 C193.95 189.06, 249.14 128.78, 327.24 35.52 M138.74 255.24 C210.11 172.3, 284.09 88.69, 328.32 36 M145.39 253.68 C215.44 172.55, 285.58 90.25, 328.38 43.27 M143.99 253.57 C214.27 173.07, 283.99 92.37, 328.4 42.61 M148.56 255.09 C202.21 193.11, 257.29 132.33, 328.17 49.2 M150.41 255.32 C206.27 189.13, 263.39 123.14, 328.17 49.15 M156.69 253.93 C215.1 185.03, 275.32 117.1, 329.18 54.35 M155.21 253.97 C221.58 177.52, 288.2 100.79, 328.27 55.54 M161.77 255.21 C219.42 186.26, 278.85 118.75, 328.45 62.36 M160.25 255.21 C205.59 200.32, 251.5 147.34, 328.41 60.76 M165.69 253.13 C218.16 192.21, 271.39 131, 330.17 65.71 M165.47 254.57 C216.58 198.62, 265.57 141.34, 329.42 66.38 M170.83 254.62 C227.57 188.49, 283.29 125.71, 329.38 72.64 M170.71 253.8 C222.68 197.17, 272.91 138.37, 328.61 74.06 M177.27 255.2 C219.49 208.21, 257.75 160.81, 328.05 80.63 M176.8 254.37 C211.06 214.86, 245.55 176.18, 328.45 79.24 M182.52 256.21 C234.65 193.95, 289.23 130.93, 328.59 86.33 M180.91 254.37 C220.5 208.13, 261.45 162.37, 328.72 86.11 M188.76 253.52 C225.05 208.27, 263.94 165.28, 326.91 92.87 M187.75 253.43 C242.99 192.23, 295.68 130.7, 328.57 92.36 M192.63 255.58 C223.8 221.06, 252.48 186.04, 329.26 95.76 M191.3 254.75 C228.33 213.44, 262.15 172.41, 328.45 98.32 M199.7 254.54 C248.22 194.06, 301.09 136.58, 327.98 104.61 M198.25 254.86 C240.09 206.87, 279.44 160.63, 329.24 103.73 M202.45 254.54 C244.59 208.4, 283.93 162.72, 329.54 110.81 M202.09 253.54 C246.4 206.02, 290.29 154.31, 328.33 110.56 M207.43 253.57 C241.98 216.77, 274.69 178.31, 328.57 116.62 M207.67 253.77 C244.2 211.62, 280.04 170.29, 328.06 115.21 M212.16 254.48 C241.89 219.9, 271.43 186.11, 327.56 120.53 M213.43 254.56 C252.92 208.6, 291.74 164.44, 328.82 121.45 M220.71 252.79 C254.18 212.33, 289.66 168.73, 327.81 129.47 M219.39 254.14 C259.46 206.88, 299.16 160.99, 328.47 128.36 M224.69 252.5 C259.36 215.71, 294.39 173.19, 326.39 134.58 M224.83 255.07 C262.12 211.07, 300.05 169.16, 327.97 133.49 M230.72 253.81 C260.16 215.32, 294.45 180.51, 327.02 139.72 M230.37 253.36 C254.5 224.4, 279.67 194.9, 328.86 140.73 M233.49 252.9 C261.03 224.74, 291.48 194.07, 328.33 145.46 M235.61 253.62 C260.81 225.12, 287.02 193.79, 328.16 145.64 M239.22 253.64 C261.23 231.99, 276.61 213.07, 328.12 153.07 M241.27 254.14 C262.63 229.01, 283.43 206.23, 327.29 152.92 M246.66 255.37 C277.94 215.84, 307.96 178.33, 330.27 157.03 M244.77 254.06 C267.45 228.48, 291.56 201.22, 329.5 158.16 M249.96 253.39 C274.14 230.59, 297.52 200.85, 329.67 164.81 M249.77 255.24 C277.83 226.21, 301.97 195.81, 327.55 165.1 M254.93 254.96 C275.43 233.14, 297.54 209.27, 327.09 169.3 M254.99 253.58 C276.58 230.62, 298.79 208.05, 329.11 171.39 M259.31 255.31 C276.95 233.31, 296.15 212.34, 329.5 176.89 M261.21 254.49 C279.34 233.26, 297.31 213.8, 327.75 176.02 M267.64 254.11 C289.48 227.49, 315.83 200.22, 326.28 183.39 M266.66 254.66 C287.33 229.64, 310.36 203.87, 327.78 182.71 M272.25 255.27 C293.65 229.65, 311.59 206.21, 328.1 190.61 M270.67 255.28 C290.08 234.87, 308.89 213.81, 327.72 189.72 M276.76 254.64 C294.18 237.54, 307.73 222.24, 327.94 194.05 M277.82 255.09 C292.57 236.85, 305.06 220.56, 327.99 195.07 M281.08 255.78 C289.95 245.82, 300.47 232.08, 327.9 203.42 M281.53 255.56 C294.71 238.58, 308.36 224.84, 328.29 202.32 M288.89 253.72 C300.97 238.93, 312.47 223.06, 327.49 206.64 M288.22 253.98 C303.65 236.71, 318.9 219.73, 328.59 207.99 M292.69 254.71 C305.51 238.24, 320.64 222.8, 327.93 213.87 M292.9 254.61 C302.86 243.57, 313.18 231.59, 327.97 212.97 M297.25 255.92 C305.27 247.36, 315.37 237.43, 326.97 217.93 M299.32 253.77 C306.21 244.93, 314.72 234.8, 328.12 220.31 M304.62 253.29 C309.66 246.81, 315.45 239.24, 327.89 226.14 M303.56 255 C308.41 248.04, 314.09 240.67, 328.96 226.42 M309.67 253.18 C314.85 246.85, 320.8 238.31, 326.37 232.77 M308.22 254.17 C317.2 245.43, 323.55 238.14, 328.13 232.92 M313.04 256.17 C318.73 249.31, 323.43 241.42, 326.75 239.05 M313.97 254.62 C317.7 249.92, 321.03 246.07, 327.84 237.97 M320.33 253.25 C322.67 251.92, 322.2 249.39, 326.99 244.86 M319.74 254.2 C322.73 250.83, 326.1 247.32, 327.99 243.94 M324.72 254.71 C326.11 253.46, 327.3 250.82, 329.09 250.18 M324.59 254.52 C326.35 253.16, 327.15 251.3, 328.71 250.01" stroke="#228be6" stroke-width="0.5" fill="none"></path><path d="M-0.59 -0.57 C94.68 -1.62, 187.66 -0.09, 328.38 -0.79 M-0.64 -0.6 C95.03 -2.69, 191.41 -2.86, 328.05 -0.04 M327.96 -0.58 C327.18 63.01, 327.19 126.56, 328.47 254.59 M327.43 -0.39 C326.36 74.71, 326.79 148.71, 327.25 253.32 M327.22 251.72 C247.99 252.46, 171.99 251.72, 0.27 251.66 M328.02 252.68 C198.56 253.25, 68.24 253.2, -0.05 252.48 M1.08 254.24 C-2.45 184.36, -1.21 119.12, 1.35 1.09 M-0.11 252.39 C-1.38 192.28, -1.25 130.81, -0.34 0.73" stroke="#000000" stroke-width="1" fill="none"></path></g><g transform="translate(719.008111980228 637.7180212161394) rotate(0 39 23)"><text x="39" y="32" font-family="Virgil, Segoe UI Emoji" font-size="36px" fill="#000000" text-anchor="middle" style="white-space: pre;" direction="ltr">true</text></g><g transform="translate(632.0081081655308 491.2180174014421) rotate(0 65 23)"><text x="0" y="32" font-family="Virgil, Segoe UI Emoji" font-size="36px" fill="#000000" text-anchor="start" style="white-space: pre;" direction="ltr">boolean</text></g><g transform="translate(709.5081081655308 792.4680174014422) rotate(0 63 23)"><text x="0" y="32" font-family="Virgil, Segoe UI Emoji" font-size="36px" fill="#000000" text-anchor="start" style="white-space: pre;" direction="ltr">isHappy</text></g><g stroke-linecap="round" transform="translate(1140.2196654729632 514.3487134227021) rotate(0 136.47403673010706 126.5391765011729)"><path d="M0 0 C0 0, 0 0, 0 0 M0 0 C0 0, 0 0, 0 0 M0.43 6.45 C1.47 4.12, 2.8 2.63, 4.62 0.92 M-0.41 6.4 C0.94 5.09, 1.93 4.07, 4.97 0.02 M0.8 13.51 C2.19 8.9, 6.54 3.44, 12.04 0.41 M0.17 11.29 C3.2 9.7, 5.58 5.79, 10.79 -0.05 M-1.73 17.58 C7.75 10.97, 11.64 5.83, 15.46 -0.94 M-0.9 18.39 C3.71 14.56, 6.38 9.94, 16.36 0.65 M0.31 23.04 C5.48 15.32, 15.1 9.33, 20.09 0.29 M0.76 24.33 C6.43 17.51, 11.66 11.15, 20.8 -0.61 M1.35 31.09 C6.26 24.88, 12.55 15.03, 28.19 -1.25 M0.25 30.76 C9.91 19.74, 17.85 9.89, 25.96 -0.43 M1.34 34.98 C8.08 24.83, 19.94 16.56, 31.77 0.91 M-1.18 36.82 C6.17 28.03, 13.84 20.54, 32.61 -0.98 M1.66 40.86 C13.67 27.62, 29.45 8.16, 37.41 1.41 M1.06 42.17 C13.24 26.84, 26.97 9.55, 36.38 1 M0.98 48.3 C15.59 30.38, 31.41 13.21, 41.27 -0.71 M0.06 48.06 C13.46 34.12, 28.03 16.24, 42.06 -1.07 M1.51 55.28 C12.07 40.08, 22.77 27.42, 45.61 -1.74 M1.09 54.96 C12.79 40.08, 23.87 26.58, 47.57 -0.62 M1.58 62.46 C18.7 39.01, 37.38 19.51, 53.77 -1.04 M-0.48 61.48 C18.66 38.68, 35.22 19.15, 52.26 -1.12 M-2.07 66.15 C24.73 40.39, 47.66 12.48, 58.66 -0.84 M0.53 67.93 C13.74 50.15, 29.25 31.83, 58.81 0.83 M1.51 74.81 C17.22 54, 36.83 32.37, 61.82 -1.92 M0.23 73.47 C26.66 43.95, 50.29 14.22, 63.62 0.35 M1.28 77.61 C21.18 54.83, 43.18 29.09, 69.82 0.57 M0.86 79.27 C17.14 58.94, 34.17 39.5, 68.67 -0.82 M-1.48 85.32 C29.61 54.14, 56.23 17.47, 73.36 1.43 M0.5 84.08 C28.75 51, 58.86 18.6, 73.89 0.5 M-0.65 90.7 C19.24 71.7, 37.67 50.41, 79.7 1.59 M0.93 91.15 C21 67.27, 42.84 43.31, 79.05 -0.1 M1.08 97.35 C31.6 57.99, 64.52 19.73, 83.7 0.42 M-0.66 97.82 C18.8 79.2, 34.42 59.48, 84.11 0.17 M-0.05 104.32 C28.73 72.74, 54.42 43.75, 88.3 -0.06 M-0.48 102.66 C28.45 69.62, 59.04 36.39, 89.14 0.2 M-1.01 110.6 C32.47 71.69, 67.8 29.02, 95.53 1.08 M-1 110.62 C25.71 82.82, 49.72 53.44, 96.65 -0.12 M2.27 116.03 C37.69 72.32, 74.3 28.73, 99 -0.04 M0.75 114.59 C39.74 70.65, 76.66 27.54, 101.47 0.94 M-0.53 121.66 C32.04 85.42, 63.06 47.49, 106.91 0.08 M-0.9 122.35 C37.88 78.13, 77.07 34.25, 107.17 -0.14 M0.2 126.71 C31.83 89.21, 63.51 51.55, 110.55 0.63 M-0.61 128.14 C43.93 77.18, 86.05 26.76, 111.87 0.7 M1.78 133.03 C40.5 90.85, 76.49 45.73, 114.62 1.45 M-0.8 133.82 C34.44 94.75, 69.25 55.1, 116.01 0.76 M1 141.66 C25.55 111.07, 48.71 82.78, 121.06 -0.46 M-0.52 139.98 C28.42 104.31, 58.67 70.54, 121.47 -0.3 M0.52 145.78 C40.4 97, 82.51 48.02, 128.78 1.59 M0.22 145.54 C25.39 116.07, 52.04 85.11, 126.77 0.67 M1.19 151.16 C49.09 96.16, 100.5 39.57, 132.09 0.81 M0.37 152.66 C32.24 114.44, 63.55 77.98, 132.71 -0.09 M0.91 160.21 C38.91 113.99, 76.15 70.07, 136.99 1.61 M-0.31 158.49 C55.41 96.25, 110.5 33.21, 138.31 -0.29 M1.63 163.05 C31.68 127.96, 60.68 90.66, 144.2 -0.37 M-0.38 163.89 C30.02 131.23, 59.01 97.17, 143.39 -0.95 M-1.67 169.88 C44.09 118.56, 90.93 65.33, 146.83 1.05 M0.36 170.89 C53.06 111.37, 103.88 50.93, 147.9 0.55 M-1.1 175.89 C42.72 126.08, 85.38 80.09, 154.19 0.86 M-0.34 176.54 C57.46 112.1, 114.42 46.4, 154.49 0.04 M-0.3 183.36 C40.81 137.04, 79.21 93.14, 160.42 1.36 M0.53 183.16 C51.09 123.04, 102.82 63.63, 159.24 0.23 M-1.27 188.13 C34.13 151.67, 68.79 110.65, 165.2 1.09 M-0.24 188.71 C50.42 130.31, 101.6 71.79, 164.65 0.25 M1.55 193.56 C53.25 133.92, 106.4 70.03, 169.65 -0.44 M0.38 194.71 C55.25 131.36, 110.33 68.03, 170.2 0.74 M1.16 201.46 C39.34 155.28, 79.03 111.1, 176.35 -0.59 M0.61 201.05 C65.87 125.22, 133.01 48.63, 175.33 0.29 M0.32 205.63 C38.95 162.18, 77.77 118.79, 179.33 1.32 M1.07 206.33 C63.27 133.23, 126.63 60.03, 179.94 0.47 M0.93 212.3 C49.97 158, 98.07 104.6, 186.38 0.07 M0.46 212.92 C55.01 148.34, 112.16 82.9, 185.71 0.48 M0.82 220.76 C73.07 133.97, 147.33 48.67, 190.22 1.53 M-0.58 219.24 C68.45 142.98, 136.35 64.95, 190.2 0.78 M-0.56 224.7 C71.25 141.43, 144.21 58.66, 196.69 -0.11 M0.84 225.8 C73.01 141.57, 146.21 57.78, 196.06 -0.64 M-0.05 231.05 C45.1 181.05, 89.97 127.64, 202.52 0.55 M-0.12 232.1 C52.96 173.59, 105.68 113.74, 202 -0.26 M0.33 238.33 C74.42 154.19, 146.1 68.49, 208.05 0.78 M-0.26 237.94 C50.86 180.38, 101.36 123.04, 207.56 -0.27 M1.19 244.7 C48.29 185.97, 98.12 130.72, 213.15 0.54 M-0.18 244.2 C76.07 156.05, 152.2 68.39, 211.57 -0.35 M0.17 250 C74.94 163.8, 148.73 77.72, 217.96 0.74 M-0.24 249.71 C77.06 165.21, 151.3 77.76, 218.01 -0.31 M0.94 254.96 C58.03 190.14, 115.71 124.67, 221.74 -0.27 M1.08 253.89 C72.76 173.31, 143.3 92.36, 223.23 -0.42 M6.68 254.23 C92.52 155.17, 176.52 57.14, 229.13 -0.24 M5.85 254.16 C66.08 184.13, 127.39 114.05, 227.67 0.02 M12.79 255.18 C69.79 187.96, 129.06 117.85, 232.74 0.95 M11.52 254.41 C92.88 159.26, 174.03 65.63, 233.83 -0.16 M15.95 254.53 C77.2 181.62, 139.32 110.55, 237.7 0.26 M16.89 254.15 C104.83 152.92, 192.51 51.14, 238.29 0.69 M21.99 254.51 C104.97 157.89, 186.31 64.2, 244.73 0.65 M22.86 254.33 C88.81 176.51, 156.17 98.6, 243.87 0.54 M28.37 254.27 C102.16 166.79, 180.41 81.25, 249.39 1.43 M27.93 254.5 C82.24 191.99, 136.62 130.04, 249.08 0.51 M33.32 253.37 C78.25 203.61, 123.03 151.21, 253.2 -0.19 M32.85 254.15 C101.04 177.48, 167.81 101.48, 254.73 0.23 M37.1 254.05 C88.55 196.24, 138.34 138.95, 259.54 1.17 M38.82 255.25 C111.03 171.01, 184.47 87.33, 259.52 0.37 M43.08 253.92 C116.38 169.71, 190.1 89.2, 263.99 1.11 M44.13 254.17 C107.3 179.26, 171.81 105.29, 264.64 -0.05 M48.3 253.56 C119.56 175.85, 189.08 95.46, 269.06 1.05 M48.98 254.93 C118.22 174.68, 187.48 95.23, 270.64 0.19 M55.23 254.7 C106.96 192.14, 162.63 130.59, 273.14 2.5 M54.87 254.47 C138.6 158.25, 223.81 60.7, 274.07 2.01 M59.66 254.26 C125.85 177.6, 195.34 98.5, 274.59 6.55 M60.04 254.52 C110.91 195.64, 162.44 136.59, 273.72 7.2 M65.21 253.31 C146.3 160.24, 229.76 66.94, 275.13 13.89 M65.48 253.55 C117.99 193.28, 171.14 131.58, 275.17 13.4 M71.2 253.95 C129.21 188.23, 187.66 119.51, 273.38 19.84 M70.47 254.81 C135.69 179.95, 201.2 105.01, 274.22 19.22 M76.16 254.67 C138.11 178.87, 202.46 107.5, 275.63 24.53 M75.84 253.82 C145.34 176.53, 213.21 98.26, 275.29 25.28 M79.46 255.07 C156.03 168.41, 231.79 80.6, 274.61 32.48 M80.95 255.02 C144.99 179.86, 209.31 107.78, 274.31 32.49 M85.19 254.36 C149.22 182.83, 207.56 115.52, 275.47 37.03 M86.85 254.82 C135.14 197.79, 183.3 142.05, 274.1 38.68 M92.3 253.2 C155.9 181.69, 219.57 109.79, 274.62 45.04 M91.79 254.01 C131.85 210.28, 170.31 165.55, 274.55 44.54 M97.84 255.58 C138.47 207.61, 178.18 160.85, 274.03 50.9 M97.4 254.15 C165.65 173.72, 236.41 92.99, 274.35 50.58 M102.3 254.88 C170.46 178.02, 235.7 101.63, 275.07 57.09 M102.75 255.01 C152.93 196.07, 203.33 139.14, 275.01 55.49 M107.02 254.42 C172.62 178.76, 238.85 102.93, 274.46 63.71 M107.32 253.72 C155.15 198.19, 204.62 141.51, 274.86 63 M113.63 253.34 C161.28 203.36, 204.7 148.78, 273.38 67.76 M113.02 254.86 C151.21 208.59, 190.46 162.8, 274.56 69.27 M116.84 256.07 C164.61 201.33, 209.5 147.43, 273.87 74 M118.51 254.53 C162.91 204.55, 206.5 154.18, 274.43 73.77 M123.71 253.26 C174.27 193.6, 226.6 133.02, 274.97 79.33 M122.78 254.79 C173.22 196.75, 221.84 139.8, 275.09 80.91 M130.01 255.97 C179.81 194.28, 232.31 133.62, 275.34 85.89 M127.68 255.04 C161.45 217.6, 195.62 178.95, 274.58 87.06 M132.59 255.25 C188.42 190.02, 245.15 129.71, 272.76 92.17 M133.38 254.17 C186.01 194.5, 238.25 134.49, 274.22 92.23 M139.82 253.75 C183.06 204.01, 224.58 151.93, 274.02 99.97 M139.07 253.96 C165.61 221.99, 194.16 191.5, 273.97 99.18 M143.24 255.23 C195.31 195.58, 247.46 137.27, 273.25 104.53 M143.87 253.8 C187.79 202.88, 232.57 150.96, 274.86 104.11 M149.83 254.19 C186.48 214.83, 220.49 173.86, 273.14 109.47 M150.24 254.12 C178.52 223.05, 208.29 189.76, 274.35 110.58 M155.25 254.39 C184.95 219.76, 215.81 185.51, 276.39 117.01 M154.65 254.46 C182.08 222.42, 208.18 191.75, 273.89 117.54 M159.65 253.92 C185.98 223.66, 212.44 194.04, 274.04 123.7 M159.45 254.84 C194.08 215.47, 227.61 175.83, 274.93 124.22 M166.74 253.26 C206.78 205.99, 250.88 160.62, 275.8 129.51 M165.17 254.47 C201.57 211.67, 237.97 170.87, 274.57 129.65 M172.35 255.57 C205.45 212.64, 240.9 176.35, 273.87 134.29 M170.43 254.71 C210.18 209.28, 247.36 165, 274.78 135.88 M175.39 254.89 C211.93 214.36, 244.14 175.15, 274.66 142.35 M176.29 253.86 C212.4 213.92, 248.89 171.83, 273.48 141.05 M182.33 256.47 C205.84 229.37, 226.02 203.39, 273.19 147.39 M182.17 254.12 C218.06 212.77, 254.62 170.2, 274.33 147.03 M186.26 252.93 C210.15 228.65, 230.18 203.1, 273.55 152.77 M186.19 254.36 C221.97 213.15, 255.73 175.51, 274.55 154.31 M191.33 252.59 C220.62 221.34, 250.43 184.62, 275.28 160.54 M193.03 255.11 C212.66 232.58, 232.31 208.54, 274.67 159.58 M199.78 255.66 C218.84 229.94, 241.75 204.3, 273.11 163.86 M198.34 253.36 C216.1 230.8, 235.31 209.74, 273.66 164.92 M204.46 254.53 C221.58 233.55, 236.17 213.8, 272.77 171.63 M202.62 255.46 C218.97 239.08, 232.74 220.87, 274.14 172.86 M207.77 253.99 C221.26 238.96, 237.14 220.62, 273.33 177.35 M207.56 253.96 C230.6 228.41, 251.08 205.07, 274.03 178.07 M214.23 255.51 C235.98 228.11, 256.64 206.46, 275.69 183.46 M213.92 254.58 C232 232.89, 250.07 212.34, 274.46 184.16 M217.42 253.46 C235.56 231.81, 257.36 211.47, 272.93 190.32 M219.94 254.94 C230.73 239.75, 242.55 227.22, 273.5 191.38 M224.51 255.38 C239.87 237.32, 250.68 221.2, 274.09 196.69 M223.18 253.6 C241 232.56, 259.7 211.01, 275.29 195.69 M231.27 254.21 C238.72 241.5, 252.82 228.83, 275.97 204.25 M228.92 254.77 C239.95 242.17, 250.6 230.31, 275.22 201.92 M234.55 252.6 C248.32 237.08, 262.25 223.2, 273.42 206.59 M233.99 255.33 C247.79 238.62, 262.46 223.79, 275.63 207.36 M238.62 255.8 C248.92 242.77, 260.09 231.3, 275.91 213.48 M240.56 254.36 C251.34 242.19, 260.23 229.6, 273.69 214.69 M246.97 256.27 C252.08 244.84, 257.3 237.97, 273.82 219.84 M245.23 254.28 C255.68 241.15, 268.53 228.48, 275.11 221.52 M250.08 254.12 C258.75 244.18, 268.17 233.18, 274.25 226.24 M250.23 254.04 C256.72 246.77, 265.83 237.68, 275.34 227.61 M255.77 254.12 C260.29 245.61, 268.66 241.74, 272.79 231.45 M255.12 254.63 C259.73 249.64, 264.41 245.66, 274.66 233.94 M261.69 253.96 C262.87 248.98, 268.8 246.1, 275.87 237.36 M260.64 254.09 C265.12 249.41, 268.97 244.6, 273.95 238.32 M266.43 253.2 C268.75 249.89, 272.62 248.77, 273.73 245.28 M266.93 254.26 C269.4 251.31, 271 249.15, 274.51 244.68 M271.95 254.49 C272.03 254, 273.3 252.96, 273.82 251.9 M271.75 254.44 C272.19 253.86, 272.98 253.13, 274.14 251.46" stroke="#228be6" stroke-width="0.5" fill="none"></path><path d="M-0.31 0.82 C97.86 -1.6, 197.11 -1.37, 272.25 0.41 M-0.58 -0.13 C99.74 -0.35, 197.9 -0.29, 273.65 0.76 M273.29 -0.42 C272.35 89.98, 271.11 182.91, 271.38 253.57 M273.24 -0.73 C271.47 73.83, 270.93 146.09, 273.71 252.67 M272.79 251.84 C184.13 252.99, 98.75 251.53, 1 253.84 M273.36 253.57 C169.38 253.28, 65.31 253.34, 0.31 252.77 M-0.16 253.42 C-1.04 162, -1.91 71.09, -0.03 0.38 M0.45 252.66 C-0.35 154.23, -0.33 55, 0.03 0.53" stroke="#000000" stroke-width="1" fill="none"></path></g><g transform="translate(1199.8289864196458 791.9509685895266) rotate(0 13 23)"><text x="0" y="32" font-family="Virgil, Segoe UI Emoji" font-size="36px" fill="#000000" text-anchor="start" style="white-space: pre;" direction="ltr">a</text></g><g transform="translate(1210.2867676233823 618.0903560774079) rotate(0 81 23)"><text x="0" y="32" font-family="Virgil, Segoe UI Emoji" font-size="36px" fill="#000000" text-anchor="start" style="white-space: pre;" direction="ltr">undefined</text></g><g transform="translate(1150.6774466767 467.7597512736961) rotate(0 81 23)"><text x="0" y="32" font-family="Virgil, Segoe UI Emoji" font-size="36px" fill="#000000" text-anchor="start" style="white-space: pre;" direction="ltr">undefined</text></g></svg>